<svg width="190" height="165" viewBox="0 0 190 165" fill="none" xmlns="http://www.w3.org/2000/svg">
<circle cx="64" cy="101" r="63.4677" fill="#FF9900" stroke="#FF9900" stroke-width="1.06452"/>
<path fill-rule="evenodd" clip-rule="evenodd" d="M121.677 50.0322C112.271 50.0322 104.645 57.6578 104.645 67.0645C104.645 76.4711 112.271 84.0968 121.677 84.0968C131.084 84.0968 138.71 76.4711 138.71 67.0645C138.71 57.6578 131.084 50.0322 121.677 50.0322ZM102.516 67.0645C102.516 56.482 111.095 47.9032 121.677 47.9032C132.26 47.9032 140.839 56.482 140.839 67.0645C140.839 77.647 132.26 86.2258 121.677 86.2258C111.095 86.2258 102.516 77.647 102.516 67.0645Z" fill="black"/>
<path fill-rule="evenodd" clip-rule="evenodd" d="M122.21 2.13463C119.285 2.13463 116.479 3.29661 114.411 5.36494C112.343 7.43327 111.181 10.2385 111.181 13.1636V14.1918L111.181 14.196C111.172 16.3504 110.534 18.4552 109.344 20.2514C108.155 22.0476 106.466 23.4568 104.486 24.3055C104.353 24.3624 104.21 24.3918 104.065 24.3918H103.8C101.837 25.2098 99.6773 25.4442 97.5811 25.0641C95.4093 24.6704 93.4053 23.635 91.8274 22.0915L91.819 22.0833L91.4561 21.7204C90.4318 20.6949 89.215 19.881 87.8762 19.326C86.5373 18.771 85.1021 18.4853 83.6527 18.4853C82.2033 18.4853 80.7682 18.771 79.4293 19.326C78.0904 19.881 76.874 20.6945 75.8497 21.72L75.8489 21.7208C74.8235 22.7451 74.01 23.9615 73.455 25.3004C72.8999 26.6392 72.6143 28.0744 72.6143 29.5238C72.6143 30.9732 72.8999 32.4083 73.455 33.7472C74.01 35.0861 74.8235 36.3025 75.8489 37.3268L76.2205 37.6984C77.764 39.2763 78.7993 41.2804 79.1931 43.4522C79.5849 45.6129 79.3237 47.8412 78.4434 49.8524C77.676 51.9194 76.3075 53.7098 74.5138 54.9927C72.7108 56.2823 70.5617 56.9995 68.3457 57.0514L68.3207 57.0517H67.7764C64.8513 57.0517 62.0461 58.2136 59.9777 60.282C57.9094 62.3503 56.7474 65.1556 56.7474 68.0806C56.7474 71.0057 57.9094 73.8109 59.9777 75.8793C62.0461 77.9476 64.8513 79.1096 67.7764 79.1096H68.8088C70.9632 79.1182 73.068 79.7565 74.8642 80.9461C76.6588 82.1346 78.0671 83.8215 78.916 85.7994C79.8054 87.8173 80.0704 90.0553 79.6769 92.2252C79.2832 94.397 78.2478 96.4011 76.7043 97.979L76.6961 97.9874L76.3332 98.3502C75.3077 99.3745 74.4938 100.591 73.9388 101.93C73.3838 103.269 73.0981 104.704 73.0981 106.154C73.0981 107.603 73.3838 109.038 73.9388 110.377C74.4938 111.716 75.3073 112.932 76.3328 113.957L76.3336 113.957C77.3579 114.983 78.5743 115.796 79.9131 116.351C81.252 116.906 82.6872 117.192 84.1366 117.192C85.5859 117.192 87.0211 116.906 88.36 116.351C89.6989 115.796 90.9153 114.983 91.9396 113.957L92.3112 113.586C93.8891 112.042 95.8932 111.007 98.065 110.613C100.226 110.221 102.454 110.483 104.465 111.363C106.532 112.13 108.323 113.499 109.606 115.293C110.895 117.096 111.612 119.245 111.664 121.461L111.664 121.486V122.03C111.664 124.955 112.826 127.76 114.895 129.829C116.963 131.897 119.768 133.059 122.693 133.059C125.618 133.059 128.424 131.897 130.492 129.829C132.56 127.76 133.722 124.955 133.722 122.03V121.002L133.722 120.998C133.731 118.843 134.369 116.738 135.559 114.942C136.747 113.148 138.434 111.739 140.412 110.891C142.43 110.001 144.668 109.736 146.838 110.129C149.01 110.523 151.014 111.559 152.592 113.102L152.6 113.11L152.963 113.473C153.987 114.499 155.204 115.312 156.543 115.868C157.882 116.423 159.317 116.708 160.766 116.708C162.216 116.708 163.651 116.423 164.99 115.868C166.329 115.312 167.545 114.499 168.569 113.474L168.57 113.473C169.596 112.448 170.409 111.232 170.964 109.893C171.519 108.554 171.805 107.119 171.805 105.67C171.805 104.22 171.519 102.785 170.964 101.446C170.409 100.107 169.596 98.8911 168.57 97.8668L168.199 97.4951C166.655 95.9173 165.62 93.9132 165.226 91.7414C164.833 89.5712 165.098 87.3331 165.987 85.315C166.836 83.3373 168.244 81.6506 170.039 80.4622C171.835 79.2727 173.94 78.6343 176.094 78.6257L176.098 78.6257L176.643 78.6257C179.568 78.6257 182.373 77.4637 184.441 75.3954C186.51 73.3271 187.672 70.5218 187.672 67.5968C187.672 64.6717 186.51 61.8665 184.441 59.7981C182.373 57.7298 179.568 56.5678 176.643 56.5678H175.615L175.61 56.5678C173.456 56.5592 171.351 55.9209 169.555 54.7313C167.759 53.5418 166.35 51.853 165.501 49.8728C165.444 49.74 165.415 49.5969 165.415 49.4524V49.1876C164.597 47.2242 164.362 45.0645 164.742 42.9683C165.136 40.7965 166.171 38.7925 167.715 37.2146L167.723 37.2062L168.086 36.8433C169.111 35.819 169.925 34.6022 170.48 33.2634C171.035 31.9245 171.321 30.4893 171.321 29.0399C171.321 27.5906 171.035 26.1554 170.48 24.8165C169.925 23.4776 169.112 22.2612 168.086 21.2369L168.086 21.2361C167.061 20.2107 165.845 19.3972 164.506 18.8422C163.167 18.2871 161.732 18.0015 160.283 18.0015C158.833 18.0015 157.398 18.2871 156.059 18.8422C154.72 19.3972 153.504 20.2107 152.48 21.2361L152.108 21.6077C150.53 23.1512 148.526 24.1865 146.354 24.5803C144.184 24.9737 141.946 24.7087 139.928 23.8194C137.95 22.9705 136.263 21.5622 135.075 19.7676C133.885 17.9714 133.247 15.8665 133.239 13.7122L133.239 13.7079V13.1636C133.239 10.2385 132.077 7.43327 130.008 5.36494C127.94 3.29661 125.135 2.13463 122.21 2.13463ZM112.902 3.85552C115.37 1.38687 118.718 0 122.21 0C125.701 0 129.049 1.38687 131.518 3.85552C133.986 6.32417 135.373 9.67238 135.373 13.1636L135.373 13.7037C135.373 13.7043 135.373 13.705 135.373 13.7056C135.38 15.443 135.895 17.1404 136.855 18.5889C137.814 20.038 139.177 21.1749 140.774 21.8596L140.785 21.8641C142.414 22.5831 144.221 22.7976 145.973 22.4799C147.724 22.1625 149.339 21.3287 150.611 20.0856C150.613 20.0843 150.614 20.083 150.615 20.0817L150.969 19.7275C150.969 19.7277 150.969 19.7274 150.969 19.7275C152.192 18.5038 153.644 17.5326 155.242 16.8703C156.84 16.2078 158.553 15.8668 160.283 15.8668C162.012 15.8668 163.725 16.2078 165.323 16.8703C166.921 17.5325 168.373 18.5032 169.595 19.7267C170.819 20.9492 171.79 22.401 172.452 23.9991C173.115 25.5971 173.456 27.31 173.456 29.0399C173.456 30.7698 173.115 32.4828 172.452 34.0808C171.79 35.6788 170.819 37.1306 169.595 38.3532L169.241 38.7073C169.239 38.7087 169.238 38.71 169.237 38.7114C167.994 39.9838 167.16 41.5989 166.843 43.3492C166.525 45.1013 166.739 46.9085 167.458 48.5376C167.518 48.6733 167.549 48.8201 167.549 48.9685V49.2268C168.241 50.7403 169.344 52.0312 170.734 52.9516C172.182 53.9109 173.879 54.4259 175.617 54.4332H176.643C180.134 54.4332 183.482 55.8201 185.951 58.2887C188.419 60.7574 189.806 64.1056 189.806 67.5968C189.806 71.088 188.419 74.4362 185.951 76.9048C183.482 79.3735 180.134 80.7604 176.643 80.7604L176.103 80.7603C176.102 80.7603 176.101 80.7604 176.101 80.7604C174.363 80.7677 172.666 81.2826 171.217 82.242C169.768 83.2016 168.631 84.5641 167.947 86.1616L167.942 86.1721C167.223 87.8012 167.009 89.6084 167.326 91.3605C167.644 93.1107 168.478 94.7258 169.72 95.9981C169.722 95.9995 169.723 96.001 169.725 96.0024L170.079 96.3565C170.079 96.3564 170.079 96.3567 170.079 96.3565C171.303 97.579 172.274 99.0311 172.936 100.629C173.599 102.227 173.94 103.94 173.94 105.67C173.94 107.4 173.599 109.113 172.936 110.711C172.274 112.308 171.303 113.76 170.079 114.983C168.857 116.206 167.405 117.177 165.807 117.839C164.209 118.502 162.496 118.843 160.766 118.843C159.036 118.843 157.324 118.502 155.726 117.839C154.128 117.177 152.676 116.206 151.454 114.983C151.453 114.982 151.454 114.983 151.454 114.983L151.099 114.628C151.098 114.627 151.096 114.625 151.095 114.624C149.822 113.381 148.207 112.547 146.457 112.23C144.705 111.912 142.898 112.127 141.269 112.846L141.258 112.85C139.661 113.535 138.298 114.672 137.339 116.121C136.379 117.569 135.864 119.267 135.857 121.004C135.857 121.005 135.857 121.005 135.857 121.006L135.857 122.03C135.857 125.521 134.47 128.869 132.001 131.338C129.533 133.807 126.185 135.194 122.693 135.194C119.202 135.194 115.854 133.807 113.385 131.338C110.917 128.869 109.53 125.521 109.53 122.03V121.498C109.486 119.715 108.907 117.986 107.869 116.534C106.829 115.08 105.375 113.972 103.697 113.355C103.685 113.35 103.674 113.346 103.663 113.342C103.653 113.338 103.644 113.334 103.634 113.329C102.005 112.61 100.198 112.396 98.4458 112.714C96.6956 113.031 95.0804 113.865 93.8081 115.108C93.8067 115.109 93.8053 115.11 93.8039 115.112L93.4498 115.466C92.2273 116.69 90.7755 117.661 89.1774 118.323C87.5794 118.986 85.8665 119.327 84.1366 119.327C82.4067 119.327 80.6937 118.986 79.0957 118.323C77.4977 117.661 76.0459 116.69 74.8233 115.466C73.5998 114.244 72.6292 112.792 71.9669 111.194C71.3044 109.596 70.9635 107.884 70.9635 106.154C70.9635 104.424 71.3044 102.711 71.9669 101.113C72.6293 99.5149 73.6001 98.0632 74.8238 96.8408C74.8236 96.8409 74.8239 96.8407 74.8238 96.8408L75.1784 96.4863C75.1797 96.4849 75.181 96.4836 75.1824 96.4822C76.4253 95.2099 77.2592 93.5946 77.5766 91.8444C77.8943 90.0922 77.6798 88.2851 76.9608 86.656L76.9562 86.6455C76.2715 85.048 75.1347 83.6855 73.6856 82.7258C72.237 81.7665 70.5397 81.2515 68.8023 81.2442C68.8016 81.2442 68.801 81.2442 68.8003 81.2442L67.7764 81.2442C64.2852 81.2442 60.937 79.8573 58.4683 77.3887C55.9997 74.92 54.6128 71.5718 54.6128 68.0806C54.6128 64.5894 55.9997 61.2412 58.4683 58.7726C60.937 56.3039 64.2852 54.917 67.7764 54.917H68.3079C70.0914 54.8729 71.8207 54.2945 73.2719 53.2565C74.7265 52.2162 75.8344 50.7623 76.4517 49.084C76.4594 49.0629 76.4679 49.042 76.4769 49.0214C77.1959 47.3923 77.4104 45.5852 77.0927 43.833C76.7753 42.0828 75.9415 40.4675 74.6985 39.1952L74.3403 38.837C73.1164 37.6145 72.1455 36.1627 71.483 34.5646C70.8206 32.9666 70.4796 31.2537 70.4796 29.5238C70.4796 27.7939 70.8206 26.0809 71.483 24.4829C72.1455 22.8849 73.1164 21.4331 74.3403 20.2105C75.5627 18.987 77.0142 18.0164 78.6119 17.3541C80.2099 16.6917 81.9228 16.3507 83.6527 16.3507C85.3826 16.3507 87.0956 16.6917 88.6936 17.3541C90.2914 18.0165 91.7431 18.9873 92.9655 20.211C92.9654 20.2108 92.9657 20.2111 92.9655 20.211L93.3242 20.5697C94.5966 21.8126 96.2117 22.6464 97.962 22.9638C99.7141 23.2815 101.521 23.067 103.15 22.348C103.286 22.2881 103.433 22.2571 103.581 22.2571H103.84C105.353 21.5652 106.644 20.4626 107.564 19.0728C108.524 17.6242 109.039 15.9269 109.046 14.1895V13.1636C109.046 9.67238 110.433 6.32417 112.902 3.85552Z" fill="black"/>
</svg>
