<svg width="317" height="57" viewBox="0 0 317 57" fill="none" xmlns="http://www.w3.org/2000/svg">
<path d="M204.472 8.95649C204.472 8.25168 204.596 7.56313 204.846 6.89085C205.095 6.20772 205.458 5.58965 205.935 5.03665C206.423 4.4728 207.014 4.02822 207.708 3.70293C208.402 3.36678 209.188 3.19871 210.067 3.19871C211.108 3.19871 212.008 3.43726 212.767 3.91437C213.526 4.38063 214.09 4.98243 214.458 5.71977L213.027 6.6794C212.81 6.21314 212.534 5.84447 212.197 5.57339C211.872 5.30231 211.514 5.11255 211.124 5.00412C210.744 4.89568 210.37 4.84147 210.002 4.84147C209.394 4.84147 208.863 4.96617 208.408 5.21556C207.952 5.45411 207.567 5.77399 207.253 6.17519C206.949 6.57639 206.716 7.02639 206.553 7.52518C206.402 8.02397 206.326 8.52276 206.326 9.02155C206.326 9.57456 206.418 10.1113 206.602 10.6318C206.787 11.1414 207.041 11.5968 207.367 11.998C207.703 12.3884 208.099 12.6974 208.554 12.9251C209.009 13.1528 209.508 13.2667 210.05 13.2667C210.419 13.2667 210.804 13.2016 211.205 13.0715C211.606 12.9414 211.975 12.7408 212.311 12.4697C212.658 12.1878 212.929 11.8191 213.124 11.3637L214.637 12.2257C214.399 12.8004 214.024 13.2884 213.515 13.6896C213.016 14.0908 212.452 14.3944 211.823 14.6004C211.205 14.8064 210.593 14.9094 209.985 14.9094C209.172 14.9094 208.429 14.7414 207.757 14.4052C207.085 14.0583 206.505 13.6028 206.017 13.039C205.529 12.4643 205.149 11.8245 204.878 11.1197C204.607 10.4041 204.472 9.68299 204.472 8.95649Z" fill="black"/>
<path d="M224.243 13.2016V14.8119H216.322V3.26377H224.097V4.874H218.144V8.15951H223.3V9.67215H218.144V13.2016H224.243Z" fill="black"/>
<path d="M234.596 4.874H230.758V14.8119H228.92V4.874H225.065V3.26377H234.596V4.874Z" fill="black"/>
<path d="M236.161 14.8119V3.26377H237.983V7.52518H240.569C241.415 7.52518 242.125 7.67699 242.7 7.9806C243.274 8.27337 243.714 8.69083 244.017 9.23299C244.321 9.77516 244.473 10.4149 244.473 11.1523C244.473 11.8462 244.326 12.4751 244.033 13.039C243.741 13.592 243.312 14.0257 242.748 14.3402C242.185 14.6546 241.496 14.8119 240.683 14.8119H236.161ZM237.983 13.2992H240.423C240.932 13.2992 241.344 13.2016 241.659 13.0065C241.984 12.8113 242.223 12.551 242.374 12.2257C242.526 11.8896 242.602 11.5318 242.602 11.1523C242.602 10.7836 242.532 10.4366 242.391 10.1113C242.261 9.786 242.033 9.52576 241.708 9.33058C241.382 9.1354 240.948 9.03782 240.406 9.03782H237.983V13.2992Z" fill="black"/>
<path d="M249.565 8.95649C249.565 8.25168 249.69 7.56313 249.939 6.89085C250.189 6.20772 250.552 5.58965 251.029 5.03665C251.517 4.4728 252.108 4.02822 252.802 3.70293C253.496 3.36678 254.282 3.19871 255.161 3.19871C256.201 3.19871 257.101 3.43726 257.86 3.91437C258.62 4.38063 259.183 4.98243 259.552 5.71977L258.121 6.6794C257.904 6.21314 257.627 5.84447 257.291 5.57339C256.966 5.30231 256.608 5.11255 256.218 5.00412C255.838 4.89568 255.464 4.84147 255.095 4.84147C254.488 4.84147 253.957 4.96617 253.501 5.21556C253.046 5.45411 252.661 5.77399 252.347 6.17519C252.043 6.57639 251.81 7.02639 251.647 7.52518C251.495 8.02397 251.42 8.52276 251.42 9.02155C251.42 9.57456 251.512 10.1113 251.696 10.6318C251.88 11.1414 252.135 11.5968 252.461 11.998C252.797 12.3884 253.192 12.6974 253.648 12.9251C254.103 13.1528 254.602 13.2667 255.144 13.2667C255.513 13.2667 255.898 13.2016 256.299 13.0715C256.7 12.9414 257.069 12.7408 257.405 12.4697C257.752 12.1878 258.023 11.8191 258.218 11.3637L259.731 12.2257C259.492 12.8004 259.118 13.2884 258.609 13.6896C258.11 14.0908 257.546 14.3944 256.917 14.6004C256.299 14.8064 255.686 14.9094 255.079 14.9094C254.266 14.9094 253.523 14.7414 252.851 14.4052C252.179 14.0583 251.598 13.6028 251.111 13.039C250.623 12.4643 250.243 11.8245 249.972 11.1197C249.701 10.4041 249.565 9.68299 249.565 8.95649Z" fill="black"/>
<path d="M269.89 4.874H266.051V14.8119H264.213V4.874H260.359V3.26377H269.89V4.874Z" fill="black"/>
<path d="M272.61 14.8769V13.348H273.439C273.71 13.348 273.916 13.283 274.057 13.1528C274.198 13.0227 274.334 12.8275 274.464 12.5673L274.805 11.8191L270.105 3.26377H272.122L275.635 9.94865L278.611 3.26377H280.547L275.863 13.4293C275.602 13.9607 275.315 14.3348 275.001 14.5516C274.697 14.7685 274.279 14.8769 273.748 14.8769H272.61Z" fill="black"/>
<path d="M280.919 17.0239V13.2016H281.472C281.776 13.2016 282.036 13.0824 282.253 12.8438C282.48 12.6053 282.67 12.2257 282.822 11.7053C282.985 11.1848 283.109 10.5017 283.196 9.65588C283.294 8.79926 283.364 7.75289 283.408 6.51675L283.489 3.26377H290.922V13.2016H292.386V17.0239H290.776V14.8119H282.529V17.0239H280.919ZM283.782 13.2016H289.084V4.874H285.18L285.132 6.76073C285.099 8.0077 285.034 9.06492 284.936 9.93239C284.839 10.789 284.698 11.483 284.514 12.0143C284.329 12.5456 284.085 12.9414 283.782 13.2016Z" fill="black"/>
<path d="M294.329 14.8119V3.26377H296.15V12.242L302.315 3.26377H304.023V14.8119H302.201V5.98001L296.102 14.8119H294.329Z" fill="black"/>
<path d="M306.782 14.8119V3.26377H308.603V12.242L314.768 3.26377H316.476V14.8119H314.654V5.98001L308.555 14.8119H306.782ZM311.629 2.48306C311.043 2.48306 310.539 2.39089 310.116 2.20655C309.693 2.01137 309.373 1.75114 309.156 1.42584C308.939 1.0897 308.831 0.721025 308.831 0.319824H310.148C310.148 0.612593 310.257 0.878253 310.474 1.1168C310.701 1.35536 311.086 1.47463 311.629 1.47463C312.16 1.47463 312.539 1.3662 312.767 1.14933C312.995 0.932469 313.109 0.655966 313.109 0.319824H314.426C314.426 0.721025 314.318 1.0897 314.101 1.42584C313.884 1.75114 313.564 2.01137 313.141 2.20655C312.729 2.39089 312.225 2.48306 311.629 2.48306Z" fill="black"/>
<path d="M212.702 34.3297V24.3919H208.847L208.782 26.5389C208.717 28.0894 208.592 29.3744 208.408 30.3936C208.223 31.4021 207.958 32.199 207.611 32.7846C207.264 33.3593 206.83 33.7713 206.309 34.0207C205.789 34.2593 205.166 34.3785 204.439 34.3785V32.7846C204.84 32.7846 205.193 32.6924 205.496 32.5081C205.8 32.3129 206.055 31.9713 206.261 31.4834C206.478 30.9954 206.646 30.3123 206.765 29.434C206.895 28.5449 206.982 27.4117 207.025 26.0346L207.139 22.7817H214.54V34.3297H212.702Z" fill="black"/>
<path d="M220.482 22.7817H222.206L226.696 34.3297H224.776L223.556 31.1906H219.1L217.896 34.3297H215.961L220.482 22.7817ZM223.199 29.8406L221.344 24.7822L219.425 29.8406H223.199Z" fill="black"/>
<path d="M231.476 34.4599C230.598 34.4599 229.801 34.2755 229.085 33.9069C228.38 33.5382 227.827 33.0286 227.426 32.378L228.825 31.5159C229.085 31.9605 229.438 32.3075 229.882 32.5569C230.338 32.7954 230.858 32.9147 231.444 32.9147C232.181 32.9147 232.745 32.7412 233.135 32.3942C233.536 32.0472 233.737 31.5864 233.737 31.0117C233.737 30.643 233.656 30.3177 233.493 30.0358C233.33 29.743 233.086 29.5208 232.761 29.3689C232.436 29.2063 232.04 29.125 231.574 29.125H230.289V27.7099H231.574C231.953 27.7099 232.273 27.6394 232.533 27.4985C232.804 27.3467 233.01 27.1461 233.151 26.8967C233.292 26.6364 233.363 26.3437 233.363 26.0184C233.363 25.6822 233.282 25.3895 233.119 25.1401C232.967 24.8798 232.745 24.6792 232.452 24.5383C232.159 24.3865 231.801 24.3106 231.379 24.3106C230.793 24.3106 230.289 24.4298 229.866 24.6684C229.454 24.9069 229.129 25.2322 228.89 25.6443L227.556 24.7172C227.957 24.0883 228.473 23.5895 229.101 23.2208C229.741 22.8521 230.527 22.6678 231.46 22.6678C232.208 22.6678 232.853 22.7925 233.395 23.0419C233.948 23.2805 234.377 23.6329 234.68 24.0991C234.984 24.5545 235.136 25.1075 235.136 25.7581C235.136 26.3003 235 26.8099 234.729 27.287C234.469 27.7533 234.062 28.1057 233.509 28.3443C234.171 28.5286 234.68 28.8756 235.038 29.3852C235.407 29.8948 235.591 30.4912 235.591 31.1744C235.591 31.8683 235.412 32.4647 235.054 32.9635C234.697 33.4514 234.209 33.8255 233.591 34.0858C232.983 34.3352 232.279 34.4599 231.476 34.4599Z" fill="black"/>
<path d="M245.464 32.7195V34.3297H237.543V22.7817H245.317V24.3919H239.364V27.6774H244.52V29.19H239.364V32.7195H245.464Z" fill="black"/>
<path d="M247.343 34.3297V22.7817H252.19C252.71 22.7817 253.187 22.8901 253.621 23.107C254.055 23.3238 254.434 23.6112 254.76 23.969C255.085 24.3268 255.334 24.728 255.508 25.1726C255.681 25.6172 255.768 26.0726 255.768 26.5389C255.768 27.1786 255.622 27.7913 255.329 28.3768C255.047 28.9515 254.64 29.4177 254.109 29.7756C253.589 30.1334 252.981 30.3123 252.287 30.3123H249.165V34.3297H247.343ZM249.165 28.7021H252.174C252.521 28.7021 252.824 28.6099 253.084 28.4256C253.345 28.2304 253.545 27.9702 253.686 27.6449C253.838 27.3196 253.914 26.9509 253.914 26.5389C253.914 26.116 253.827 25.7419 253.654 25.4166C253.48 25.0913 253.253 24.8419 252.971 24.6684C252.7 24.4841 252.401 24.3919 252.076 24.3919H249.165V28.7021Z" fill="black"/>
<path d="M266.959 22.7817V34.3297H265.121V29.2388H259.298V34.3297H257.477V22.7817H259.298V27.6123H265.121V22.7817H266.959Z" fill="black"/>
<path d="M274.362 34.4111C273.527 34.4111 272.774 34.2484 272.102 33.9231C271.429 33.5978 270.849 33.1587 270.361 32.6057C269.873 32.0418 269.494 31.4129 269.223 30.7189C268.962 30.0141 268.832 29.293 268.832 28.5557C268.832 27.7858 268.973 27.0539 269.255 26.3599C269.537 25.6551 269.927 25.0316 270.426 24.4895C270.925 23.9365 271.511 23.5027 272.183 23.1883C272.866 22.863 273.603 22.7003 274.395 22.7003C275.219 22.7003 275.967 22.8684 276.639 23.2045C277.323 23.5407 277.903 23.9907 278.38 24.5545C278.868 25.1184 279.242 25.7473 279.502 26.4413C279.773 27.1352 279.909 27.8455 279.909 28.572C279.909 29.3418 279.768 30.0792 279.486 30.784C279.215 31.478 278.83 32.1015 278.331 32.6545C277.832 33.1966 277.241 33.6249 276.558 33.9394C275.886 34.2538 275.154 34.4111 274.362 34.4111ZM270.687 28.5557C270.687 29.0979 270.773 29.6238 270.947 30.1334C271.12 30.643 271.364 31.0985 271.679 31.4997C272.004 31.89 272.394 32.199 272.85 32.4268C273.305 32.6545 273.815 32.7683 274.379 32.7683C274.964 32.7683 275.485 32.649 275.94 32.4105C276.395 32.1719 276.775 31.8521 277.079 31.4509C277.393 31.0388 277.632 30.5834 277.794 30.0846C277.957 29.575 278.038 29.0653 278.038 28.5557C278.038 28.0135 277.952 27.4931 277.778 26.9943C277.615 26.4846 277.371 26.0346 277.046 25.6443C276.721 25.2431 276.33 24.9286 275.875 24.7009C275.43 24.4732 274.932 24.3594 274.379 24.3594C273.793 24.3594 273.273 24.4786 272.817 24.7172C272.362 24.9557 271.977 25.2756 271.662 25.6768C271.348 26.078 271.104 26.528 270.93 27.0268C270.768 27.5256 270.687 28.0352 270.687 28.5557Z" fill="black"/>
<path d="M281.876 34.3297V22.7817H283.698V31.7599L289.862 22.7817H291.57V34.3297H289.748V25.4979L283.649 34.3297H281.876ZM286.723 22.0009C286.137 22.0009 285.633 21.9088 285.21 21.7244C284.787 21.5293 284.468 21.269 284.251 20.9437C284.034 20.6076 283.925 20.2389 283.925 19.8377H285.243C285.243 20.1305 285.351 20.3961 285.568 20.6347C285.796 20.8732 286.181 20.9925 286.723 20.9925C287.254 20.9925 287.634 20.8841 287.861 20.6672C288.089 20.4504 288.203 20.1739 288.203 19.8377H289.521C289.521 20.2389 289.412 20.6076 289.195 20.9437C288.978 21.269 288.658 21.5293 288.236 21.7244C287.824 21.9088 287.319 22.0009 286.723 22.0009Z" fill="black"/>
<path d="M209.286 53.9452C208.57 53.9452 207.909 53.8368 207.302 53.6199C206.705 53.4031 206.174 53.094 205.708 52.6928C205.252 52.2808 204.873 51.8037 204.569 51.2615L206.098 50.3995C206.315 50.8115 206.586 51.1585 206.911 51.4404C207.237 51.7224 207.6 51.9392 208.001 52.091C208.413 52.232 208.841 52.3025 209.286 52.3025C209.85 52.3025 210.365 52.194 210.831 51.9772C211.297 51.7495 211.699 51.4404 212.035 51.0501C212.371 50.6597 212.62 50.2151 212.783 49.7164C212.956 49.2067 213.038 48.6754 213.027 48.1224L213.808 48.6591H208.261V47.2441H213.759L213.027 47.732C213.016 47.2441 212.924 46.7724 212.75 46.317C212.577 45.8507 212.333 45.4387 212.018 45.0809C211.704 44.7122 211.319 44.4194 210.864 44.2025C210.408 43.9857 209.882 43.8773 209.286 43.8773C208.863 43.8773 208.451 43.9477 208.05 44.0887C207.659 44.2188 207.307 44.4248 206.993 44.7068C206.678 44.9778 206.418 45.3194 206.212 45.7314L204.732 44.7556C205.176 44.0182 205.767 43.4164 206.505 42.9502C207.242 42.473 208.169 42.2345 209.286 42.2345C210.186 42.2345 210.983 42.4026 211.677 42.7387C212.382 43.064 212.973 43.5032 213.45 44.0562C213.938 44.5983 214.306 45.2164 214.556 45.9104C214.805 46.6043 214.93 47.32 214.93 48.0573C214.93 48.8272 214.794 49.5645 214.523 50.2694C214.263 50.9742 213.884 51.6031 213.385 52.1561C212.886 52.7091 212.29 53.1482 211.596 53.4735C210.912 53.788 210.143 53.9452 209.286 53.9452Z" fill="black"/>
<path d="M216.831 53.8476V42.2996H225.955V53.8476H224.117V43.9098H218.652V53.8476H216.831Z" fill="black"/>
<path d="M228.65 53.8476V42.2996H230.471V51.2778L236.636 42.2996H238.344V53.8476H236.522V45.0158L230.423 53.8476H228.65Z" fill="black"/>
<path d="M248.519 53.8476V43.9098H244.665L244.6 46.0567C244.534 47.6073 244.41 48.8923 244.225 49.9115C244.041 50.92 243.775 51.7169 243.428 52.3025C243.081 52.8772 242.648 53.2892 242.127 53.5386C241.607 53.7772 240.983 53.8964 240.257 53.8964V52.3025C240.658 52.3025 241.01 52.2103 241.314 52.026C241.618 51.8308 241.872 51.4892 242.078 51.0013C242.295 50.5133 242.463 49.8302 242.583 48.9519C242.713 48.0628 242.8 46.9296 242.843 45.5525L242.957 42.2996H250.357V53.8476H248.519Z" fill="black"/>
<path d="M252.64 53.8476L255.568 49.1145C254.809 48.8977 254.218 48.4911 253.795 47.8947C253.372 47.2983 253.161 46.5935 253.161 45.7802C253.161 45.1188 253.318 44.5278 253.633 44.0074C253.958 43.4869 254.408 43.0748 254.983 42.7712C255.557 42.4568 256.224 42.2996 256.983 42.2996H261.163V53.8476H259.342V49.3423H257.845C257.78 49.3423 257.71 49.3423 257.634 49.3423C257.569 49.3423 257.504 49.3423 257.439 49.3423L254.739 53.8476H252.64ZM257.178 47.7646H259.342V43.8773H257.227C256.815 43.8773 256.441 43.9532 256.105 44.105C255.769 44.2459 255.503 44.4574 255.308 44.7393C255.124 45.0212 255.031 45.3682 255.031 45.7802C255.031 46.1923 255.118 46.5447 255.292 46.8375C255.465 47.1302 255.709 47.3579 256.024 47.5206C256.349 47.6832 256.734 47.7646 257.178 47.7646Z" fill="black"/>
<path d="M272.436 56.0434V53.8476H263.767V42.2996H265.588V52.2374H270.744V42.2996H272.582V52.2374H274.046V56.0434H272.436Z" fill="black"/>
<path d="M275.983 53.8476V42.2996H277.805V51.2778L283.969 42.2996H285.677V53.8476H283.855V45.0158L277.756 53.8476H275.983Z" fill="black"/>
<path d="M288.436 53.8476V42.2996H290.258V51.2778L296.422 42.2996H298.13V53.8476H296.308V45.0158L290.209 53.8476H288.436Z" fill="black"/>
<path fill-rule="evenodd" clip-rule="evenodd" d="M146.739 9.39415L144.247 4.13672L139.161 52.3891H142.185L146.167 14.7946L146.193 14.9393L163.967 54.1362L181.741 14.9393L181.768 14.7946L185.75 52.3891H188.773L183.688 4.13672L181.195 9.39415L181.212 9.55161L163.967 47.2166L146.722 9.55161L146.739 9.39415Z" fill="black"/>
<path fill-rule="evenodd" clip-rule="evenodd" d="M58.1091 5.56836L87.8444 5.56852L87.8227 5.60382L87.8237 5.60348L87.7035 5.79769L86.089 8.42541H86.0783L60.7005 49.4577L87.8444 49.4577L87.8444 52.3148L55.4149 52.3146L55.4586 52.2494H55.4424L83.0188 8.42541H58.1091L58.1091 5.56836Z" fill="black"/>
<rect x="43.7123" y="5.56836" width="2.9657" height="46.7466" fill="black"/>
<path fill-rule="evenodd" clip-rule="evenodd" d="M15.2821 5.56836H12.6402L10.4841 20.1954H2.5312L2.28087 22.8603L10.0912 22.8603L8.40947 34.2691H0.299988L0.0496521 36.934L8.01663 36.934L5.74934 52.3149H8.54059L10.7587 36.934L21.9051 36.9341L19.6378 52.3149H22.429L24.6472 36.9341L32.6071 36.9341L32.9608 34.2691H25.0315L26.6768 22.8604L34.8383 22.8604L35.1921 20.1954H27.0611L29.1705 5.56836H26.5287L24.3725 20.1954L13.1727 20.1954L15.2821 5.56836ZM12.7883 22.8603L11.143 34.2691H22.2979L23.9797 22.8604L12.7883 22.8603Z" fill="black"/>
<path fill-rule="evenodd" clip-rule="evenodd" d="M124.443 5.56836H127.627V37.6748H127.641C127.641 39.4091 126.875 43.4753 126.106 45.0776C125.336 46.6798 124.537 48.1356 123.116 49.362C121.695 50.5883 120.174 51.5611 118.317 52.2247C116.46 52.8884 113.974 53.23 111.963 53.23C109.953 53.23 107.963 52.8884 106.105 52.2247C104.248 51.5611 102.561 50.5883 101.139 49.362C99.718 48.1356 98.5905 46.6798 97.8212 45.0775C97.052 43.4753 96.7253 39.4091 96.7253 37.6748L96.7303 37.6766V5.61475H99.9143V40.2627C100.092 41.5747 100.457 43.1179 100.884 44.0092C101.491 45.2728 102.307 46.4208 103.428 47.3879C104.548 48.355 105.879 49.1221 107.344 49.6455C108.808 50.1689 109.882 50.2413 111.467 50.2413C113.052 50.2413 115.118 50.1689 116.583 49.6455C118.047 49.1221 119.378 48.355 120.499 47.3879C121.62 46.4208 122.509 45.2728 123.116 44.0092C123.645 42.9081 124.287 39.9545 124.443 38.3081V5.56836Z" fill="black"/>
</svg>
