<svg width="22" height="27" viewBox="0 0 22 27" fill="none" xmlns="http://www.w3.org/2000/svg">
<path d="M18.7444 18.6867L11.2563 26.1748L3.76813 18.6867C2.28714 17.2057 1.27858 15.3188 0.869978 13.2645C0.461381 11.2103 0.671101 9.0811 1.47262 7.14608C2.27413 5.21107 3.63145 3.55718 5.37292 2.39357C7.1144 1.22996 9.16181 0.608887 11.2563 0.608887C13.3507 0.608887 15.3981 1.22996 17.1396 2.39357C18.8811 3.55718 20.2384 5.21107 21.0399 7.14608C21.8414 9.0811 22.0511 11.2103 21.6425 13.2645C21.2339 15.3188 20.2254 17.2057 18.7444 18.6867ZM11.2563 15.5028C12.5045 15.5028 13.3535 15.181 14.2361 14.2983C15.1188 13.4157 15.5377 12.4468 15.5377 11.1985C15.5377 9.95029 15.1188 9.0032 14.2361 8.12055C13.3535 7.2379 12.5045 6.89665 11.2563 6.89665C10.008 6.89665 9.17411 7.2379 8.29146 8.12055C7.40881 9.0032 6.951 9.95029 6.951 11.1985C6.951 12.4468 7.40881 13.4157 8.29146 14.2983C9.17411 15.181 10.008 15.5028 11.2563 15.5028Z" fill="#EE0808"/>
</svg>
