<svg width="317" height="57" viewBox="0 0 317 57" fill="none" xmlns="http://www.w3.org/2000/svg">
<path fill-rule="evenodd" clip-rule="evenodd" d="M144.256 4.78073C144.256 5.59854 139.838 46.7741 139.296 51.0013L139.112 52.4363H140.749H142.385L144.214 35.1313C145.22 25.6133 146.121 17.3305 146.215 16.7244C146.364 15.7756 147.588 18.2561 155.049 34.6204C159.812 45.0693 163.813 53.7272 163.938 53.8606C164.064 53.994 168.067 45.5244 172.834 35.0394C177.601 24.5544 181.578 15.9745 181.671 15.9725C181.765 15.9708 182.662 23.7565 183.666 33.2741C184.669 42.7921 185.728 51.9258 185.824 52.4363C187.326 52.4363 185.972 52.4363 187.326 52.4363C188.883 52.4363 188.883 52.4363 188.883 52.4363C188.622 50.0221 186.993 34.4222 185.947 24.5794C184.901 14.7366 183.951 6.15163 183.835 5.50163L183.625 4.31982L182.733 6.18506C182.243 7.21087 181.403 9.03423 180.867 10.237C179.997 12.1897 177.687 17.2589 167.026 40.6085L164.025 47.1834L163.362 45.6733C162.999 44.843 159.296 36.7183 155.136 27.6183C150.975 18.5184 146.967 9.7055 146.229 8.03408C144.888 4.99649 144.256 3.95549 144.256 4.78073ZM11.8076 12.3392C11.2906 15.9144 10.644 19.757 10.5467 20.1689C9.6326 20.1689 10.5467 20.1689 6.58546 20.1677H2.5077L2.41596 20.9612C2.1715 22.9576 2.5077 20.1677 2.1715 22.9576C3.1317 22.9576 4.19976 22.9577 6.35249 22.9577C9.9202 22.9577 9.26756 22.9577 10.2008 22.9577C10.1052 23.2825 9.69605 26.3268 9.39809 28.4625C9.10013 30.5982 8.77325 32.7633 8.67189 33.2741L8.4872 34.2027L0.517868 34.1865C0.126718 36.9628 0.526634 34.2216 0.254905 36.0514L0.124847 36.974H4.16768H8.07481L7.11457 43.7306C5.96766 52.3754 8.02626 36.974 5.99273 52.4363C7.57846 52.4363 5.8661 52.4363 7.32869 52.4363C8.76271 52.4363 7.32869 52.4363 8.80867 52.4363C8.91037 51.7401 9.58993 47.0551 10.11 43.5728L11.2054 36.9648H16.4881C21.3833 36.9648 21.2169 36.9603 22.0347 36.9603C22.0313 37.2855 21.339 41.4624 20.7822 45.1766C20.2254 48.8909 19.8278 52.2884 19.8268 52.4275C20.1254 52.4275 20.4173 52.4288 21.2091 52.4288H22.6541L23.6237 45.5987C24.1546 41.8382 24.7395 37.378 24.8364 36.9603C25.7051 36.9603 25.0917 36.9603 28.8101 36.9603C30.9302 36.9603 32.5893 36.9603 32.7476 36.9603C33.1843 34.1871 33.0908 34.8323 33.1843 34.1871H30.4347C26.4436 34.1871 27.3786 34.1871 25.2199 34.1871C25.3703 33.5331 26.9101 23.2765 26.9101 22.9598C34.8515 22.9554 28.6533 22.9598 30.7938 22.9598C32.9343 22.9598 30.7938 22.9598 34.8515 22.9554C35.3032 20.1617 34.8515 22.9554 35.3032 20.1617H31.3186H27.334L28.308 14.0174C29.5907 5.48543 27.334 20.1617 29.6181 5.57362C28.8698 5.57362 28.7575 5.57362 26.6691 5.57362C24.5278 20.1617 26.1004 9.54853 25.5392 13.2766C24.9779 17.0051 24.5123 19.9779 24.5123 20.1718C21.5084 20.1644 22.6161 20.1644 19.0613 20.1644C14.5922 20.1644 15.7447 20.1644 13.6132 20.1644C13.6132 19.5958 15.2696 8.10567 15.5461 6.76786C15.7325 5.86664 15.694 5.83929 14.243 5.83929H12.7478L11.8076 12.3392ZM43.9559 29.1378V52.4363H45.4462H46.9768V29.1378V5.57027H45.4617H43.9559V29.1378ZM58.09 7.31809V8.47837H70.4327C77.1573 8.47967 82.6499 8.47516 83.0911 8.47516C83.0911 8.56768 79.8828 13.6595 76.4501 19.0921C70.4827 28.5354 56.1008 51.6755 55.5582 52.5601C58.406 52.5601 58.672 52.5583 71.42 52.5708H87.4532V51.0515V49.6514H74.2091C61.9658 49.6514 64.2077 49.6766 60.5793 49.6766C60.7841 49.1468 65.4875 41.9186 80.7331 17.8006C84.3811 12.0296 87.367 7.0493 87.5847 6.64546L88.1396 5.70379H73.1736H58.09V7.31809ZM96.9227 22.1613C96.904 31.3377 96.9116 39.6682 97.097 40.9682C97.7912 45.8372 100.182 49.4208 104.746 51.8647C106.985 52.9175 107.432 53.2231 112.082 53.2231C115.146 53.2231 117.492 52.9392 119.716 51.9104C123.591 50.1175 127.592 44.8316 127.592 40.5865C127.694 39.336 127.847 32.1362 127.848 22.4018V5.56841H126.152H124.863V21.9161C124.86 39.0432 124.364 41.3655 122.966 44.2359C119.366 51.6327 106.798 52.4282 102.161 45.5531C100.032 42.3957 99.9581 42.0671 99.8888 23.1346V14.349V5.56296H98.217H96.9227V22.1613ZM24.1658 22.9598C23.7933 25.3534 22.4719 33.9552 22.4702 34.1871C21.6791 34.1871 21.1699 34.2027 17.0447 34.2027C12.0855 34.2027 13.8747 34.2027 11.5814 34.2027C11.5859 33.8775 11.9172 31.0456 12.2828 28.6313C12.6484 26.2171 13.2548 23.19 13.2592 22.9577C13.7979 22.9577 14.2658 22.9607 18.3886 22.9607C23.4686 22.9607 23.6807 22.9497 24.1658 22.9598Z" fill="black"/>
<circle cx="163.852" cy="24.8048" r="3.34144" fill="#F14942"/>
<path d="M204.547 9.1396C204.547 8.43478 204.671 7.74624 204.921 7.07395C205.17 6.39083 205.534 5.77276 206.011 5.21975C206.499 4.6559 207.09 4.21133 207.783 3.88603C208.477 3.54989 209.264 3.38182 210.142 3.38182C211.183 3.38182 212.083 3.62037 212.842 4.09747C213.601 4.56374 214.165 5.16554 214.533 5.90288L213.102 6.86251C212.885 6.39625 212.609 6.02758 212.273 5.7565C211.947 5.48541 211.589 5.29566 211.199 5.18722C210.82 5.07879 210.446 5.02457 210.077 5.02457C209.47 5.02457 208.938 5.14927 208.483 5.39867C208.027 5.63722 207.643 5.9571 207.328 6.3583C207.024 6.7595 206.791 7.20949 206.629 7.70828C206.477 8.20708 206.401 8.70587 206.401 9.20466C206.401 9.75766 206.493 10.2944 206.677 10.8149C206.862 11.3245 207.117 11.7799 207.442 12.1811C207.778 12.5715 208.174 12.8805 208.629 13.1082C209.085 13.3359 209.583 13.4498 210.126 13.4498C210.494 13.4498 210.879 13.3847 211.28 13.2546C211.682 13.1245 212.05 12.9239 212.386 12.6528C212.733 12.3709 213.005 12.0022 213.2 11.5468L214.712 12.4088C214.474 12.9835 214.1 13.4715 213.59 13.8727C213.091 14.2739 212.527 14.5775 211.899 14.7835C211.28 14.9895 210.668 15.0926 210.061 15.0926C209.247 15.0926 208.505 14.9245 207.832 14.5883C207.16 14.2414 206.58 13.7859 206.092 13.2221C205.604 12.6474 205.224 12.0076 204.953 11.3028C204.682 10.5872 204.547 9.8661 204.547 9.1396Z" fill="black"/>
<path d="M224.318 13.3847V14.995H216.397V3.44688H224.172V5.05711H218.219V8.34262H223.375V9.85525H218.219V13.3847H224.318Z" fill="black"/>
<path d="M234.672 5.05711H230.833V14.995H228.995V5.05711H225.14V3.44688H234.672V5.05711Z" fill="black"/>
<path d="M236.236 14.995V3.44688H238.058V7.70828H240.644C241.49 7.70828 242.2 7.86009 242.775 8.1637C243.35 8.45647 243.789 8.87394 244.092 9.4161C244.396 9.95826 244.548 10.598 244.548 11.3354C244.548 12.0293 244.401 12.6582 244.109 13.2221C243.816 13.7751 243.388 14.2088 242.824 14.5233C242.26 14.8377 241.571 14.995 240.758 14.995H236.236ZM238.058 13.4823H240.498C241.007 13.4823 241.419 13.3847 241.734 13.1896C242.059 12.9944 242.298 12.7341 242.45 12.4088C242.601 12.0727 242.677 11.7149 242.677 11.3354C242.677 10.9667 242.607 10.6197 242.466 10.2944C242.336 9.96911 242.108 9.70887 241.783 9.51369C241.457 9.31851 241.024 9.22092 240.482 9.22092H238.058V13.4823Z" fill="black"/>
<path d="M249.641 9.1396C249.641 8.43478 249.765 7.74624 250.015 7.07395C250.264 6.39083 250.627 5.77276 251.104 5.21975C251.592 4.6559 252.183 4.21133 252.877 3.88603C253.571 3.54989 254.357 3.38182 255.236 3.38182C256.277 3.38182 257.177 3.62037 257.936 4.09747C258.695 4.56374 259.259 5.16554 259.627 5.90288L258.196 6.86251C257.979 6.39625 257.703 6.02758 257.366 5.7565C257.041 5.48541 256.683 5.29566 256.293 5.18722C255.913 5.07879 255.539 5.02457 255.171 5.02457C254.563 5.02457 254.032 5.14927 253.577 5.39867C253.121 5.63722 252.736 5.9571 252.422 6.3583C252.118 6.7595 251.885 7.20949 251.723 7.70828C251.571 8.20708 251.495 8.70587 251.495 9.20466C251.495 9.75766 251.587 10.2944 251.771 10.8149C251.956 11.3245 252.21 11.7799 252.536 12.1811C252.872 12.5715 253.268 12.8805 253.723 13.1082C254.179 13.3359 254.677 13.4498 255.219 13.4498C255.588 13.4498 255.973 13.3847 256.374 13.2546C256.775 13.1245 257.144 12.9239 257.48 12.6528C257.827 12.3709 258.098 12.0022 258.294 11.5468L259.806 12.4088C259.568 12.9835 259.194 13.4715 258.684 13.8727C258.185 14.2739 257.621 14.5775 256.992 14.7835C256.374 14.9895 255.762 15.0926 255.154 15.0926C254.341 15.0926 253.598 14.9245 252.926 14.5883C252.254 14.2414 251.674 13.7859 251.186 13.2221C250.698 12.6474 250.318 12.0076 250.047 11.3028C249.776 10.5872 249.641 9.8661 249.641 9.1396Z" fill="black"/>
<path d="M269.965 5.05711H266.127V14.995H264.289V5.05711H260.434V3.44688H269.965V5.05711Z" fill="black"/>
<path d="M272.685 15.06V13.5311H273.514C273.785 13.5311 273.991 13.4661 274.132 13.3359C274.273 13.2058 274.409 13.0106 274.539 12.7504L274.881 12.0022L270.18 3.44688H272.197L275.71 10.1318L278.687 3.44688H280.622L275.938 13.6124C275.678 14.1438 275.39 14.5179 275.076 14.7347C274.772 14.9516 274.355 15.06 273.823 15.06H272.685Z" fill="black"/>
<path d="M280.994 17.207V13.3847H281.547C281.851 13.3847 282.111 13.2655 282.328 13.0269C282.556 12.7884 282.745 12.4088 282.897 11.8884C283.06 11.3679 283.185 10.6848 283.271 9.83899C283.369 8.98237 283.439 7.93599 283.483 6.69986L283.564 3.44688H290.997V13.3847H292.461V17.207H290.851V14.995H282.604V17.207H280.994ZM283.857 13.3847H289.159V5.05711H285.256L285.207 6.94383C285.174 8.19081 285.109 9.24803 285.012 10.1155C284.914 10.9721 284.773 11.6661 284.589 12.1974C284.404 12.7287 284.16 13.1245 283.857 13.3847Z" fill="black"/>
<path d="M294.404 14.995V3.44688H296.226V12.4251L302.39 3.44688H304.098V14.995H302.276V6.16312L296.177 14.995H294.404Z" fill="black"/>
<path d="M306.857 14.995V3.44688H308.679V12.4251L314.843 3.44688H316.551V14.995H314.729V6.16312L308.63 14.995H306.857ZM311.704 2.66616C311.118 2.66616 310.614 2.57399 310.191 2.38966C309.768 2.19448 309.448 1.93424 309.232 1.60894C309.015 1.2728 308.906 0.904131 308.906 0.50293H310.224C310.224 0.795698 310.332 1.06136 310.549 1.29991C310.777 1.53846 311.162 1.65774 311.704 1.65774C312.235 1.65774 312.615 1.54931 312.842 1.33244C313.07 1.11557 313.184 0.839071 313.184 0.50293H314.501C314.501 0.904131 314.393 1.2728 314.176 1.60894C313.959 1.93424 313.639 2.19448 313.216 2.38966C312.804 2.57399 312.3 2.66616 311.704 2.66616Z" fill="black"/>
<path d="M212.777 34.5129V24.575H208.922L208.857 26.722C208.792 28.2725 208.667 29.5575 208.483 30.5767C208.299 31.5852 208.033 32.3822 207.686 32.9677C207.339 33.5424 206.905 33.9544 206.385 34.2038C205.864 34.4424 205.241 34.5616 204.514 34.5616V32.9677C204.915 32.9677 205.268 32.8755 205.571 32.6912C205.875 32.496 206.13 32.1544 206.336 31.6665C206.553 31.1785 206.721 30.4954 206.84 29.6171C206.97 28.728 207.057 27.5948 207.1 26.2177L207.214 22.9648H214.615V34.5129H212.777Z" fill="black"/>
<path d="M220.558 22.9648H222.282L226.771 34.5129H224.851L223.632 31.3737H219.175L217.971 34.5129H216.036L220.558 22.9648ZM223.274 30.0237L221.42 24.9654L219.5 30.0237H223.274Z" fill="black"/>
<path d="M231.551 34.643C230.673 34.643 229.876 34.4586 229.16 34.09C228.456 33.7213 227.903 33.2117 227.501 32.5611L228.9 31.699C229.16 32.1436 229.513 32.4906 229.957 32.74C230.413 32.9785 230.933 33.0978 231.519 33.0978C232.256 33.0978 232.82 32.9243 233.21 32.5773C233.612 32.2303 233.812 31.7695 233.812 31.1948C233.812 30.8261 233.731 30.5008 233.568 30.2189C233.406 29.9261 233.162 29.7039 232.836 29.5521C232.511 29.3894 232.115 29.3081 231.649 29.3081H230.364V27.893H231.649C232.028 27.893 232.348 27.8226 232.609 27.6816C232.88 27.5298 233.086 27.3292 233.227 27.0798C233.368 26.8196 233.438 26.5268 233.438 26.2015C233.438 25.8653 233.357 25.5726 233.194 25.3232C233.042 25.0629 232.82 24.8623 232.527 24.7214C232.234 24.5696 231.877 24.4937 231.454 24.4937C230.868 24.4937 230.364 24.6129 229.941 24.8515C229.529 25.09 229.204 25.4153 228.965 25.8274L227.632 24.9003C228.033 24.2714 228.548 23.7726 229.177 23.4039C229.816 23.0352 230.603 22.8509 231.535 22.8509C232.283 22.8509 232.928 22.9756 233.471 23.225C234.024 23.4636 234.452 23.816 234.756 24.2822C235.059 24.7376 235.211 25.2906 235.211 25.9412C235.211 26.4834 235.075 26.993 234.804 27.4701C234.544 27.9364 234.137 28.2888 233.584 28.5274C234.246 28.7117 234.756 29.0587 235.113 29.5683C235.482 30.078 235.666 30.6743 235.666 31.3575C235.666 32.0514 235.487 32.6478 235.13 33.1466C234.772 33.6345 234.284 34.0086 233.666 34.2689C233.059 34.5183 232.354 34.643 231.551 34.643Z" fill="black"/>
<path d="M245.539 32.9026V34.5129H237.618V22.9648H245.393V24.575H239.44V27.8605H244.596V29.3731H239.44V32.9026H245.539Z" fill="black"/>
<path d="M247.418 34.5129V22.9648H252.265C252.786 22.9648 253.263 23.0732 253.696 23.2901C254.13 23.5069 254.51 23.7943 254.835 24.1521C255.16 24.5099 255.41 24.9111 255.583 25.3557C255.757 25.8003 255.843 26.2557 255.843 26.722C255.843 27.3617 255.697 27.9744 255.404 28.5599C255.122 29.1346 254.716 29.6008 254.184 29.9587C253.664 30.3165 253.057 30.4954 252.363 30.4954H249.24V34.5129H247.418ZM249.24 28.8852H252.249C252.596 28.8852 252.899 28.793 253.16 28.6087C253.42 28.4135 253.62 28.1533 253.761 27.828C253.913 27.5027 253.989 27.134 253.989 26.722C253.989 26.2991 253.902 25.925 253.729 25.5997C253.555 25.2744 253.328 25.025 253.046 24.8515C252.775 24.6672 252.477 24.575 252.151 24.575H249.24V28.8852Z" fill="black"/>
<path d="M267.034 22.9648V34.5129H265.196V29.4219H259.374V34.5129H257.552V22.9648H259.374V27.7954H265.196V22.9648H267.034Z" fill="black"/>
<path d="M274.438 34.5942C273.603 34.5942 272.849 34.4315 272.177 34.1062C271.504 33.7809 270.924 33.3418 270.436 32.7888C269.948 32.2249 269.569 31.596 269.298 30.902C269.038 30.1972 268.908 29.4762 268.908 28.7388C268.908 27.9689 269.048 27.237 269.33 26.543C269.612 25.8382 270.003 25.2147 270.501 24.6726C271 24.1196 271.586 23.6858 272.258 23.3714C272.941 23.0461 273.679 22.8834 274.47 22.8834C275.294 22.8834 276.042 23.0515 276.715 23.3877C277.398 23.7238 277.978 24.1738 278.455 24.7376C278.943 25.3015 279.317 25.9304 279.577 26.6244C279.848 27.3183 279.984 28.0286 279.984 28.7551C279.984 29.5249 279.843 30.2623 279.561 30.9671C279.29 31.6611 278.905 32.2846 278.406 32.8376C277.907 33.3797 277.316 33.808 276.633 34.1225C275.961 34.437 275.229 34.5942 274.438 34.5942ZM270.762 28.7388C270.762 29.281 270.848 29.8069 271.022 30.3165C271.195 30.8261 271.439 31.2816 271.754 31.6828C272.079 32.0731 272.47 32.3822 272.925 32.6099C273.38 32.8376 273.89 32.9514 274.454 32.9514C275.039 32.9514 275.56 32.8321 276.015 32.5936C276.471 32.355 276.85 32.0352 277.154 31.634C277.468 31.2219 277.707 30.7665 277.869 30.2677C278.032 29.7581 278.113 29.2484 278.113 28.7388C278.113 28.1966 278.027 27.6762 277.853 27.1774C277.691 26.6677 277.447 26.2177 277.121 25.8274C276.796 25.4262 276.406 25.1117 275.95 24.884C275.506 24.6563 275.007 24.5425 274.454 24.5425C273.868 24.5425 273.348 24.6617 272.892 24.9003C272.437 25.1388 272.052 25.4587 271.738 25.8599C271.423 26.2611 271.179 26.7111 271.006 27.2099C270.843 27.7087 270.762 28.2183 270.762 28.7388Z" fill="black"/>
<path d="M281.951 34.5129V22.9648H283.773V31.943L289.937 22.9648H291.645V34.5129H289.823V25.681L283.724 34.5129H281.951ZM286.798 22.1841C286.213 22.1841 285.708 22.0919 285.286 21.9075C284.863 21.7124 284.543 21.4521 284.326 21.1268C284.109 20.7907 284.001 20.422 284.001 20.0208H285.318C285.318 20.3136 285.426 20.5792 285.643 20.8178C285.871 21.0564 286.256 21.1756 286.798 21.1756C287.329 21.1756 287.709 21.0672 287.937 20.8503C288.164 20.6335 288.278 20.357 288.278 20.0208H289.596C289.596 20.422 289.487 20.7907 289.27 21.1268C289.054 21.4521 288.734 21.7124 288.311 21.9075C287.899 22.0919 287.395 22.1841 286.798 22.1841Z" fill="black"/>
<path d="M209.361 54.1283C208.646 54.1283 207.984 54.0199 207.377 53.803C206.78 53.5862 206.249 53.2771 205.783 52.8759C205.327 52.4639 204.948 51.9868 204.644 51.4446L206.173 50.5826C206.39 50.9946 206.661 51.3416 206.987 51.6235C207.312 51.9055 207.675 52.1223 208.076 52.2741C208.488 52.4151 208.917 52.4856 209.361 52.4856C209.925 52.4856 210.44 52.3771 210.906 52.1603C211.373 51.9326 211.774 51.6235 212.11 51.2332C212.446 50.8428 212.695 50.3982 212.858 49.8995C213.032 49.3898 213.113 48.8585 213.102 48.3055L213.883 48.8422H208.336V47.4272H213.834L213.102 47.9151C213.091 47.4272 212.999 46.9555 212.826 46.5001C212.652 46.0338 212.408 45.6218 212.094 45.264C211.779 44.8953 211.394 44.6025 210.939 44.3857C210.483 44.1688 209.958 44.0604 209.361 44.0604C208.938 44.0604 208.526 44.1308 208.125 44.2718C207.735 44.4019 207.382 44.6079 207.068 44.8899C206.753 45.1609 206.493 45.5025 206.287 45.9146L204.807 44.9387C205.252 44.2013 205.843 43.5995 206.58 43.1333C207.317 42.6562 208.244 42.4176 209.361 42.4176C210.261 42.4176 211.058 42.5857 211.752 42.9218C212.457 43.2471 213.048 43.6863 213.525 44.2393C214.013 44.7814 214.382 45.3995 214.631 46.0935C214.88 46.7874 215.005 47.5031 215.005 48.2404C215.005 49.0103 214.87 49.7477 214.598 50.4525C214.338 51.1573 213.959 51.7862 213.46 52.3392C212.961 52.8922 212.365 53.3314 211.671 53.6567C210.988 53.9711 210.218 54.1283 209.361 54.1283Z" fill="black"/>
<path d="M216.906 54.0307V42.4827H226.031V54.0307H224.193V44.0929H218.728V54.0307H216.906Z" fill="black"/>
<path d="M228.725 54.0307V42.4827H230.547V51.4609L236.711 42.4827H238.419V54.0307H236.597V45.1989L230.498 54.0307H228.725Z" fill="black"/>
<path d="M248.595 54.0307V44.0929H244.74L244.675 46.2399C244.61 47.7904 244.485 49.0754 244.301 50.0946C244.116 51.1031 243.851 51.9 243.504 52.4856C243.157 53.0603 242.723 53.4723 242.202 53.7217C241.682 53.9603 241.058 54.0795 240.332 54.0795V52.4856C240.733 52.4856 241.086 52.3934 241.389 52.2091C241.693 52.0139 241.948 51.6723 242.154 51.1844C242.371 50.6964 242.539 50.0133 242.658 49.135C242.788 48.2459 242.875 47.1127 242.918 45.7356L243.032 42.4827H250.432V54.0307H248.595Z" fill="black"/>
<path d="M252.716 54.0307L255.643 49.2977C254.884 49.0808 254.293 48.6742 253.87 48.0778C253.448 47.4814 253.236 46.7766 253.236 45.9634C253.236 45.3019 253.393 44.711 253.708 44.1905C254.033 43.67 254.483 43.258 255.058 42.9543C255.633 42.6399 256.299 42.4827 257.058 42.4827H261.238V54.0307H259.417V49.5254H257.92C257.855 49.5254 257.785 49.5254 257.709 49.5254C257.644 49.5254 257.579 49.5254 257.514 49.5254L254.814 54.0307H252.716ZM257.254 47.9477H259.417V44.0604H257.302C256.89 44.0604 256.516 44.1363 256.18 44.2881C255.844 44.429 255.578 44.6405 255.383 44.9224C255.199 45.2043 255.107 45.5513 255.107 45.9634C255.107 46.3754 255.193 46.7278 255.367 47.0206C255.54 47.3133 255.784 47.541 256.099 47.7037C256.424 47.8663 256.809 47.9477 257.254 47.9477Z" fill="black"/>
<path d="M272.511 56.2265V54.0307H263.842V42.4827H265.664V52.4205H270.82V42.4827H272.657V52.4205H274.121V56.2265H272.511Z" fill="black"/>
<path d="M276.058 54.0307V42.4827H277.88V51.4609L284.044 42.4827H285.752V54.0307H283.931V45.1989L277.831 54.0307H276.058Z" fill="black"/>
<path d="M288.511 54.0307V42.4827H290.333V51.4609L296.497 42.4827H298.205V54.0307H296.383V45.1989L290.284 54.0307H288.511Z" fill="black"/>
</svg>
