<svg width="18" height="18" viewBox="0 0 18 18" fill="none" xmlns="http://www.w3.org/2000/svg">
<path d="M17.25 15.4167L12.5255 10.6922C13.3989 9.36482 13.7487 7.76053 13.5072 6.18999C13.2657 4.61945 12.4501 3.19437 11.2182 2.19068C9.98634 1.18698 8.42587 0.67606 6.83892 0.756838C5.25197 0.837616 3.75144 1.50434 2.62785 2.62794C1.50425 3.75153 0.837524 5.25206 0.756746 6.83901C0.675968 8.42596 1.18689 9.98643 2.19058 11.2183C3.19428 12.4502 4.61936 13.2658 6.1899 13.5073C7.76044 13.7488 9.36473 13.399 10.6922 12.5256L15.4167 17.2501L17.25 15.4167ZM2.58332 7.16675C2.58332 4.6395 4.63941 2.58341 7.16666 2.58341C9.69391 2.58341 11.75 4.6395 11.75 7.16675C11.75 9.694 9.69391 11.7501 7.16666 11.7501C4.63941 11.7501 2.58332 9.694 2.58332 7.16675Z" fill="white"/>
</svg>
