<svg width="23" height="26" viewBox="0 0 23 26" fill="none" xmlns="http://www.w3.org/2000/svg">
<path d="M18.9016 18.3127L11.4135 25.8008L3.92536 18.3127C2.44437 16.8316 1.4358 14.9447 1.0272 12.8905C0.618607 10.8363 0.828327 8.70708 1.62984 6.77206C2.43136 4.83704 3.78868 3.18316 5.53015 2.01955C7.27162 0.855938 9.31904 0.234863 11.4135 0.234863C13.5079 0.234863 15.5553 0.855938 17.2968 2.01955C19.0383 3.18316 20.3956 4.83704 21.1971 6.77206C21.9986 8.70708 22.2084 10.8363 21.7998 12.8905C21.3912 14.9447 20.3826 16.8316 18.9016 18.3127ZM11.4135 15.1288C12.6617 15.1288 13.5107 14.807 14.3933 13.9243C15.276 13.0417 15.695 12.0728 15.695 10.8245C15.695 9.57626 15.276 8.62918 14.3933 7.74653C13.5107 6.86388 12.6617 6.52263 11.4135 6.52263C10.1652 6.52263 9.33134 6.86388 8.44869 7.74653C7.56604 8.62918 7.10822 9.57626 7.10822 10.8245C7.10822 12.0728 7.56604 13.0417 8.44869 13.9243C9.33134 14.807 10.1652 15.1288 11.4135 15.1288Z" fill="#EE0808"/>
</svg>
