<svg width="46" height="46" viewBox="0 0 46 46" fill="none" xmlns="http://www.w3.org/2000/svg">
<rect x="45.28" y="45.0322" width="8" height="45" transform="rotate(179.784 45.28 45.0322)" fill="#E4C4AB"/>
<rect x="45.28" y="45.0322" width="8" height="45" transform="rotate(179.784 45.28 45.0322)" fill="#E4C4AB"/>
<rect x="45.28" y="45.0322" width="8" height="45" transform="rotate(179.784 45.28 45.0322)" fill="#E4C4AB"/>
<rect x="45.28" y="45.0322" width="8" height="45" transform="rotate(179.784 45.28 45.0322)" fill="#E4C4AB"/>
<rect x="45.28" y="45.0322" width="8" height="45" transform="rotate(179.784 45.28 45.0322)" fill="#E4C4AB"/>
<rect x="45.28" y="45.0322" width="8" height="45" transform="rotate(179.784 45.28 45.0322)" fill="#E4C4AB"/>
<rect x="45.2498" y="37.0322" width="8" height="45" transform="rotate(89.7844 45.2498 37.0322)" fill="#E4C4AB"/>
<rect x="45.2498" y="37.0322" width="8" height="45" transform="rotate(89.7844 45.2498 37.0322)" fill="#E4C4AB"/>
<rect x="45.2498" y="37.0322" width="8" height="45" transform="rotate(89.7844 45.2498 37.0322)" fill="#E4C4AB"/>
<rect x="45.2498" y="37.0322" width="8" height="45" transform="rotate(89.7844 45.2498 37.0322)" fill="#E4C4AB"/>
<rect x="45.2498" y="37.0322" width="8" height="45" transform="rotate(89.7844 45.2498 37.0322)" fill="#E4C4AB"/>
<rect x="45.2498" y="37.0322" width="8" height="45" transform="rotate(89.7844 45.2498 37.0322)" fill="#E4C4AB"/>
</svg>
