<svg width="50" height="44" viewBox="0 0 50 44" fill="none" xmlns="http://www.w3.org/2000/svg">
<path fill-rule="evenodd" clip-rule="evenodd" d="M32.442 0.254994C32.3048 0.396811 31.6366 1.46738 30.9569 2.63391C24.8472 13.1197 21.0362 22.6464 19.9041 30.2637C19.6312 32.0997 19.6304 35.5117 19.9026 36.6266C20.1753 37.7439 20.5473 38.5267 21.0957 39.1379C22.3833 40.5727 24.6213 40.7477 25.8283 39.5079C26.4021 38.9186 26.6672 38.2056 26.7524 37.0221C26.8311 35.9299 26.6372 35.209 25.9527 34.0471C25.2852 32.9143 25.1115 32.2961 25.0345 30.7796C24.7168 24.5216 27.6355 14.117 32.5965 3.82371C33.3295 2.30269 33.9293 0.946083 33.9293 0.80908C33.9293 0.671963 33.8059 0.433269 33.6553 0.278496C33.3028 -0.083672 32.7792 -0.0937611 32.442 0.254994ZM34.984 18.5018C33.858 19.0055 33.592 20.5432 34.4742 21.4495C35.1982 22.1931 36.232 22.1931 36.956 21.4495C38.3413 20.0265 36.7828 17.697 34.984 18.5018ZM9.98228 19.419C8.85619 19.9227 8.59022 21.4604 9.47242 22.3666C10.7264 23.6547 12.7814 22.501 12.4514 20.6941C12.254 19.6134 10.9978 18.9646 9.98228 19.419ZM24.2139 21.8226C23.5096 25.1153 23.141 28.5876 23.2508 30.8943C23.3266 32.4866 23.5306 33.3838 24.0186 34.2731C24.8674 35.8194 25.0001 36.1439 24.9994 36.6714C24.9975 38.2779 24.1796 38.9077 22.9131 38.278C22.029 37.8384 21.5848 36.6965 21.4677 34.563C21.2863 31.2558 22.2162 26.5533 24.1207 21.147C24.3113 20.6057 24.4861 20.1819 24.509 20.2054C24.5318 20.2289 24.3991 20.9567 24.2139 21.8226ZM45.4814 22.5713C44.9846 22.7954 44.7001 23.2612 44.7001 23.8505C44.7001 24.3321 44.7521 24.4658 45.065 24.7872C45.3791 25.1098 45.5071 25.1619 45.9837 25.1619C46.4603 25.1619 46.5883 25.1098 46.9024 24.7872C47.2165 24.4646 47.2673 24.3331 47.2673 23.8435C47.2673 23.3605 47.2151 23.2212 46.922 22.92C46.5535 22.5415 45.8988 22.383 45.4814 22.5713ZM16.0151 23.947C15.5183 24.1712 15.2338 24.637 15.2338 25.2263C15.2338 25.7079 15.2858 25.8416 15.5986 26.1629C15.9127 26.4855 16.0407 26.5377 16.5173 26.5377C16.9939 26.5377 17.122 26.4855 17.436 26.1629C17.7501 25.8403 17.8009 25.7088 17.8009 25.2193C17.8009 24.7363 17.7488 24.597 17.4557 24.2958C17.0871 23.9172 16.4324 23.7588 16.0151 23.947ZM29.4089 23.947C28.9121 24.1712 28.6276 24.637 28.6276 25.2263C28.6276 25.7079 28.6796 25.8416 28.9924 26.1629C29.3065 26.4855 29.4345 26.5377 29.9111 26.5377C30.3877 26.5377 30.5157 26.4855 30.8298 26.1629C31.1439 25.8403 31.1947 25.7088 31.1947 25.2193C31.1947 24.7363 31.1426 24.597 30.8495 24.2958C30.4809 23.9172 29.8262 23.7588 29.4089 23.947ZM4.40711 24.8642C3.91031 25.0883 3.6258 25.5542 3.6258 26.1434C3.6258 26.6251 3.67782 26.7587 3.99067 27.0801C4.30476 27.4027 4.43278 27.4549 4.90938 27.4549C5.38597 27.4549 5.51399 27.4027 5.82808 27.0801C6.14216 26.7575 6.19295 26.626 6.19295 26.1364C6.19295 25.6534 6.14082 25.5141 5.84772 25.213C5.47917 24.8344 4.82444 24.676 4.40711 24.8642ZM38.7845 25.3228C38.2877 25.5469 38.0032 26.0127 38.0032 26.602C38.0032 27.0837 38.0552 27.2173 38.3681 27.5387C38.6822 27.8613 38.8102 27.9135 39.2868 27.9135C39.7634 27.9135 39.8914 27.8613 40.2055 27.5387C40.5196 27.2161 40.5704 27.0846 40.5704 26.595C40.5704 26.112 40.5182 25.9727 40.2251 25.6716C39.8566 25.293 39.2019 25.1345 38.7845 25.3228ZM12.7224 28.7682C10.1088 29.2622 8.91613 29.3465 4.55009 29.3465H0.546235L0.272332 29.628C-0.0949929 30.0052 -0.0903054 30.5271 0.283828 30.9114L0.569339 31.2046L5.39021 31.1439C10.3567 31.0813 10.3146 31.0846 13.6395 30.4904C15.2226 30.2074 15.6833 30.2414 16.0751 30.6696C16.3367 30.9557 16.3375 30.9643 16.2046 32.1922C15.8832 35.16 16.224 37.6171 17.2551 39.7684C17.6643 40.622 17.9491 41.0299 18.6235 41.7283C22.4792 45.7205 28.6844 44.2318 30.0917 38.9769C30.2382 38.43 30.2908 37.8198 30.2898 36.6839C30.2886 35.3171 30.2538 35.029 29.9917 34.219C29.8285 33.7146 29.4682 32.9149 29.191 32.442C28.5902 31.4167 28.5394 30.9631 28.9787 30.5448C29.3236 30.2166 29.5992 30.2015 30.8599 30.4422C34.4378 31.1252 34.1051 31.1041 42.0471 31.1514L49.4396 31.1956L49.7207 30.9068C50.0905 30.5271 50.0934 30.0034 49.7278 29.628L49.4539 29.3465H42.8195C35.7234 29.3465 35.0314 29.3092 31.8644 28.7551C29.1372 28.278 28.5264 28.357 27.6326 29.3023C27.0834 29.8833 26.8604 30.547 26.9167 31.4339C26.9563 32.0571 27.0489 32.3102 27.5961 33.2919C28.3896 34.7151 28.6315 35.7012 28.5384 37.1329C28.3428 40.1395 26.7259 41.9479 24.0513 42.1512C22.5008 42.269 21.0478 41.7026 19.9144 40.5385C18.26 38.8389 17.6395 36.0023 18.0125 31.8431C18.1313 30.5181 17.97 29.917 17.3441 29.3526C16.2684 28.3825 15.3665 28.2684 12.7224 28.7682Z" fill="#D3B288"/>
</svg>
