<svg width="50" height="46" viewBox="0 0 50 46" fill="none" xmlns="http://www.w3.org/2000/svg">
<path fill-rule="evenodd" clip-rule="evenodd" d="M28.6309 0.497002C27.7347 0.798712 27.1052 1.07509 26.9845 1.21991C26.5868 1.69732 26.842 2.4553 27.4549 2.61738L27.7757 2.70224L27.3853 3.3581C26.3599 5.08085 25.7947 6.9648 25.7051 8.95983C25.6328 10.5685 25.7525 11.4458 26.2405 12.881L26.5791 13.8767L25.5321 16.0895C24.9562 17.3065 24.3631 18.5877 24.2139 18.9365C24.0648 19.2854 23.9132 19.5717 23.8771 19.5727C23.7671 19.5758 23.5508 19.0265 23.3813 18.3134C22.9382 16.4517 23.4412 14.4324 24.5978 13.4297C25.0804 13.0112 25.1595 12.8856 25.1595 12.5379C25.1595 12.2333 25.0834 12.0682 24.8519 11.8708C24.4544 11.5319 24.2625 11.5405 23.6526 11.9238C22.2289 12.8187 21.3147 15.122 21.4723 17.4171C21.5739 18.8966 21.9408 19.9985 22.7803 21.3448L23.0217 21.732L22.5164 23.115C22.2386 23.8756 21.7986 25.1701 21.5385 25.9916C21.2785 26.8131 21.0257 27.5293 20.9767 27.5832C20.8375 27.7362 20.2204 26.6822 19.9477 25.8256C19.76 25.2359 19.7022 24.7873 19.7054 23.9448C19.7107 22.5476 19.9684 21.8924 20.7761 21.2221C21.2529 20.8264 21.3197 20.7188 21.3197 20.3467C21.3197 20.0202 21.252 19.8697 21.0256 19.6933C20.663 19.4106 20.3603 19.4037 19.9227 19.6683C17.2564 21.2799 17.181 26.2209 19.7799 29.0321L20.4455 29.7521L20.1584 31.3293C19.422 35.3748 19.5184 38.6097 20.4277 40.3765C21.512 42.4832 24.3271 43.1525 25.8315 41.6615C26.4053 41.0928 26.6704 40.4047 26.7557 39.2626C26.8333 38.2237 26.6412 37.5129 25.9974 36.4558C25.2506 35.2296 25.091 34.6595 25.029 32.999C24.9579 31.0913 25.0095 30.8312 25.4929 30.658C26.4397 30.3186 27.5033 29.1428 27.6448 28.2791C27.7323 27.7451 27.4723 27.3525 26.9692 27.2589C26.4546 27.1632 26.145 27.3523 25.9041 27.9095C25.6781 28.4321 25.3381 28.7922 25.3381 28.5088C25.3381 28.226 25.779 25.8112 26.0202 24.7728L26.25 23.7832L27.0711 23.8521C28.5609 23.9769 30.0451 23.5108 30.6463 22.7296C31.7259 21.3266 31.2758 19.2016 29.7432 18.4663C29.3023 18.2548 29.1935 18.2411 28.9017 18.361C28.5135 18.5203 28.3519 18.7692 28.3519 19.2075C28.3519 19.4394 28.4941 19.6482 28.91 20.0272C29.3868 20.4617 29.4681 20.5954 29.4681 20.9454C29.4681 21.6594 28.7423 22.1171 27.6076 22.1186C27.0287 22.1193 26.7892 22.0324 26.7892 21.8216C26.7892 21.7318 27.194 20.4468 27.689 18.966L28.5886 16.2738L29.1121 16.5132C29.8328 16.8429 31.3091 16.8449 32.0354 16.5171C33.6156 15.8039 34.3042 14.2397 33.7166 12.6976C33.2938 11.5878 32.2574 10.8767 31.6908 11.3079C31.1834 11.694 31.1317 12.2915 31.5704 12.6983C32.2726 13.3495 32.3435 13.9807 31.7775 14.5416C31.1968 15.1173 30.1677 15.2007 29.5694 14.7205L29.3077 14.5104L29.7349 13.4744C30.5959 11.3859 31.41 9.61458 32.657 7.11626C33.3588 5.71038 33.9329 4.45099 33.9329 4.31767C33.9329 4.18424 33.8096 3.95301 33.6589 3.80364C33.3064 3.45414 32.7828 3.4444 32.4456 3.78096C32.1471 4.07891 30.1089 7.43313 28.741 9.87735C27.5517 12.0026 27.5143 11.993 27.5157 9.56181C27.5164 8.29168 27.5657 7.72046 27.7257 7.12777C27.9834 6.17296 28.6371 4.65766 29.1097 3.91926C29.4617 3.36928 29.4638 3.36806 29.466 3.71071C29.4693 4.24963 29.8445 4.63841 30.3611 4.63841C30.6929 4.63841 30.8443 4.57181 31.0226 4.34688C31.2341 4.08057 31.254 3.90776 31.254 2.34687V0.638397L30.9278 0.315002C30.7434 0.132228 30.4885 -0.00474228 30.3417 0.000125799C30.1989 0.0047726 29.429 0.228372 28.6309 0.497002ZM24.2401 24.5715C24.056 25.383 23.8242 26.5697 23.7249 27.2086C23.6257 27.8475 23.5189 28.532 23.4875 28.7299C23.4425 29.013 23.3767 29.0894 23.1778 29.0894C23.0388 29.0894 22.8399 29.0273 22.7357 28.9511C22.5605 28.8231 22.579 28.706 22.9852 27.3745C23.2265 26.5835 23.6537 25.2909 23.9346 24.5022C24.2154 23.7134 24.4451 23.0454 24.4451 23.0177C24.4451 22.9901 24.4744 22.9964 24.51 23.0318C24.5457 23.0671 24.4242 23.76 24.2401 24.5715ZM22.6836 30.7859L23.2104 30.9237L23.252 32.8001C23.2894 34.4902 23.3238 34.7646 23.5977 35.5618C23.7649 36.0486 24.1295 36.8101 24.4077 37.254C24.8072 37.8912 24.9258 38.1939 24.9709 38.6923C25.1221 40.362 24.2529 41.116 22.9161 40.4745C22.3558 40.2057 21.9542 39.6096 21.6749 38.632C21.423 37.7506 21.4338 34.443 21.6934 32.9065C21.8988 31.6915 22.1056 30.6356 22.1369 30.6432C22.1478 30.6459 22.394 30.7102 22.6836 30.7859ZM12.6954 31.2979C10.0483 31.7697 8.78473 31.8554 4.48183 31.8554H0.54795L0.274031 32.127C0.101241 32.2982 0 32.525 0 32.7405C0 32.956 0.101241 33.1828 0.274031 33.354L0.54795 33.6256L4.48774 33.6255C8.87001 33.6254 9.93677 33.5542 12.9798 33.0587C15.2495 32.6891 15.6664 32.6982 16.0728 33.127L16.331 33.3995L16.1852 34.8964C15.8535 38.3036 16.404 40.8813 17.9107 42.9739C20.4294 46.4726 25.4598 47.0368 28.356 44.1455C29.7524 42.7515 30.2955 41.2912 30.2933 38.9362C30.2921 37.6172 30.2572 37.3392 29.9952 36.5575C29.832 36.0707 29.4717 35.299 29.1944 34.8426C28.6039 33.8703 28.5468 33.4224 28.9608 33.0121C29.3092 32.6666 29.4471 32.6693 31.8189 33.0669C34.8443 33.5741 35.8507 33.6248 42.8956 33.6253L49.4585 33.6256L49.7324 33.354C50.0651 33.0244 50.0902 32.5356 49.7931 32.1719L49.5799 31.9107L42.1192 31.8478L34.6585 31.7849L32.2586 31.3664C29.1061 30.8166 28.5604 30.8693 27.6359 31.8127C27.0866 32.3734 26.8636 33.0139 26.92 33.8698C26.9596 34.4712 27.0522 34.7154 27.5994 35.6628C28.393 37.0362 28.6348 37.9878 28.5417 39.3695C28.3445 42.2958 26.7238 44.0245 23.9986 44.2156C22.0987 44.3488 20.2344 43.4123 19.1911 41.8008C18.2841 40.3996 17.7889 38.2378 17.9016 36.1703C17.9365 35.5313 17.9985 34.5987 18.0396 34.0976C18.1299 32.9973 17.937 32.375 17.3468 31.8613C16.2729 30.9266 15.3837 30.8189 12.6954 31.2979Z" fill="#D3B288"/>
</svg>
