<svg width="50" height="45" viewBox="0 0 50 45" fill="none" xmlns="http://www.w3.org/2000/svg">
<path fill-rule="evenodd" clip-rule="evenodd" d="M47.3751 1.35799C45.9761 2.67364 43.6669 5.07293 41.7414 7.21121C34.8393 14.8762 30.2526 22.1711 28.8622 27.6951C28.2879 29.9767 28.3397 31.6021 29.0266 32.853C30.0613 34.7377 32.648 35.2184 33.8802 33.7551C34.8699 32.5797 35.1541 30.9027 34.6469 29.2316C34.2004 27.7602 34.3053 26.7338 35.1733 24.0855C37.2014 17.898 42.1727 10.0235 48.724 2.6214C50.1195 1.04484 50.2289 0.789127 49.7253 0.283546C49.2043 -0.239774 48.9506 -0.123817 47.3751 1.35799ZM22.7014 3.72277C22.569 3.85658 21.9241 4.86666 21.2681 5.96727C15.3716 15.8606 11.6935 24.849 10.6009 32.0359C10.3376 33.7681 10.3368 36.9874 10.5995 38.0393C10.8627 39.0935 11.2217 39.8321 11.751 40.4087C12.9936 41.7625 15.1535 41.9275 16.3184 40.7578C16.8722 40.2018 17.1281 39.5291 17.2104 38.4125C17.2863 37.382 17.0992 36.7018 16.4385 35.6055C15.7944 34.5368 15.6266 33.9534 15.5523 32.5227C15.2457 26.6183 18.0626 16.8016 22.8505 7.08985C23.5579 5.65477 24.1368 4.37481 24.1368 4.24555C24.1368 4.11618 24.0178 3.89097 23.8723 3.74495C23.5322 3.40324 23.0268 3.39372 22.7014 3.72277ZM45.2591 13.4801C42.9607 13.8807 42.604 13.9694 42.4314 14.1834C42.1475 14.5355 42.1804 15.0096 42.5121 15.3426C42.806 15.6378 42.91 15.6421 44.3344 15.4183L44.7653 15.3506L44.2721 15.878C41.6387 18.694 40.0516 22.0521 39.694 25.5638C39.625 26.2427 39.6369 26.3012 39.899 26.5643C40.2629 26.9297 40.7521 26.9355 41.1077 26.5783C41.2531 26.4323 41.3721 26.1953 41.3721 26.0516C41.3721 25.4693 41.7267 23.8042 42.071 22.7702C42.7898 20.611 43.8405 18.877 45.4514 17.1918C46.0181 16.599 46.4958 16.1562 46.5131 16.2081C46.5303 16.2601 46.3501 16.8831 46.1127 17.5929C45.8753 18.3026 45.6809 18.9973 45.6809 19.1367C45.6809 19.494 46.1409 19.921 46.5259 19.921C47.126 19.921 47.2492 19.6922 48.2135 16.7865C48.7165 15.2708 49.128 13.9178 49.128 13.78C49.128 13.3977 48.6669 12.996 48.2442 13.01C48.049 13.0164 46.7057 13.228 45.2591 13.4801ZM36.2402 17.2256C35.9156 17.8254 35.3687 18.9328 35.025 19.6864C33.0704 23.9714 32.3802 27.258 32.9554 29.5416C33.2298 30.6313 33.2437 31.1764 33.0142 31.8529C32.6305 32.9835 31.6535 33.2161 30.7846 32.3836C29.1493 30.817 30.9633 24.9247 34.9876 18.7312C35.8798 17.3582 36.7292 16.1351 36.7907 16.1351C36.8125 16.1351 36.5649 16.6259 36.2402 17.2256ZM14.7604 24.0718C14.079 27.1858 13.724 30.4633 13.833 32.6309C13.9266 34.4924 14.1778 35.3162 15.0569 36.6458C15.3405 37.0746 15.4438 37.3621 15.4867 37.8411C15.633 39.4773 14.8157 40.2108 13.5097 39.6153C12.673 39.2338 12.2227 38.1004 12.11 36.0923C11.9349 32.9719 12.8324 28.5352 14.6704 23.4344C14.8544 22.9236 15.0231 22.5238 15.0452 22.546C15.0673 22.5681 14.9392 23.2548 14.7604 24.0718ZM4.53163 30.5198C2.52199 30.9827 1.51243 31.1706 1.03577 31.1706C0.105921 31.1706 -0.329594 32.0319 0.286999 32.6511C0.555547 32.9208 0.602405 32.9294 1.45879 32.8687C1.94935 32.834 2.99898 32.6488 3.79126 32.4571C4.58355 32.2656 5.53354 32.1046 5.90237 32.0994C6.49257 32.0911 6.60751 32.1247 6.86195 32.38L7.15096 32.67L7.00985 34.1386C6.68916 37.4753 7.21958 39.9937 8.67446 42.0409C11.1054 45.4617 15.918 46.0119 18.7423 43.1918C20.1002 41.8359 20.6265 40.41 20.6243 38.0934C20.6232 36.8029 20.5897 36.5324 20.3362 35.7678C20.1785 35.2918 19.8227 34.5206 19.5456 34.0539C18.953 33.0559 18.9095 32.6536 19.353 32.2704C19.6333 32.0284 19.6867 32.0219 20.6791 32.1082C21.8192 32.2074 22.8961 32.2165 24.4834 32.1403C25.5093 32.091 25.5361 32.096 25.8249 32.3849L26.1195 32.6798L25.9899 33.8501C25.6788 36.66 26.0073 38.9721 27.0072 41.0116C27.4187 41.8508 27.6681 42.1946 28.3817 42.906C29.8549 44.375 31.3136 44.9693 33.4008 44.9515C34.7836 44.9396 35.5382 44.7286 36.6979 44.0294C38.5828 42.893 39.7674 40.3545 39.6176 37.7729C39.5439 36.5042 39.2572 35.5402 38.5623 34.2236C37.9619 33.0861 37.9076 32.6926 38.2972 32.3015C38.6287 31.9685 38.8029 31.969 40.7366 32.3075C43.2086 32.7403 44.8489 32.9013 46.7893 32.9013C48.5673 32.9013 48.6038 32.8966 48.8635 32.6357C49.2134 32.2845 49.2134 31.7874 48.8635 31.4361C48.6057 31.1771 48.5583 31.1706 46.936 31.1706C44.9028 31.1706 43.6088 31.0463 41.1567 30.6154C38.5982 30.1658 37.8587 30.2603 37.0012 31.1469C36.4877 31.6779 36.2741 32.3108 36.327 33.1448C36.3636 33.7214 36.4498 33.9669 36.8704 34.6908C37.5507 35.8621 37.8329 36.7523 37.8979 37.9311C38.0657 40.9808 36.09 43.2763 33.2931 43.2813C30.6228 43.2859 28.6255 41.5045 27.8965 38.4676C27.6362 37.3833 27.5662 35.3251 27.731 33.6044C27.8882 31.9634 27.535 31.2631 26.2228 30.6145L25.5265 30.2703L24.0507 30.3989C22.9412 30.4956 22.2302 30.4977 21.1868 30.4072C19.2103 30.236 18.448 30.4804 17.7627 31.5049C17.1283 32.4535 17.1911 33.4353 17.9733 34.7999C18.8121 36.263 18.8927 36.5439 18.9032 38.0393C18.9142 39.604 18.6714 40.5287 18.0036 41.4651C16.4311 43.6702 12.8745 43.8908 10.7695 41.9136C9.73529 40.9421 9.05546 39.4838 8.77313 37.6304C8.60735 36.5427 8.61263 35.6641 8.79887 33.3627C8.88602 32.287 8.69988 31.6785 8.13025 31.1763C7.17983 30.3383 6.14194 30.149 4.53163 30.5198Z" fill="#D3B288"/>
</svg>
