<svg width="50" height="50" viewBox="0 0 50 50" fill="none" xmlns="http://www.w3.org/2000/svg">
<path fill-rule="evenodd" clip-rule="evenodd" d="M7.63581 0.114736C6.62612 0.304365 5.35345 1.01006 4.5209 1.84205C2.07346 4.28746 2.06273 8.17942 4.49665 10.6114C5.77067 11.8844 7.10403 12.4336 8.92112 12.4337C10.2433 12.4338 11.1533 12.1919 12.109 11.5863L12.6462 11.2459L15.0337 13.6315L17.4212 16.0172L16.8278 16.9185C14.8883 19.8642 14.663 23.5635 16.2344 26.6615C16.4018 26.9914 16.497 27.2978 16.4461 27.3425C16.3952 27.3872 15.1013 28.315 13.5708 29.4044L10.7881 31.3851L10.4972 31.1492C9.7806 30.5676 8.85976 30.0259 8.21957 29.809C3.84796 28.3283 -0.601095 32.0512 0.0669284 36.631C0.411055 38.99 2.06262 40.9032 4.45049 41.7091C5.30337 41.9968 7.17411 41.9968 8.02699 41.7091C10.0821 41.0155 11.5391 39.5604 12.233 37.5085C12.3892 37.0464 12.438 36.5901 12.4301 35.6658C12.4201 34.4827 12.358 34.1811 11.8882 33.0284C11.8312 32.8886 12.4611 32.3871 14.6737 30.8102L17.5329 28.7725L18.0609 29.2644C19.6542 30.7485 21.3798 31.6431 23.283 31.9719L24.0654 32.107L24.0949 35.7444L24.1243 39.3816L23.7395 39.4537C22.996 39.5931 21.8327 40.2748 21.1909 40.9472C19.1502 43.0848 19.1443 46.2207 21.1769 48.35C23.277 50.55 26.7538 50.55 28.8539 48.35C30.9468 46.1575 30.8621 42.8177 28.6621 40.7825C27.9822 40.1535 26.9484 39.5775 26.2712 39.4501L25.9065 39.3816L25.9359 35.7369L25.9654 32.0922L26.2448 32.0625C28.2263 31.8521 30.4413 30.7615 31.9207 29.2679L32.6713 28.5101L35.3537 30.2886C36.829 31.2668 38.0542 32.0824 38.0764 32.1013C38.0986 32.1201 38.0093 32.4524 37.8778 32.8397C36.7533 36.1544 38.5642 39.655 42.0038 40.8156C42.8566 41.1034 44.7274 41.1034 45.5803 40.8156C47.6359 40.122 49.0963 38.6629 49.7851 36.6151C50.072 35.762 50.0716 33.8918 49.7841 33.0414C48.8117 30.1645 46.181 28.3678 43.298 28.6117C41.9377 28.7268 40.6485 29.2702 39.7551 30.1052C39.4338 30.4055 39.1489 30.5852 39.0526 30.5482C38.927 30.5 33.9272 27.2093 33.7479 27.0566C33.7252 27.0374 33.8869 26.5766 34.1073 26.0326C35.398 22.8474 34.9766 19.4839 32.9078 16.4573C32.7655 16.2491 32.8914 16.105 34.7591 14.3354C35.8612 13.2912 37.0135 12.2172 37.3197 11.9489L37.8764 11.4607L38.5242 11.8057C40.6683 12.9476 43.0645 12.628 44.8066 10.9677C46.9586 8.91672 47.0208 5.60939 44.9481 3.43815C42.8955 1.28791 39.5856 1.22571 37.4127 3.29677C35.6948 4.93396 35.272 7.44447 36.3545 9.57896L36.6306 10.1235L34.8745 11.7812C33.9087 12.6931 32.7598 13.7815 32.3216 14.2001L31.5248 14.9612L30.787 14.4031C27.5944 11.9885 23.0472 11.8792 19.6162 14.1346L18.7072 14.7322L16.3197 12.3466L13.9321 9.9609L14.2728 9.42418C14.8789 8.46922 15.121 7.55995 15.1209 6.2388C15.1208 4.43331 14.573 3.09675 13.3114 1.82363C11.8589 0.35797 9.73936 -0.280267 7.63581 0.114736ZM10.7573 2.19831C11.7658 2.66992 12.4183 3.31117 12.9184 4.32241C13.3128 5.11979 13.3359 5.22533 13.3359 6.2388C13.3359 7.25227 13.3128 7.35781 12.9184 8.15519C12.4157 9.17168 11.7686 9.80478 10.7295 10.2966C10.0543 10.6162 9.8813 10.6501 8.92112 10.6501C7.96094 10.6501 7.78793 10.6162 7.11275 10.2966C6.07366 9.80478 5.42654 9.17168 4.92382 8.15519C4.52984 7.3587 4.50637 7.25138 4.50637 6.24461C4.50637 5.2786 4.53979 5.10739 4.86011 4.43186C5.30919 3.48461 5.9486 2.7912 6.78259 2.34706C7.66297 1.87824 8.14468 1.77214 9.17248 1.82106C9.8433 1.853 10.2006 1.93798 10.7573 2.19831ZM8.08288 2.76898C6.62847 3.12054 5.54233 4.37915 5.38351 5.89707C5.32036 6.50124 5.33813 6.57752 5.60402 6.8432C6.22589 7.46457 6.98757 7.10832 7.14349 6.12321C7.29951 5.13643 7.81788 4.61847 8.80544 4.46257C9.77948 4.30868 10.1479 3.5457 9.54086 2.93929C9.25418 2.65272 8.78879 2.59845 8.08288 2.76898ZM42.7919 4.01742C43.5477 4.41991 43.889 4.77515 44.3246 5.61262C44.5766 6.0973 44.6215 6.32557 44.6237 7.13222C44.6259 8.00152 44.594 8.14078 44.2463 8.78516C43.8234 9.56891 43.4727 9.9073 42.6304 10.3446C42.1437 10.5974 41.9198 10.641 41.1096 10.641C40.2994 10.641 40.0756 10.5974 39.5888 10.3446C38.7466 9.9073 38.3959 9.56891 37.9729 8.78516C37.6248 8.14 37.5935 8.00264 37.5968 7.13222C37.601 6.01209 37.8662 5.34203 38.5922 4.61713C39.708 3.50315 41.3784 3.26449 42.7919 4.01742ZM40.2155 4.59792C39.667 4.77069 38.7314 5.73871 38.5632 6.30759C38.3515 7.02367 38.3915 7.44168 38.7016 7.75147C39.256 8.3055 40.2155 7.91296 40.2155 7.13222C40.2155 6.67311 40.6502 6.2388 41.1096 6.2388C41.5691 6.2388 42.0038 5.80449 42.0038 5.34538C42.0038 4.59223 41.2432 4.27428 40.2155 4.59792ZM27.4183 14.6594C28.6867 15.063 29.6296 15.6509 30.6599 16.6803C31.6812 17.7008 32.2686 18.6364 32.6936 19.9193C32.9549 20.7082 32.9895 20.9892 32.9895 22.3204C32.9895 23.6516 32.9549 23.9326 32.6936 24.7214C32.2686 26.0044 31.6812 26.9399 30.6599 27.9604C29.6386 28.9809 28.7023 29.5679 27.4183 29.9925C26.6288 30.2536 26.3476 30.2882 25.0154 30.2882C23.6831 30.2882 23.4019 30.2536 22.6124 29.9925C21.3285 29.5679 20.3922 28.9809 19.3709 27.9604C18.3496 26.9399 17.7621 26.0044 17.3372 24.7214C17.0759 23.9326 17.0412 23.6516 17.0412 22.3204C17.0412 20.9892 17.0759 20.7082 17.3372 19.9193C17.7604 18.6416 18.3468 17.7051 19.3709 16.6708C20.5899 15.4399 21.9878 14.69 23.6183 14.3924C24.5993 14.2133 26.418 14.3411 27.4183 14.6594ZM23.7301 16.1963C23.4227 16.254 22.7662 16.4964 22.2711 16.7348C20.212 17.7266 18.7565 20.0041 18.7565 22.2343C18.7565 23.0837 19.6793 23.5303 20.252 22.9581C20.4486 22.7616 20.5246 22.5244 20.5796 21.936C20.7791 19.8016 22.4926 18.085 24.6197 17.8884C25.22 17.8329 25.456 17.7582 25.6536 17.5608C25.9979 17.2167 25.9901 16.6952 25.6351 16.3406C25.332 16.0376 24.7927 15.9967 23.7301 16.1963ZM45.6282 30.7878C46.6367 31.2594 47.2892 31.9006 47.7893 32.9119C48.1837 33.7093 48.2068 33.8148 48.2068 34.8283C48.2068 35.8417 48.1837 35.9473 47.7893 36.7446C47.2866 37.7611 46.6395 38.3942 45.6004 38.8861C44.9252 39.2057 44.7522 39.2395 43.792 39.2395C42.8318 39.2395 42.6588 39.2057 41.9836 38.8861C40.9446 38.3942 40.2974 37.7611 39.7947 36.7446C39.4007 35.9482 39.3773 35.8408 39.3773 34.8341C39.3773 33.8681 39.4107 33.6969 39.731 33.0213C40.1801 32.0741 40.8195 31.3807 41.6535 30.9365C42.5339 30.4677 43.0156 30.3616 44.0434 30.4105C44.7142 30.4425 45.0715 30.5274 45.6282 30.7878ZM8.07494 31.6812C9.0834 32.1528 9.73589 32.7941 10.236 33.8053C10.6305 34.6027 10.6535 34.7082 10.6535 35.7217C10.6535 36.7352 10.6305 36.8407 10.236 37.6381C9.73332 38.6546 9.0862 39.2877 8.04711 39.7795C7.37193 40.0991 7.19892 40.1329 6.23874 40.1329C5.27856 40.1329 5.10555 40.0991 4.43037 39.7795C3.39129 39.2877 2.74416 38.6546 2.24144 37.6381C1.84747 36.8416 1.824 36.7343 1.824 35.7275C1.824 34.7615 1.85741 34.5903 2.17774 33.9147C2.62681 32.9675 3.26622 32.2741 4.10022 31.8299C4.9806 31.3611 5.46231 31.255 6.4901 31.3039C7.16092 31.3359 7.51824 31.4209 8.07494 31.6812ZM42.9538 31.3584C41.4994 31.71 40.4132 32.9686 40.2544 34.4865C40.1913 35.0907 40.209 35.167 40.4749 35.4327C41.0968 36.054 41.8585 35.6978 42.0144 34.7127C42.1704 33.7259 42.6888 33.2079 43.6763 33.052C44.6504 32.8981 45.0188 32.1352 44.4118 31.5287C44.1251 31.2422 43.6597 31.1879 42.9538 31.3584ZM5.4005 32.2519C3.94609 32.6034 2.85995 33.862 2.70113 35.3799C2.63799 35.9841 2.65576 36.0604 2.92165 36.3261C3.54351 36.9475 4.3052 36.5912 4.46111 35.6061C4.61713 34.6193 5.1355 34.1014 6.12306 33.9454C7.0971 33.7916 7.46548 33.0286 6.85848 32.4222C6.5718 32.1356 6.10641 32.0813 5.4005 32.2519ZM26.6977 41.5411C27.4534 41.9436 27.7948 42.2988 28.2303 43.1363C28.4824 43.621 28.5273 43.8492 28.5294 44.6559C28.5316 45.5252 28.4998 45.6644 28.1521 46.3088C27.7292 47.0926 27.3784 47.431 26.5362 47.8683C26.0494 48.121 25.8256 48.1647 25.0154 48.1647C24.2052 48.1647 23.9813 48.121 23.4946 47.8683C22.6523 47.431 22.3016 47.0926 21.8787 46.3088C21.5305 45.6637 21.4992 45.5263 21.5026 44.6559C21.5067 43.5358 21.7719 42.8657 22.498 42.1408C23.6137 41.0268 25.2842 40.7882 26.6977 41.5411ZM24.1213 42.1216C23.5727 42.2944 22.6371 43.2624 22.4689 43.8313C22.2572 44.5473 22.2972 44.9653 22.6074 45.2751C23.1617 45.8292 24.1213 45.4366 24.1213 44.6559C24.1213 44.1968 24.5559 43.7625 25.0154 43.7625C25.2331 43.7625 25.4622 43.6612 25.6351 43.4883C26.2258 42.8982 25.7911 41.964 24.9366 41.987C24.7033 41.9933 24.3364 42.0539 24.1213 42.1216Z" fill="#D3B288"/>
</svg>
