<svg width="50" height="38" viewBox="0 0 50 38" fill="none" xmlns="http://www.w3.org/2000/svg">
<path fill-rule="evenodd" clip-rule="evenodd" d="M24.4649 0.19798C24.206 0.425713 13.8552 19.6856 13.4981 20.604C13.3681 20.9385 13.2493 21.2246 13.2344 21.2398C13.2193 21.2551 12.9729 20.893 12.6868 20.4351C11.9943 19.3271 10.7236 18.1149 9.74794 17.6315L8.98315 17.2525L4.77077 17.218L0.558284 17.1835L0.27824 17.4674C-0.0904271 17.8411 -0.0929939 18.3584 0.272101 18.7283L0.546006 19.0061L4.48559 19.0072L8.42507 19.0083L9.02601 19.2918C9.77048 19.6431 10.8403 20.7341 11.4137 21.7269C12.078 22.8772 12.3923 24.0352 12.5024 25.7374C12.6133 27.4521 12.8052 28.4523 13.2722 29.7492C14.6337 33.5304 17.7882 36.4601 21.6645 37.5433C27.921 39.2917 34.5216 35.8764 36.7278 29.7492C37.1865 28.4754 37.3768 27.4871 37.4995 25.7429C37.5567 24.931 37.6765 23.9984 37.7658 23.6707C38.29 21.7476 39.687 19.8792 41.079 19.239C41.5458 19.0244 41.8063 19.0109 45.5144 19.0086L49.454 19.0061L49.7279 18.7283C50.093 18.3584 50.0904 17.8411 49.7218 17.4674L49.4417 17.1835L45.2292 17.218L41.0169 17.2525L40.2521 17.6315C39.0712 18.2166 37.7768 19.549 36.8814 21.101C36.7812 21.2748 36.7296 21.213 36.5268 20.6757C36.1881 19.7787 25.8058 0.436347 25.535 0.19798C25.4113 0.0890343 25.1705 0 25 0C24.8295 0 24.5886 0.0890343 24.4649 0.19798ZM29.898 11.9268C32.6081 16.9767 34.865 21.315 35.0512 21.832C37.09 27.4944 34.0943 33.7093 28.4043 35.622C25.2402 36.6855 21.8148 36.232 19.1009 34.3903C16.8375 32.8544 15.3032 30.6934 14.6036 28.0566C14.3987 27.2846 14.3476 26.7939 14.3446 25.5677C14.3404 23.924 14.5146 22.8905 15.0127 21.602C15.3201 20.8071 24.8803 2.94141 24.9984 2.94141C25.0412 2.94141 27.246 6.98484 29.898 11.9268ZM22.5952 17.4737C22.3251 17.7474 22.3212 17.7796 22.3212 19.7363V21.7212H20.3629C17.6949 21.7212 17.8566 21.546 17.8566 24.4364C17.8566 27.3268 17.6949 27.1515 20.3629 27.1515H22.3212V29.1364C22.3212 31.8407 22.1483 31.6768 25 31.6768C27.8517 31.6768 27.6788 31.8407 27.6788 29.1364V27.1515H29.6371C32.3051 27.1515 32.1434 27.3268 32.1434 24.4364C32.1434 21.546 32.3051 21.7212 29.6371 21.7212H27.6788V19.7363C27.6788 17.032 27.8517 17.196 25 17.196C22.8864 17.196 22.8669 17.1982 22.5952 17.4737ZM25.8929 20.991C25.8929 23.678 25.7482 23.5313 28.3993 23.5313H30.3576V24.4364V25.3414H28.3993C25.7482 25.3414 25.8929 25.1947 25.8929 27.8818V29.8667H25H24.1071V27.8818C24.1071 25.1947 24.2518 25.3414 21.6007 25.3414H19.6424V24.4364V23.5313H21.6007C24.2518 23.5313 24.1071 23.678 24.1071 20.991V19.0061H25H25.8929V20.991Z" fill="#D3B288"/>
</svg>
