<svg width="33" height="40" viewBox="0 0 33 40" fill="none" xmlns="http://www.w3.org/2000/svg">
<path d="M28.8661 26.7391C31.6102 24.0217 32.9644 20.2536 32.9644 15.5072C32.9644 10.7609 31.5745 6.95652 28.8661 4.27536C26.1577 1.5942 22.2019 0.253623 17.1058 0.253623H4.027V12.8623H2.24514V0H0V40H6.27214V19.2754C12.5799 19.6377 18.068 23.0797 21.311 28.1522C20.0281 28.4058 18.6382 28.5507 17.1058 28.5507H11.4039V30.7971H17.1058C19.0659 30.7971 20.8477 30.5797 22.4514 30.1812C23.7343 32.7899 24.4471 35.7246 24.4471 38.8406V39.9638H30.7192V38.8406C30.7192 34.7464 29.7927 30.8333 28.1177 27.3913C28.4028 27.2101 28.6523 26.9928 28.8661 26.7391ZM17.1058 2.53623C21.5961 2.53623 25.0173 3.69565 27.2981 5.94203C29.5788 8.18841 30.7192 11.413 30.7192 15.5435C30.7192 19.6739 29.5788 22.8986 27.2981 25.1449C27.1911 25.2174 27.1199 25.3261 27.013 25.3986C22.7365 18.1522 15.0745 13.2609 6.27214 12.8623V2.53623H17.1058ZM2.24514 37.7174V15.1087H4.027V37.7174H2.24514ZM6.27214 16.9928V15.1449C14.3261 15.5435 21.311 20.0725 25.2311 26.7029C24.7322 26.9928 24.162 27.2464 23.5918 27.5C19.9568 21.4855 13.5778 17.3551 6.27214 16.9928ZM28.4741 37.7174H26.6566C26.514 34.7826 25.8013 31.9928 24.6253 29.4928C25.1955 29.2754 25.73 28.9855 26.2646 28.6957C27.5475 31.4493 28.3315 34.529 28.4741 37.7174Z" fill="#D3B288"/>
</svg>
