<svg width="12" height="16" viewBox="0 0 12 16" fill="none" xmlns="http://www.w3.org/2000/svg">
<path d="M5.99984 15.5C4.94729 14.6022 3.97167 13.6179 3.08317 12.5575C1.74984 10.965 0.166505 8.59333 0.166505 6.33333C0.165926 5.17913 0.507762 4.0507 1.14875 3.09085C1.78974 2.131 2.70106 1.38288 3.76739 0.94116C4.83373 0.499443 6.00713 0.383987 7.1391 0.609405C8.27107 0.834823 9.31073 1.39098 10.1265 2.2075C10.6696 2.74821 11.1001 3.39128 11.3931 4.09947C11.686 4.80767 11.8356 5.56694 11.8332 6.33333C11.8332 8.59333 10.2498 10.965 8.9165 12.5575C8.02801 13.6179 7.05239 14.6022 5.99984 15.5ZM5.99984 3.83333C5.3368 3.83333 4.70091 4.09672 4.23207 4.56556C3.76323 5.0344 3.49984 5.67029 3.49984 6.33333C3.49984 6.99637 3.76323 7.63226 4.23207 8.1011C4.70091 8.56994 5.3368 8.83333 5.99984 8.83333C6.66288 8.83333 7.29876 8.56994 7.76761 8.1011C8.23645 7.63226 8.49984 6.99637 8.49984 6.33333C8.49984 5.67029 8.23645 5.0344 7.76761 4.56556C7.29876 4.09672 6.66288 3.83333 5.99984 3.83333Z" fill="#D3B288"/>
</svg>
