<svg width="208" height="252" fill="none" xmlns="http://www.w3.org/2000/svg"><path fill-rule="evenodd" clip-rule="evenodd" d="M0 0h207.651v252l-101.932-24.548L0 252V0z" fill="#fff"/><path fill-rule="evenodd" clip-rule="evenodd" d="M79.709 69.042h51.684l.192 18.459v48.161h-52.02l.144-66.764v.144zm-.144 66.188l.144-66.188c-.336 1.75-.336 16.23-.168 18.483h.144v47.633l-.12.072zm-2.997 2.397h81.843V76.09a1.61 1.61 0 00.911-1.463 1.631 1.631 0 10-3.197.446 1.634 1.634 0 001.327 1.16l-5.586.911a1.702 1.702 0 00.695-1.342 1.65 1.65 0 00-.963-1.707 1.654 1.654 0 00-2.321 1.707 1.605 1.605 0 001.175 1.558l-5.898.96a1.68 1.68 0 00.696-1.343 1.658 1.658 0 00-.911-1.486 1.653 1.653 0 10-1.199 3.068l-9.589 1.534V75.85a34.587 34.587 0 00-1.678-13.305 27.994 27.994 0 00-5.658-9.277 37.795 37.795 0 00-3.811-3.668 28.047 28.047 0 00-43.15 13.041 35.478 35.478 0 00-1.583 13.28v4.028l-8.558-1.39a1.63 1.63 0 10-2.086-1.582 1.583 1.583 0 00.695 1.342l-6.305-1.007a1.655 1.655 0 10-2.037-1.582 1.606 1.606 0 00.743 1.367l-6.305-1.007v61.417h22.87l-.12.12zM54.441 72.901a1.63 1.63 0 110 3.261 1.63 1.63 0 010-3.26zm81.028 63.144v-.264h-1.918c.216-17.619 0-35.335 0-52.979l3.164-.431v14.383h2.23V82.107l4.483-.6v37.566h2.157V81.22l4.387-.935v14h2.278V79.757l3.763-.743v57.247h-3.787v-35.839h-2.23v35.647h-4.339V124.61h-2.253v11.363h-4.339v-34.568h-2.254v34.209l-1.246.407-.096.024zM77.551 82.49v38.237c0 4.794.144 10.092 0 15.007h-.959v.287l-1.175-.383v-34.161h-2.253v34.64h-4.339v-11.363h-2.277v11.435h-4.34v-35.743H59.98v35.767h-3.788V79.014l3.764.743v14.504h2.278V80.285l4.41.935V119h2.158V81.436l4.459.599v14.647h2.23V82.3l2.18.287-.119-.096zm36.342-28.36a18.884 18.884 0 014.411 2.853 19.362 19.362 0 016.353 10.093H86.445a19.873 19.873 0 018.246-11.627c.696-.36 1.535-.91 2.134-1.246.6-.336 1.438-.504 2.181-.887l3.644-.96c.743 0 2.23-.167 3.261-.167a27.74 27.74 0 012.876.336c1.768.265 3.483.807 5.083 1.606h.023zm3.237-.407c-.264-.335 0 0-.408-.36l-.479-.215c-.552-.36-.504-.168-.504-.815l1.918-3.26a23.007 23.007 0 017.791 6.352l-3.692 2.038a20.524 20.524 0 00-4.626-3.74zm-1.918-4.243a1.23 1.23 0 00-.288.312l-.551.91c-.384.696-.384 1.032-1.175.96a27.56 27.56 0 00-6.688-1.51v-4.028c2.517-.456 7.192 1.27 9.301 1.966l-.599 1.39zm-14.384 1.295a36.32 36.32 0 01-3.596.863c-.311-.983-1.438-2.398-1.917-3.572a25.123 25.123 0 019.301-2.086v4.195l-3.74.6h-.048zm25.963 6.209a22.82 22.82 0 014.291 10.02h-4.315a22.68 22.68 0 00-1.511-4.363 26.55 26.55 0 00-1.006-1.846 5.299 5.299 0 01-1.007-1.822l3.548-1.965v-.025zm-46.675 10.02c.232-1.912.75-3.779 1.534-5.538l2.23-4.003c.112-.2.268-.372.455-.504l3.548 2.014c-.24.72-1.582 2.59-2.133 3.764a20.28 20.28 0 00-1.439 4.267h-4.195zm5.586-11.603a15.078 15.078 0 013.428-3.524 18.1 18.1 0 014.171-2.733 12.393 12.393 0 012.157 3.692c-.55.432-1.126.6-1.701.983l-4.364 3.668a29.605 29.605 0 01-3.74-2.014l.049-.072z" fill="url(#paint0_linear_125_97)"/><path fill-rule="evenodd" clip-rule="evenodd" d="M28.12 156.709v5.442h1.126v1.294h-6.041v-1.294h1.079v-8.678a7.717 7.717 0 01.67-3.452 6.212 6.212 0 017.31-3.237c.93.271 1.786.755 2.496 1.415a5.704 5.704 0 01.407 7.935 5.005 5.005 0 01-3.692 1.414 7.209 7.209 0 01-2.397-.383 4.59 4.59 0 01-1.007-.456h.048zm19.968 5.442v-8.918l-4.794 6.88v2.038h1.103v1.294h-6.161v-1.294h1.126v-13.76h-1.126v-1.295h6.16v1.295h-1.102v8.965l4.794-6.832v-2.133h-1.15v-1.295h5.945v1.295h-1.127v13.76h1.127v1.294h-6.161v-1.294h1.366zm19.466-11.986v-.264c-.144-.312-.48-1.055-.815-1.223a7.784 7.784 0 00-1.99-.287v13.76h1.127v1.294H59.74v-1.294h1.127v-13.76a7.784 7.784 0 00-1.99.287c-.335.168-.671.911-.815 1.223v.264c0 .239-.336 1.078-.383 1.246-.048.168-.36 1.175-.864 1.175-.503 0-.719-.815-.767-1.247a7.66 7.66 0 00-.215-1.294 4.453 4.453 0 00-.6-1.031 3.478 3.478 0 01-.575-1.295c0-.623.647-.743 1.127-.743h14.408c.455 0 1.054.144 1.054.743-.094.473-.3.917-.6 1.295-.36.355-.688.74-.982 1.151-.09.427-.153.859-.192 1.294 0 .432-.192 1.247-.767 1.247-.576 0-.767-.791-.863-1.175-.096-.384-.336-1.007-.384-1.247l.096-.119zm12.226 13.376h-2.11l-4.794-15.15H71.87v-1.295h5.706v1.295h-1.079l3.644 11.482c0-.863.192-1.75.335-2.565.233-1.614.553-3.215.96-4.794.297-1.32.73-2.606 1.294-3.836.455-1.031 1.222-2.181 2.397-2.181.34.03.667.136.959.311l.6.288c.429.117.873.173 1.318.168h.36l-.216.288c-.245.38-.438.791-.576 1.222a2.64 2.64 0 01-.695 1.127 1.63 1.63 0 01-1.15.383l-1.415-.143a1.197 1.197 0 00-.815.263 3.91 3.91 0 00-.647 1.439c-.384 1.51-.6 3.38-.84 4.794a47.503 47.503 0 00-.695 7.36v2.325c0 .623.12 1.87.192 2.781v.192h-2.253l.311-6.017.216.263zm18.147-1.294v-10.045l-.455.408-1.127.983a33.901 33.901 0 00-1.678 1.534c-.22.245-.429.501-.623.767-.13.189-.242.39-.336.599a3.41 3.41 0 00-.263.791c.266.361.409.798.407 1.247a2.086 2.086 0 01-1.366 2.014v.215a1.438 1.438 0 00.455 1.079 1.9 1.9 0 001.295.408h.191v1.294h-5.585v-1.27h.335a1.899 1.899 0 001.39-.456 1.17 1.17 0 00.48-1.055v-.215a2.108 2.108 0 01-1.054-.696 2.036 2.036 0 01-.48-1.318 2.038 2.038 0 01.911-1.702 12.663 12.663 0 01-.288-2.517 5.54 5.54 0 01.36-2.086 4.793 4.793 0 012.66-2.829 12.06 12.06 0 012.254-.551 6.601 6.601 0 001.439-.408h-1.295v-1.294h7.192v1.294h-1.127v13.713h1.127v1.294h-6.161v-1.294l1.342.096zm15.631 0l-2.685-11.339a26.03 26.03 0 00-2.134 3.835 11.45 11.45 0 00-.719 4.1c0 1.51 0 3.02.12 4.506v.192h-3.98v-.575a6.673 6.673 0 010-.959 11.053 11.053 0 01.624-3.74c.241-.64.538-1.257.887-1.846.462-.829.975-1.629 1.534-2.397l1.222-1.606a9.578 9.578 0 001.894-4.147h-1.63v-1.295h6.449v1.295h-1.079l3.26 13.88h1.151v1.294h-6.161v-1.294l1.247.096zm7.191 0v-13.856h-1.15v-1.295h6.233v1.295h-1.127v5.034a6.982 6.982 0 003.859 1.654h2.853c.379-.035.759.058 1.079.264.246.294.366.672.336 1.054v7.216h-13.137v-1.462l1.054.096zm23.805 0v-6.665h-4.579v6.569h1.127v1.294h-6.161v-1.294h1.127v-13.76h-1.127v-1.295h6.161v1.295h-1.127v5.897h4.579v-5.897h-1.103v-1.295h6.161v1.295h-1.126v13.76h1.126v1.294h-6.161v-1.294l1.103.096zm22.199 0v-13.856h-1.199v-1.295h6.161v1.295h-1.127v13.76h1.127v1.294h-6.161v-1.294l1.199.096zm-14.24 0v-13.856h-1.342v-1.295h6.233v1.295h-1.151v5.034a11.68 11.68 0 002.253 1.39 5.512 5.512 0 001.63.336h2.949a1.15 1.15 0 01.911.311c.214.308.316.681.288 1.055v7.168h-13.113v-1.534l1.342.096zm32.004-20.569h1.534l-.12.264a7.463 7.463 0 01-2.397 2.757 5.586 5.586 0 01-3.261 1.126 2.4 2.4 0 01-2.229-1.078 3.564 3.564 0 01-.408-2.925v-.144h1.319v.192a1.387 1.387 0 00.575 1.055c.416.342.95.506 1.487.455a4.794 4.794 0 001.989-.407 2.406 2.406 0 001.439-1.175v-.12h.072zm-1.607 20.473v-8.918l-4.602 6.88v2.038h1.102v1.294h-6.161v-1.294h1.127v-13.76h-1.127v-1.295h6.161v1.295h-1.102v8.965l4.602-6.904v-2.133h-1.15v-1.295h6.161v1.295h-1.127v13.832h1.127v1.294h-6.161v-1.294h1.15zm-150.476-9.23v-2.397c0-1.366-.311-2.925-1.99-2.925-1.677 0-2.205 1.463-2.205 3.021v2.014c0 1.534.336 3.236 2.182 3.236 1.846 0 2.037-1.63 2.037-3.045l-.024.096zm65.398-3.739a7.775 7.775 0 01-.84.503c-.431.216-.863.408-1.27.647a7.025 7.025 0 00-3.572 3.476 6.592 6.592 0 00-.264 2.062v.455h.408a4.128 4.128 0 01.863-1.51 30.748 30.748 0 011.75-1.774l1.366-1.318a5.035 5.035 0 001.559-2.661v.12zm26.753 12.969h4.243v-5.826a7.197 7.197 0 01-2.038-.335 7.185 7.185 0 01-2.205-.935v7.192-.096zm31.764 0h4.243v-5.826a7.175 7.175 0 01-2.014-.335 7.491 7.491 0 01-2.229-.935v7.096zM44.828 191.949a13.52 13.52 0 01-3.452 6.784 10.812 10.812 0 01-6.976 2.229 10.54 10.54 0 01-8.606-3.452 16.971 16.971 0 01-2.613-9.924 16.543 16.543 0 011.99-8.199c.88-1.597 2.17-2.93 3.74-3.86a10.652 10.652 0 015.61-1.438 9.345 9.345 0 016.064 1.966 8.53 8.53 0 012.757 3.356 9.207 9.207 0 011.007 3.644h1.199v1.87h-7.911v-1.87h1.438v-.456a8.367 8.367 0 00-1.27-4.962 3.958 3.958 0 00-3.5-1.75 9.883 9.883 0 00-2.23.408 4.369 4.369 0 00-1.582 1.054 4.798 4.798 0 00-1.103 2.398 18.859 18.859 0 00-.384 4.195v6.353a21.072 21.072 0 00.6 5.753 4.34 4.34 0 004.578 3.068 4.403 4.403 0 003.476-1.414 7.192 7.192 0 001.463-4.794v-.983h-1.438v-1.87h8.702v1.87l-1.559.024zm5.826-2.038a20.248 20.248 0 01-.456-3.979 8.487 8.487 0 01.528-3.189 7.678 7.678 0 014.075-4.315 17.554 17.554 0 013.476-.863 7.738 7.738 0 002.59-.815h-2.398v-1.822h11.195v1.822h-1.75v21.575h1.75v1.798h-9.35v-1.798h1.75v-15.798l-.886.792-1.726 1.51c-.887.767-1.798 1.558-2.613 2.397l-.983 1.223c-.2.298-.375.61-.528.935-.2.41-.346.845-.431 1.294.428.547.656 1.224.647 1.918a3.116 3.116 0 01-2.11 3.02v.408a2.254 2.254 0 00.72 1.75c.585.479 1.33.719 2.085.671h.192v1.798H48.09v-1.75h.407a3.037 3.037 0 002.23-.743 1.994 1.994 0 00.767-1.726v-.312a3.262 3.262 0 01-1.63-1.078 2.974 2.974 0 01-.72-1.966 2.946 2.946 0 011.415-2.589l.096-.168zm35.79 8.51l-4.242-17.931a38.068 38.068 0 00-3.452 6.185 17.522 17.522 0 00-1.127 6.376c0 2.398 0 4.795.192 6.976v.192h-5.97v-.791a10.351 10.351 0 010-1.486 17.353 17.353 0 01.935-5.754c.368-.982.826-1.929 1.367-2.828a38.265 38.265 0 012.397-3.548c.623-.815 1.247-1.654 1.894-2.398a14.835 14.835 0 002.973-6.592h-2.566V175h9.805v1.822h-1.702l5.394 21.575h1.75v1.798h-9.35v-1.798l1.703.024zm32.604-10.835a15.878 15.878 0 01-2.781 10.068 10.772 10.772 0 01-8.582 3.308c-8.439 0-11.411-5.537-11.411-13.376.005-1.622.23-3.235.67-4.795a15.104 15.104 0 012.014-4.315 9.938 9.938 0 013.596-3.092 10.783 10.783 0 015.107-1.175 10.4 10.4 0 018.486 3.548 15.588 15.588 0 012.901 9.949v-.12zm17.787 10.835v-10.524H129.5v10.524h1.75v1.798h-9.35v-1.798h1.774v-21.575H121.9v-1.822h9.35v1.822h-1.75v9.277h7.287v-9.325h-1.726v-1.822h9.35v1.822h-1.75v21.575h1.75v1.798h-9.35v-1.798l1.774.048zm51.182.6v1.198h-13.521v-1.198h.168a6.038 6.038 0 003.26-.648c.672-.551.743-1.894.743-2.685v-13.52c0-.719 0-2.23-1.078-2.23a8.813 8.813 0 00-2.206.576l-.959.383v-1.294l8.99-3.884h.815v20.185c0 .719 0 2.182.743 2.613.916.358 1.894.53 2.877.504h.168zm-26.37-5.682v-2.205c-.203-2.076.119-4.17.935-6.089a1.983 1.983 0 011.606-.863 1.243 1.243 0 011.247 1.198 1.105 1.105 0 01-.792.983c-.168.039-.33.104-.479.192-1.199.695-1.127 3.764-1.127 4.794v9.158h-1.438l-5.873-11.195v4.363a11.274 11.274 0 01-1.031 5.897 2.4 2.4 0 01-1.894 1.079 1.512 1.512 0 01-1.51-1.415 1.172 1.172 0 011.102-1.174c.336 0 .648.167.935.167h.168c.959-.263.839-5.537.839-6.208v-3.86a2.931 2.931 0 00-.287-1.63 2.12 2.12 0 00-1.726-.815h-.168v-1.103h4.626l4.795 8.87.072-.144zm6.257 1.079a3.98 3.98 0 000-7.959 3.895 3.895 0 00-2.794 1.23 3.876 3.876 0 00-1.042 2.869 3.814 3.814 0 003.908 3.86h-.072zm3.116 1.966v-1.439h-6.305v1.439h6.305zM62.28 178.021a7.885 7.885 0 01-1.462.863c-.647.335-1.342.671-1.966 1.03a11.007 11.007 0 00-5.61 5.442 11.15 11.15 0 00-.407 3.213v.815h.432l.383.167a6.047 6.047 0 011.367-2.397 32.483 32.483 0 012.685-2.757l2.133-2.061a7.508 7.508 0 002.398-4.363l.047.048zm50.343 12.681v-8.175a8.393 8.393 0 00-1.151-4.794 4.526 4.526 0 00-3.716-1.438 4.963 4.963 0 00-3.739 1.294 8.555 8.555 0 00-1.127 5.01v8.319a23.92 23.92 0 00.36 4.794 4.123 4.123 0 004.506 3.261 4.324 4.324 0 003.453-1.367c1.318-1.486 1.414-5.106 1.414-6.976v.072zm55.329 2.613c-1.271 0-1.511-2.229-1.511-3.092s.24-2.398 1.199-2.398c.959 0 1.366 2.398 1.366 3.117 0 .719-.167 2.373-1.054 2.373z" fill="#1D1D1B"/><path fill-rule="evenodd" clip-rule="evenodd" d="M82.202 84.335a2.9 2.9 0 01-1.199-1.414 3.165 3.165 0 010-2.158 3.908 3.908 0 01-2.397-3.428 6.04 6.04 0 01-3.26-3.212 4.05 4.05 0 01-.24-1.438 6.952 6.952 0 01-2.949-3.5 3.572 3.572 0 01-.335-1.606 6.668 6.668 0 01-.791-.648 5.08 5.08 0 01-.576-.48 7.431 7.431 0 01-1.965-3.571 5.944 5.944 0 010-.911 4.795 4.795 0 01-1.103-1.103 3.211 3.211 0 01-.72-1.27l-.263-.192a2.637 2.637 0 01-.72-.743 6.094 6.094 0 01-.862-1.199c-.767-1.462-1.75-4.195-.528-5.61a1.99 1.99 0 011.559-.743 2.541 2.541 0 011.414.504c.288.192.551.455.791.623.837.419 1.702.78 2.59 1.079l2.756 1.03c.431.193.887.288 1.343.456l5.777 1.774 1.366.408 1.007.263.384-.215a3.22 3.22 0 01.887-.312 8.367 8.367 0 011.893-.24 6.664 6.664 0 014.124 1.487c.383.215 1.03.431 1.462.647.56.253 1.07.602 1.51 1.03.243.15.461.337.648.552l.431.407 1.702 1.87c.166.172.318.356.456.552l1.726 1.894c.24.287.455.575.695.839.05-.116.09-.237.12-.36l.767-1.87v-.144c.16-.35.362-.68.599-.983a8.199 8.199 0 014.795-3.332c.493-.13 1-.202 1.51-.215h.599c.232-.013.464-.013.696 0 .925.029 1.84.207 2.708.527a9.181 9.181 0 014.603 3.332 29.192 29.192 0 013.452-3.212 7.2 7.2 0 012.398-1.343h.263c.384-.263.671-.503 1.079-.743a8.321 8.321 0 012.397-.743 5.995 5.995 0 012.757.24c.361.148.713.316 1.055.503.308-.063.612-.143.911-.24l1.942-.599c1.054-.336 2.157-.743 3.236-1.03 2.158-.576 4.243-1.511 6.401-2.158a8.326 8.326 0 002.565-1.175 2.705 2.705 0 013.044-.575c1.894 1.27.48 4.794-.479 6.28-.27.387-.575.748-.911 1.08-.288.287-.576.455-.719.838a5.415 5.415 0 01-1.199 1.654c-.196.172-.38.356-.551.552a8.218 8.218 0 01-2.398 4.794 9.047 9.047 0 01-.887.791 6.417 6.417 0 01-1.798 3.884c-.465.469-.98.887-1.534 1.247a5.006 5.006 0 01-2.637 4.147l-.839.48a3.11 3.11 0 01-.12.934 4.792 4.792 0 01-2.133 2.398v.143a3.811 3.811 0 010 1.726 3.07 3.07 0 01-1.343 1.798 3.738 3.738 0 01-.815 2.661c-.491.57-1.13.992-1.846 1.223a3.167 3.167 0 01-1.917 2.805 2.934 2.934 0 01-.935.335 2.68 2.68 0 00-.168.384c.359.959.719 1.894 1.007 2.877l.431 1.582c0 .48.216.983.336 1.486.579 2.51.455 5.132-.36 7.575l-.935 1.271a4.629 4.629 0 00-.431.527c-.552.576-1.75 1.487-2.014 2.206-.201.84-.305 1.701-.312 2.565 0 1.582-.143 3.14-.143 4.794v7.192a10.72 10.72 0 001.102 3.476c0 .216.144.432.24.624.096.191.36.934.551 1.39a5.94 5.94 0 01.24 4.938c-.3.524-.729.961-1.246 1.271a2.695 2.695 0 01-.6 2.565c-1.366 1.366-4.531 1.007-6.353 1.007a4.79 4.79 0 01-2.181-.312l-.384.264c-.441.276-.943.44-1.462.479l-5.346.168h-5.298a21.377 21.377 0 01-7.192-1.318 9.308 9.308 0 01-4.339-3.261 6.088 6.088 0 01-1.222-3.62 5.825 5.825 0 011.198-3.739l.264-.312a10.643 10.643 0 01.791-4.075c-.24-.36-.431-.743-.695-1.151a9.993 9.993 0 00-.767-1.199 4.148 4.148 0 01-1.678-.479 3.294 3.294 0 01-1.079-.815 2.015 2.015 0 01-.48-1.846 2.71 2.71 0 01.696-1.151l.383-.407a9.609 9.609 0 000-1.151v-14.791a36.815 36.815 0 011.463-7.336l.36-1.03-.576-.672h-.168a3.404 3.404 0 01-2.397-3.212 3.427 3.427 0 01-1.99-1.319 3.236 3.236 0 01-.623-2.013 3.042 3.042 0 01-.072-.504z" fill="#fff"/><path fill-rule="evenodd" clip-rule="evenodd" d="M104.544 137.627l.6-.263c.224-.076.44-.172.647-.288a13.18 13.18 0 003.044-2.397 32.928 32.928 0 012.925-2.398 18.885 18.885 0 014.531-2.733 2.038 2.038 0 011.462.12c1.271.672 1.75 2.254 2.206 3.165.239.431.503.695.767 1.102-1.654 0-1.918-1.462-3.908-1.462a4.943 4.943 0 00-4.003 2.397l-.911 1.295c-1.391 1.678-1.846 1.223-2.973 1.39a37.769 37.769 0 01-4.387 0v.072zm-35.36-78.558a11.3 11.3 0 011.775.527l3.62 1.151c.335 0 .575.192.91.288l.935.264c1.343.383 3.38.886 4.795 1.126 1.414.24.671 1.175 1.246 2.397a35.375 35.375 0 01-4.962-.91c-.36 0-.527-.192-.887-.312a20.715 20.715 0 01-3.356-1.415 15.534 15.534 0 01-2.925-1.87 5.564 5.564 0 01-1.174-1.198l.024-.048zm-2.804-4.794c.07.768.325 1.508.743 2.157.284.65.808 1.165 1.462 1.438l2.158.72 2.133.67a68.735 68.735 0 009.086 2.398c.24-.959 0-1.079.431-1.966-.36 0-.623-.191-1.054-.311a10.55 10.55 0 01-1.031-.312l-4.147-1.247-2.014-.623-1.007-.335-3.476-1.271-.503-.192-.983-.36a16.086 16.086 0 00-1.798-.766zm13.712 21.167a5.778 5.778 0 01-1.63-1.054 2.638 2.638 0 01-.839-1.894c.527 0 1.103.383 1.654.431 1.879.45 3.784.779 5.706.983l2.013.216c.042.327.204.626.456.839.355.307.75.566 1.174.767.408.24 0 0 .48.887.088.149.153.31.192.48a19.653 19.653 0 00-2.398-.168 38.367 38.367 0 01-4.626-.84c-1.08-.263-1.343-.43-2.11-.647h-.072zm-.168-3.356c.294-.005.587.043.863.144l.84.168 5.37.79c0-.383 0-.19-.216-.383a3.26 3.26 0 01-1.343-1.63 1.775 1.775 0 010-.983 21.002 21.002 0 01-3.883-.407 3.283 3.283 0 01-1.007-.144c-1.53-.26-3.032-.67-4.483-1.223a10.484 10.484 0 00-1.606-.695 4.53 4.53 0 002.037 2.925 9.804 9.804 0 003.045 1.294h.455l-.072.144zm2.398-3.068c.815 0 1.366.168 2.181.168-.144-.288-.216-.312-.36-.576a2.807 2.807 0 01-.24-.623 5.712 5.712 0 01-.263-.911 2.902 2.902 0 00-.431-.671c-.336-.504 0-.576-1.678-.624a25.338 25.338 0 01-7.36-1.846 13.385 13.385 0 01-1.558-.743l-1.487-.839a7.024 7.024 0 002.901 3.836c.907.665 1.91 1.19 2.973 1.558 1.138.41 2.309.722 3.5.935l1.822.336zm3.212-2.038A3.14 3.14 0 0184 65.446a3.303 3.303 0 01-.288-.815 20.688 20.688 0 004.027 1.774l1.75.623c0 .406.09.807.264 1.175l-4.171-1.175-.048-.048zm3.332-1.247c-1.103-.407-5.226-1.726-5.538-2.948a7.719 7.719 0 014.603 1.103l.384.215 1.654 1.247-.168.36-.12.215a3.624 3.624 0 01-.815-.192zm2.637-.431a17.15 17.15 0 012.158 2.733c.133.183.254.375.36.575a23.972 23.972 0 012.397 7.192 5.275 5.275 0 002.085-1.439 4.195 4.195 0 00.911-3.931c-.935-1.342-2.23-2.709-3.068-3.836l-.408-.455c-.192-.192-.216-.264-.383-.456a26.041 26.041 0 00-4.795-4.794 4.173 4.173 0 01-.48-.312 4.794 4.794 0 00-1.414-.335c-.863 0-.887 0-.695-.767a4.987 4.987 0 00-4.147-.144 1.414 1.414 0 00-.743 1.726c.24.79.886.767 1.654.815a11.019 11.019 0 016.568 3.356v.072zm1.199-4.555c-.36-.863-2.613-1.51-2.973-1.822a5.513 5.513 0 00-3.5-1.246 7.192 7.192 0 00-1.678.191 2.637 2.637 0 00-.695.264l-.623.312a20.165 20.165 0 01-2.925-.743l-5.85-1.822c-.479-.168-.934-.288-1.39-.48-1.198-.48-4.267-1.534-5.418-2.133-.455-.264-1.582-1.702-2.397-.648-.815 1.055 0 3.26.647 4.435.245.4.526.778.84 1.127l.455.48c.184.124.36.26.527.407.113.454.336.874.648 1.223.254.37.57.695.934.959.576.431.288.767.432 1.51a6.425 6.425 0 001.702 3.068c.192.216.312.216.527.432.334.325.714.6 1.127.815-.082.61.001 1.23.24 1.798a6.4 6.4 0 003.068 3.332 3.164 3.164 0 00.168 1.702 5.347 5.347 0 003.26 2.805c.216 0 .144 0 0 .575-.167 1.534 1.487 2.733 2.661 2.997-1.198 1.798-.167 3.332.935 3.404a3.835 3.835 0 00.336 2.589 2.398 2.398 0 002.133 1.007c0 1.03.312 2.9 1.655 3.116.48 0 .383 0 .67.264l.912 1.055c.216.36.144.335 0 .79-.144.456-.216.624-.336.96-1.87 6.448-1.51 8.51-1.51 15.798v7.359c0 .624-1.75 1.295-.815 2.397.21.231.462.418.743.552 1.99.959 1.27-.528 2.877 2.062a4.48 4.48 0 001.079 1.486 9.109 9.109 0 00-1.007 4.339c0 .599-.168.503-.48.911a4.65 4.65 0 00-.983 3.092 5.178 5.178 0 001.007 3.021 8.59 8.59 0 003.908 2.901 20.82 20.82 0 006.832 1.246h5.298l5.274-.168a2.12 2.12 0 001.055-.335c.294-.144.525-.391.647-.696.839.216.216.6 2.397.6 1.438 0 4.603.287 5.61-.695.623-.624.335-1.774 0-2.398.237-.062.47-.142.695-.239.405-.199.74-.517.959-.911a5.148 5.148 0 00-.312-4.028c-.168-.431-.311-.887-.527-1.342-.216-.456-.144-.384-.264-.671a10.795 10.795 0 01-1.151-3.788 83.737 83.737 0 01.408-14.935c.383-1.007 1.51-1.774 2.205-2.541.216-.24.24-.336.48-.576l.839-1.126c.7-2.213.791-4.573.264-6.832l-.336-1.535-.432-1.534c-.287-1.007-.647-1.966-1.006-2.9-.144-.384-.12-.384 0-.648.119-.264.191-.887.863-1.03.267-.037.526-.118.767-.24.959-.48 1.342-1.127 1.342-2.566a5.278 5.278 0 002.038-1.198c.647-.791.623-1.343.623-2.733a1.82 1.82 0 001.367-1.343 2.994 2.994 0 000-1.222c0-.432-.312-.623-.36-1.007a3.622 3.622 0 002.397-2.157c.216-.696 0-.72 0-1.343a4.37 4.37 0 001.391-.647 4.151 4.151 0 002.205-3.956 5.033 5.033 0 001.75-1.294 5.206 5.206 0 001.558-3.716 8.95 8.95 0 001.175-.959 7.196 7.196 0 002.182-4.219c.119-.839 1.27-1.175 1.798-2.397.263-.624.503-.695.958-1.151 2.398-2.397 2.949-7.671-.263-5.226a9.906 9.906 0 01-2.757 1.343c-2.158.623-4.267 1.582-6.425 2.157-.935.24-6.113 2.014-6.52 1.918a5.54 5.54 0 00-3.5-.767c-2.709.407-2.685 1.294-3.692 1.582a6.185 6.185 0 00-2.086 1.175 24.88 24.88 0 00-3.284 3.068 7.01 7.01 0 01-1.103 1.127 7.388 7.388 0 00-4.291-4.22 6.83 6.83 0 00-2.397-.455 2.395 2.395 0 00-.551 0h-.624a5.415 5.415 0 00-1.27.192 7.187 7.187 0 00-4.243 2.9c-.304.26-.563.568-.768.912l-.143.167-.72 1.75a9.207 9.207 0 00-.575 2.23c-.264-.192-1.726-2.038-2.038-2.397l-1.678-1.894c-.191-.216-.215-.288-.431-.504l-1.606-1.75-.432-.431c-.527-.528-.383-.336-.527-.312l.024.024zm-2.47 29.894a.766.766 0 01-.599-.6c.151.02.305.02.456 0 .287 0 .144 0 .48-.12a1.87 1.87 0 00-.336.84v-.12zm-1.725-1.367c-1.151 0-1.103-1.198-1.103-2.11 0-.335.264-.263.575-.287l.767-.168 4.196-1.438-1.559 2.565c-.383.743-.383.671-1.198.935a4.795 4.795 0 01-1.75.384l.072.12zm-2.398-3.236c-1.941 0-1.366-1.486-1.342-2.397a20.662 20.662 0 004.675-.336c.55 0 3.74-.79 4.267-1.03.959 1.438-.144 1.63-1.463 2.205a17.14 17.14 0 01-6.137 1.534v.024zm5.37 4.363c.36-1.318 3.788-3.524 4.795-4.363a43.446 43.446 0 014.099-2.996 3.644 3.644 0 011.966-.408 16.142 16.142 0 01-2.59 2.014 77.431 77.431 0 00-2.708 1.894c-.887.647-5.082 3.643-5.538 3.763l-.024.096zm-5.034-7.719c-.911 0-3.069.144-3.069-.767a1.582 1.582 0 01.767-1.462l2.398.263c1.87.075 3.74-.152 5.538-.671.46.425.863.909 1.198 1.438a26.272 26.272 0 01-3.212.791 15.44 15.44 0 01-3.596.408h-.024zm7.647 3.404a16.278 16.278 0 014.195-4.507c.911-.599 1.319-1.03 2.398-1.03a4.195 4.195 0 01-1.175 1.797l-1.534 1.463a21.566 21.566 0 01-2.757 1.774 5.15 5.15 0 01-1.031.503h-.096zm-1.702-7.671h.767c-.016.32-.016.64 0 .959a1.798 1.798 0 01-.551-.647l-.144-.312h-.072zm-11.075-1.439c0 .648-.264.816.575 1.559 1.62.919 3.46 1.383 5.322 1.342a27.424 27.424 0 004.243-.503c0-.36 0-.336-.264-.671a3.799 3.799 0 00-.335-.624 36.226 36.226 0 01-7.36-.647l-2.181-.456zm14.719 3.141a12.855 12.855 0 002.66-1.942c.194-.177.363-.379.504-.6a7.528 7.528 0 001.199-2.396c.288.215 0 0 .168.311a4.127 4.127 0 01-2.685 4.315 3.213 3.213 0 01-1.846.216v.096zm2.397-3.836l-1.99 1.51c-1.486 1.103-1.414 2.398-1.414 4.46l-.192-.408a3.644 3.644 0 01.168-3.692 5.275 5.275 0 013.428-1.87zm-8.174 0a12.64 12.64 0 011.941.264c.683.1 1.372.149 2.062.144 0 .216 0 0-.144.216l-.695.551a4.53 4.53 0 01-2.709-.527l-.36-.408v-.24h-.096zm-2.23-2.828c0 .479 0 .599.36.815a15.364 15.364 0 006.712 1.486 8.48 8.48 0 00-.168-1.199h-.935a16.131 16.131 0 01-4.459-.551c-.495-.178-.999-.33-1.51-.456v-.095zm4.938-.863a7.2 7.2 0 001.535.263c.023.23.08.457.168.672a2.23 2.23 0 01-1.703-.935zm-6.52-2.086s0 .264.168.431c.79 1.51 4.147 2.398 5.466 2.398-.816-1.534 0-1.582-2.398-1.99l-3.356-.887.12.048zm5.106-.264c.288 0 .144 0 .36.144l.383.144c.396.18.816.302 1.247.36.623 0 .24 0 .671.958-.839 0-2.493-.79-2.709-1.606h.048zm9.805 8.175c.815-1.199.647-1.894.216-3.452-.432-1.558-1.463-4.795.119-5.921a4.463 4.463 0 00.24 2.589l.36 1.174c.135.4.239.808.311 1.223.221.878.262 1.79.12 2.685-.168.815-.503 1.63-1.366 1.702zM85.078 67.843c.528.12.935.312 1.51.456.576.143 1.919.623 3.045.862.36 0 .528-.167.648 1.343l-2.398-.6a4.962 4.962 0 01-2.733-1.701l-.167-.36h.095zm5.466-.84c0-.574 0-.526.168-.934a13.163 13.163 0 012.541 3.668 5.922 5.922 0 01-1.726-1.007 2.59 2.59 0 01-.983-1.726zm1.606 24.885l.456-.408.168-.168 4.075-3.452.72-.551c.476-.355.972-.683 1.486-.983a30.458 30.458 0 014.794-2.59 7.408 7.408 0 011.606 0c-.12 1.559.743 1.463-.407 2.398-.696.522-1.443.972-2.23 1.343-.743.455-1.366.91-2.085 1.39a36.22 36.22 0 01-4.795 3.068 57.557 57.557 0 00-5.154 2.83c-.33.28-.693.521-1.079.718.057-.363.215-.704.456-.983l1.87-2.229c.143-.192 0 0 .143-.264l-.024-.12zm12.37-10.74c-.192-.24-.599-.408-1.103-.96-.503-.55-.263-.359-.455-.55l-.24-.288c-.192-.288-.144 0-.168-.432.432 0 .887-.815 1.079-1.222a3.866 3.866 0 00.36-1.918l.335.431a3.84 3.84 0 004.052 1.343 2.614 2.614 0 001.103-.384c.383-.263.503-.503.815-.719a10.182 10.182 0 00-.504 1.966c-.041.706.108 1.41.432 2.038l-.456.503c-.175.165-.368.31-.575.431a4.004 4.004 0 01-3.212.336c-.27-.04-.53-.13-.768-.264a2.385 2.385 0 00-.695-.311zm3.788-4.171a3.573 3.573 0 01-3.74-1.678 9.644 9.644 0 01-1.031-1.799c-.383-.767.192-1.917.288-2.397.096-.48 1.175.576 1.199.576a.62.62 0 00.743 0c.479-.336.431-.408.455-.576.024-.168-.503 0-.911 0-.407 0-.479-.215-.791-.311v-.24c.743 0 2.397-.695 2.829.72.432 1.413-.743 2.228-.288 3.187.48.12 1.63.312 1.798-.335-.407-.192-.647 0-1.198-.264 0-.671.839-1.582.239-2.972-.407-.983-1.15-1.103-2.541-1.103.144-.216 1.271-1.031 1.678-1.486l.696-.84a3.95 3.95 0 00.623-1.006c.264 0 .575.79 1.654 1.582.663.454 1.351.87 2.062 1.246.191.168.215.24.215.576 0 .91-.359 0-1.702.287a2.4 2.4 0 00-1.558 1.75c.384 0 .24 0 .504-.24h.239c.695.336.432.504 1.319.192.431-.167.551-.12.575-.551a5.321 5.321 0 01-1.606-.168v-.072a2.396 2.396 0 012.038-.168 13.277 13.277 0 01-1.223 3.716 4.797 4.797 0 01-2.038 2.206c-.239 0-.311 0-.527.216v-.049zm-5.25-6.809c-.205.147-.431.26-.671.336 0-.432.143-.432.335-.671l.528-.624c.455-.335.863-.887 1.342-.934a3.69 3.69 0 01-1.39 1.75l-.144.143zm-1.438-2.589l-.935 1.295a7.616 7.616 0 01.815-3.524c.144-.456.335-.551.455-.96a9.596 9.596 0 011.822-2.133 6.352 6.352 0 012.853-1.15c1.342 0 2.733 3.644.791 5.49a3.695 3.695 0 01-1.702.934 7.477 7.477 0 01-2.397 0l.767-.623c.256-.196.497-.413.719-.647l.312-.288c.415-.375.687-.884.767-1.438a6.689 6.689 0 00-3.213 1.918l-.959 1.054-.095.072zm5.106 59.932c-.393.333-.762.693-1.103 1.079l-3.14 2.828a8.5 8.5 0 01-1.319 1.151 4.94 4.94 0 01-4.986.24c-3.02-2.014-1.582-6.689-1.558-10.38l-.432-3.74a12.863 12.863 0 00-.743 1.654c-1.726 4.315-2.397 7.192-.671 11.507.191.503.527 1.198.647 1.654-.312 0-.743-.647-.935-.935l-.671-1.127c-.24-.383-.6-1.246-1.127-1.294a.621.621 0 00-.623.527c-.695 2.134 1.486 4.795 3.907 5.442a8.264 8.264 0 005.178-.456 14.375 14.375 0 004.675-3.835 31.724 31.724 0 002.877-4.267l.024-.048zm-18.987-9.134c.186-.555.402-1.099.648-1.63l.503-1.726c.241.917.378 1.858.408 2.805 0 .815-.815.671-1.606.671l.047-.12zm30.829-3.404v-2.038c0-2.253.576-4.458-1.438-6.76a6.119 6.119 0 00-4.195-1.942 4.034 4.034 0 00-3.86 1.678 8.788 8.788 0 00-1.438 3.333c-.336 1.486-.36 5.178-.791 7.551a23.254 23.254 0 01-2.805 7.935c-.284.505-.596.993-.935 1.462l-.791 1.007-.264.336c-.983 1.126-1.127 1.342-2.11 1.462a.853.853 0 01-.79-.216c.143-.647 2.588-2.397 3.715-4.794a17.255 17.255 0 00.791-7.456h-.551a6.401 6.401 0 01-5.274-1.126 17.193 17.193 0 01-1.654-1.918 5.435 5.435 0 00-.528-.671 4.795 4.795 0 00.552 2.397s1.51 2.397.647 2.397c-.408 0-1.414-1.846-1.966-2.229 0 .455 0 1.174.168 1.63.168.455 0 1.031.12 1.678.775 2.53.947 5.206.503 7.815a6.233 6.233 0 00.552 4.339 2.738 2.738 0 002.397.911 11.251 11.251 0 004.123-2.397 18.987 18.987 0 004.243-3.956l.959-1.51a16.068 16.068 0 001.415-4.195c.455-2.709 1.63-2.398 1.63-1.535a20.8 20.8 0 01-1.199 4.795 35.428 35.428 0 01-2.109 5.466l-1.055 1.846c-.098.207-.21.407-.336.599l-.383.551-3.045 3.596a23.158 23.158 0 01-3.308 2.397c1.308.152 2.632.063 3.907-.263a9.441 9.441 0 002.086-.815l.479-.288a15.304 15.304 0 003.261-3.212c.216-.288.407-.504.623-.815a23.906 23.906 0 001.702-2.661c.168-.384.312-.576.504-.935 1.318-2.685 2.804-2.398-.192 3.188.442-.165.854-.4 1.222-.695a8.13 8.13 0 013.788-1.846c1.51 0 1.199.24 1.894.432 0-.911-.192-.935-.192-2.733 0-.576-.12-.839 0-1.367.192-2.253 0-7.407 0-9.972l-.072-.456zm-29.894-6.544v-5.85c0-.719 0-.455.216-.647a5.88 5.88 0 001.055 1.942c.205.293.438.566.695.815l2.062 1.798.431.335c1.774 1.631.815 4.004.624 6.042a4.148 4.148 0 01-.792 2.613c-.79 1.246-1.773 3.619-3.404 3.26.6-.911.504-.599.504-1.894 0-.432-.863-4.147-1.055-5.058a15.845 15.845 0 01-.384-3.356h.048zm13.545 6.808a4.637 4.637 0 01-3.788-1.031l-.671-.623a10.095 10.095 0 01-1.678-2.398 9.583 9.583 0 01-.84-2.229c.36 0 1.703-.336 2.398.623.695.959.815 1.055 1.486.911 0-.767-.91-1.031.168-1.031.528 0 2.086 2.086 4.147.576l1.055-.815 1.942-1.726-.288 1.246c-.431 2.23-.239 4.315-1.989 5.658a4.246 4.246 0 01-2.23.863l.288-.024zm7.503-12.706c.887 0 1.846.264 2.038 1.031-2.397 0-4.627 2.637-6.137 3.26-1.51.624 1.031-2.397 1.127-2.565a4.106 4.106 0 012.972-1.726zm-17.98.935h-.167.168zm30.422.168a4.264 4.264 0 01-2.229-1.199 4.793 4.793 0 002.996-.671c0 1.199-.671 1.487-.767 1.87zm-21.575-9.972c.263.191.311.24.335.695.024.455 0 .527 0 .935 0 .863.216 1.39.264 1.87h.168c.335-1.39-.144-3.62.767-3.5.911.12 0 6.448.671 7.934.432 0 .36-.287.432-1.198 0-.408.168-1.007.527-1.103.192.384 0 6.976 0 7.479 0 1.319-.647 2.398-1.966 2.398-.911 0-1.366-1.822-1.366-2.829.1-.969.051-1.947-.144-2.901-.216-.695-.192-.599-.431-.671v3.236c-.672-.167-.336-1.941-.48-3.092a34.816 34.816 0 010-3.548v-1.702c0-1.03 0-3.812 1.295-4.1l-.072.097zm12.418.599c0-.695 1.03-.767 1.654.24.167.287 0 .24.407.263 0-.863 1.343-1.894 1.534 2.398.057 1.126.3 2.236.72 3.284a9.081 9.081 0 001.702 2.397 4.786 4.786 0 002.589 1.414c-1.295 1.942-2.062 0-2.973 0h-.336c-.335 0 .264.312.528.504a3.135 3.135 0 011.175 2.133.865.865 0 01-.863.767c-.336 0-.983-1.126-1.679-1.893a22.944 22.944 0 01-2.397-3.668 15.68 15.68 0 01-1.27-3.572l-.72-4.147-.071-.12zm4.267-.168a7.191 7.191 0 013.979 1.726 4.789 4.789 0 011.726 4.075 1.87 1.87 0 01-.479 1.463 2.778 2.778 0 01-3.836-.384 5.755 5.755 0 01-1.175-2.924l-.119-2.59v-1.366h-.096zm-25.555 9.445a3.62 3.62 0 001.175 0 6.397 6.397 0 003.14-3.308l.72-1.175c.31-.527 0-1.055-.888.312-.085.143-.181.28-.288.407a11.222 11.222 0 01-2.397 2.614 1.877 1.877 0 01-2.037-.312 4.458 4.458 0 01-.36-5.586 11.603 11.603 0 015.585-3.356c.348-.09.7-.162 1.055-.216l1.151-.144c.743 0 1.03.528.336.864l-2.398 1.15c-.48.288-.67.408-.719.743.993-.179 1.966-.46 2.9-.839a20.98 20.98 0 01-.383 4.196 10.66 10.66 0 01-.503 1.821 9.738 9.738 0 01-.791 1.583c-1.175 2.205-1.606 3.404-3.74 2.253a4.781 4.781 0 01-1.39-1.007h-.168zm15.678-8.822a3.3 3.3 0 01-.456 1.319c-.273.37-.648.652-1.078.815-.658.246-1.292.55-1.894.91-.216.169-.264.288-.504.456v-4.554c.887.431 1.079-.432 1.295-1.103l.719-2.014c.408-1.175.647-3.069 1.822-3.692a3.092 3.092 0 010 1.822v1.942a8.971 8.971 0 000 1.966c.06.702.06 1.407 0 2.11l.096.023zm1.199-7.767c.527 0 .575.288.911.983l1.03 2.78a5.518 5.518 0 001.031 2.806c.216.263 0 0 .168.24.068.125.109.264.12.407l.383 2.517a15.1 15.1 0 01.192 1.774 4.5 4.5 0 01-1.198-.503l-2.062-1.343c-.384-.311-.671-.431-.839-.959a9.64 9.64 0 01-.168-1.534c0-1.75.503-4.051.264-6.065a1.841 1.841 0 01.168-1.103zm11.243 0c1.411.41 2.869.636 4.339.671 0 1.39 0 1.702-1.63 1.702a5.614 5.614 0 01-1.127 0c-.575-.143-.527 0-.743-.55l-.839-1.703v-.12zm.168 3.069l-6.257-3.285a3.105 3.105 0 01-.408-.36 3.736 3.736 0 01-.479-.383 6.391 6.391 0 01-.791-.839c.479 0 1.294.48 2.397.72.479 0 .839.167 1.342.263 1.079.24 2.637.647 3.117 1.654.406.713.751 1.459 1.031 2.23h.048zm-11.244-6.137c.672 0 .6.144.983.527l2.398 2.397c4.41 3.812 7.599 2.254 9.589 7.432.084.179.156.363.215.551.047.22.111.437.192.647-.36 0-.527-.431-.791-.67a15.938 15.938 0 00-2.853-1.63l-4.794-4.196a22.866 22.866 0 00-5.13-3.812c0-.503.287-.91 0-1.366l.191.12zm9.709-.767a30.08 30.08 0 003.836.839 15.68 15.68 0 003.068.191c.624 0 .815-.191 1.439-.191 0 .623.719 2.66-2.541 2.66a8.964 8.964 0 01-4.387-.838c-.24 0-.48-.168-.72-.288-.239-.12-.287-.264-.383-.647a6.004 6.004 0 01-.312-1.727zm-7.671 0c.143-.31.377-.57.671-.744.24 0 2.086 1.559 3.285-.24.143-.215.239-.455.575-.359a10.542 10.542 0 012.397 3.836 6.516 6.516 0 00-1.822-.48c-.647-.168-1.294-.287-1.918-.48a25.355 25.355 0 01-1.774-.599 4.266 4.266 0 01-1.462-.934h.048zm7.743-1.942c.55-.16 1.015-.53 1.295-1.031 2.05.567 4.188.746 6.305.527.239 0 2.133-.743 2.133 1.343 0 .527-.527.695-1.007.815a16.97 16.97 0 01-7.431-.48 8.46 8.46 0 00-1.295-.335v-.84zm-3.332-2.086c1.894 0 2.397 2.014 1.63 2.565a2.662 2.662 0 00-2.397-2.205 1.034 1.034 0 01.839-.36h-.072zm2.829-.671h1.27a2.758 2.758 0 01-.863 1.702 3.408 3.408 0 00-.12-.887l-.287-.815zm6.808 1.366a18.345 18.345 0 01-4.603-.599 5.68 5.68 0 01.168-.6c.192-.694.36-.599 1.702-.599a38.715 38.715 0 005.562-.575 12.99 12.99 0 002.397-.623 1.343 1.343 0 01-.551 1.846 5.467 5.467 0 01-1.367.599c-1.093.316-2.219.5-3.356.551h.048zm-8.175-2.133c-.815 0-1.462.144-1.15-.456a.595.595 0 01.623-.407 13.986 13.986 0 003.548-.384l1.654-.287c-.815 1.534-1.199 1.174-3.212 1.366-.484.086-.972.142-1.463.168zm-2.733 0c.196-.654.356-1.319.48-1.99l.216-2.397a2.86 2.86 0 01.575 2.397c-.062.51-.252.997-.551 1.414l-.72.552v.024zm2.805-1.606c0-.528.168-.144.168-1.27a3.59 3.59 0 01.767-.193h1.774a22.488 22.488 0 003.165-.767c.254-.108.519-.189.791-.24 0 .36 0 .48-.144.816a1.486 1.486 0 01-.695.503 35.404 35.404 0 01-5.826 1.246v-.095zm5.298 1.102c0-.263.288-.551.408-.863.407-1.174.719-.287 1.75-1.654.168-.191.192-.168.215-.455a64.958 64.958 0 007.192-1.079l2.182-.623c0 1.894-1.031 2.66-2.853 3.26a33.568 33.568 0 01-8.894 1.414zm-5.49-3.691c.034-.23.09-.454.168-.672a6.021 6.021 0 001.199-.168c0 .983-1.367 1.295-1.367.84zm-3.739 5.226c0 1.198.671 1.486.767 1.87-1.079-.528-1.798-.864-1.798-2.901a30.963 30.963 0 011.942-7.024 6.247 6.247 0 010 3.044c-.192.96-.911 4.34-.911 5.058v-.047zm5.969-5.226c0-.336.168-.384.288-.816.119-.431 0-.215.191-.407a2.84 2.84 0 01.384-.216 6.738 6.738 0 012.565-.839l1.894-.503c.287-.121.584-.217.887-.288 0 1.199-1.391 1.894-2.397 2.23l-1.798.503a10.91 10.91 0 01-2.062.336h.048zm-1.534-1.535c.054-.349.134-.693.239-1.03a8.074 8.074 0 002.661-1.007c-.12 1.246-1.917 1.798-2.9 2.037zm3.835-1.366a4.22 4.22 0 00.24-1.367 33.563 33.563 0 005.202-1.534 3.324 3.324 0 01-2.181 2.014c-1.127.455-2.805.671-3.261.887zm5.011 0v-.36h1.774l1.534-.167 1.39-.24 2.685-.623a20.03 20.03 0 002.397-.888 6.355 6.355 0 011.175-.527c-.431.863.288.815-1.51 2.661s-7.839 2.397-10.596 2.805c-.528 0-.839 0-.384-.408a5.25 5.25 0 00.935-.839c.327-.365.521-.83.552-1.318l.048-.096zm-8.079-.6a10.823 10.823 0 012.709-3.691 2.4 2.4 0 01-.863 2.805 6.847 6.847 0 01-1.846.959v-.072zm-8.966-5.897a7.552 7.552 0 003.548 3.62c.73.25 1.4.65 1.966 1.175 1.246 1.366.743 2.133.647 3.188l-.36-1.342a3.076 3.076 0 00-.695-1.079c-.911-.911-3.212-.935-4.339-2.829a5.08 5.08 0 01-.815-2.78l.048.047zm12.706 4.195c.223-.42.338-.89.335-1.366.623-.144 2.397-.887 3.069-1.127.72-.28 1.425-.6 2.109-.959a2.23 2.23 0 01.695-.383c-.311.671-.359 2.157-2.277 2.709l-3.931 1.127zm.095-2.3c0-.36 0-.288-.191-.6a14.645 14.645 0 016.664-2.733c-.24.959-1.918 1.702-2.757 2.11a20.404 20.404 0 01-3.716 1.222zm4.939 3.307a4.097 4.097 0 00.911-1.63c.311-1.102 0-.503.527-1.342l.264-.432a25.223 25.223 0 007.983-1.726c1.222-.503 1.534-.695 2.661-1.246.405-.264.83-.496 1.27-.696a5.992 5.992 0 01-1.846 3.26 11.815 11.815 0 01-4.075 2.398 6.42 6.42 0 01-.959.312c-2.002.566-4.06.911-6.137 1.03-.199.018-.4.018-.599 0v.072zm-13.305-4.794a7.493 7.493 0 00-1.774-1.031c-.312-.12-1.007-.288-.551.288l1.63 1.198a7.637 7.637 0 011.558 2.781l-1.99-1.15a5.57 5.57 0 01-1.726-1.535c-.815-1.198-.599-2.11-1.678-3.164-.192-.192-.743-.647-.839-.791 1.169.073 2.3.444 3.284 1.079.296.174.569.383.815.623.52.46.936 1.023 1.223 1.654l.048.048zm15.438.431c.528-1.126-.215-1.462.839-1.462 3.141 0 8.415-2.397 11.435-3.548a6.4 6.4 0 01.839-.36 14.88 14.88 0 01-5.585 3.62 23.262 23.262 0 01-5.418 1.487c-.693.154-1.4.242-2.11.263zm-3.835-5.825a3.523 3.523 0 012.397.48c.839.455 1.151 2.037.168 2.397l-3.86 1.174-.407.192-1.247.695a13.55 13.55 0 00-4.531 4.267 9.379 9.379 0 00-.839 1.703c-.355-.48-.675-.985-.959-1.51a6.108 6.108 0 01-.695-1.847c0-.623 3.26-3.883 3.692-4.315l.359-.311a7.029 7.029 0 012.254-1.51 5.16 5.16 0 011.055-.216c.839 0 .407 0 .935-.336 0-.503-.264-.48.455-.743a3.53 3.53 0 011.175-.192l.048.072zm4.938 3.476h-.431c0-1.462-.24-.887-.264-1.702a1.748 1.748 0 00-.24-1.175c.671-.167 1.367-.407 2.038-.599l5.13-1.606c.36-.144.671-.192 1.031-.312a75.53 75.53 0 007.815-2.948 5.15 5.15 0 01-2.397 4.05l-.552.217-.983.455c-.719.336-1.366.552-2.109.887a36.49 36.49 0 01-9.038 2.661v.072z" fill="#1D1D1B"/><defs><linearGradient id="paint0_linear_125_97" x1="103.825" y1="29.079" x2="107.972" y2="147.816" gradientUnits="userSpaceOnUse"><stop stop-color="#B58E4A"/><stop offset="1" stop-color="#fff"/></linearGradient></defs></svg>