<svg width="46" height="46" viewBox="0 0 46 46" fill="none" xmlns="http://www.w3.org/2000/svg">
<rect x="0.524414" y="0.267578" width="8" height="45" fill="#E4C4AB"/>
<rect x="0.524414" y="0.267578" width="8" height="45" fill="#E4C4AB"/>
<rect x="0.524414" y="0.267578" width="8" height="45" fill="#E4C4AB"/>
<rect x="0.524414" y="0.267578" width="8" height="45" fill="#E4C4AB"/>
<rect x="0.524414" y="0.267578" width="8" height="45" fill="#E4C4AB"/>
<rect x="0.524414" y="0.267578" width="8" height="45" fill="#E4C4AB"/>
<rect x="0.524414" y="8.26758" width="8" height="45" transform="rotate(-90 0.524414 8.26758)" fill="#E4C4AB"/>
<rect x="0.524414" y="8.26758" width="8" height="45" transform="rotate(-90 0.524414 8.26758)" fill="#E4C4AB"/>
<rect x="0.524414" y="8.26758" width="8" height="45" transform="rotate(-90 0.524414 8.26758)" fill="#E4C4AB"/>
<rect x="0.524414" y="8.26758" width="8" height="45" transform="rotate(-90 0.524414 8.26758)" fill="#E4C4AB"/>
<rect x="0.524414" y="8.26758" width="8" height="45" transform="rotate(-90 0.524414 8.26758)" fill="#E4C4AB"/>
<rect x="0.524414" y="8.26758" width="8" height="45" transform="rotate(-90 0.524414 8.26758)" fill="#E4C4AB"/>
</svg>
