<svg width="20" height="16" viewBox="0 0 20 16" fill="none" xmlns="http://www.w3.org/2000/svg">
<path d="M1.20194 2.58682H18.7987C19.4661 2.58682 20 2.01198 20 1.29341C20 0.574852 19.4661 0 18.7987 0H1.20194C0.53455 0 0.000645146 0.574852 0.000645146 1.29341C-0.0216022 2.01198 0.53455 2.58682 1.20194 2.58682Z" fill="#283252"/>
<path d="M10.2784 9.34171H18.7987C19.4661 9.34171 20 8.76686 20 8.04829C20 7.32973 19.4661 6.75488 18.7987 6.75488H10.2784C9.61103 6.75488 9.07712 7.32973 9.07712 8.04829C9.05487 8.7429 9.58878 9.34171 10.2784 9.34171Z" fill="#283252"/>
<path d="M18.7987 15.9999H5.82917C5.16178 15.9999 4.62787 15.4251 4.65012 14.7065C4.65012 13.9879 5.18403 13.4131 5.85141 13.4131H18.7987C19.4661 13.4131 20 13.9879 20 14.7065C20 15.4251 19.4661 15.9999 18.7987 15.9999Z" fill="#283252"/>
</svg>
