<svg width="12" height="12" viewBox="0 0 12 12" fill="none" xmlns="http://www.w3.org/2000/svg">
<path d="M1.15631 1.15204C0.755187 1.54699 0.755187 2.18732 1.15631 2.58227L4.6262 5.99869L1.15631 9.41512C0.755188 9.81006 0.755187 10.4504 1.15631 10.8453C1.55744 11.2403 2.20779 11.2403 2.60892 10.8453L6.0788 7.42892L9.38773 10.6869C9.78886 11.0818 10.4392 11.0818 10.8403 10.6869C11.2415 10.2919 11.2415 9.65159 10.8403 9.25665L7.5314 5.99869L10.8403 2.74074C11.2415 2.34579 11.2415 1.70546 10.8403 1.31051C10.4392 0.915569 9.78886 0.91557 9.38773 1.31051L6.0788 4.56847L2.60892 1.15204C2.20779 0.757099 1.55744 0.757099 1.15631 1.15204Z" fill="#1B1B29"/>
</svg>
