<svg width="120" height="120" viewBox="0 0 120 120" fill="none" xmlns="http://www.w3.org/2000/svg">
<circle cx="60" cy="60" r="60" fill="white"/>
<circle cx="60" cy="60" r="59" stroke="#2E60FF" stroke-opacity="0.2" stroke-width="2"/>
<path d="M54.5925 54.3127C57.0095 52.3224 60.1375 51.1849 63.2654 51.1849C66.6778 51.1849 69.9479 52.4645 72.5071 54.5973C75.0664 56.8722 76.7726 59.8579 77.199 63.2703C76.4882 61.5641 75.4929 59.8579 74.071 58.5784C72.6492 57.1564 71.0853 56.161 69.2369 55.5923C67.3886 55.0236 65.3981 54.7394 63.5498 55.0236C61.5593 55.3081 59.7108 56.0189 58.1469 57.0143C56.583 58.0096 55.1612 59.4313 54.1658 60.9954C53.1707 62.7015 52.4597 64.5498 52.3176 66.3981C52.1753 68.3888 52.4597 70.2371 53.0284 72.0853C53.5971 73.9336 54.5925 75.4977 56.0143 76.9193C56.212 77.1171 56.3792 77.2844 56.5444 77.4353C56.7352 77.6096 56.923 77.7623 57.1517 77.9147C54.3081 76.493 52.0332 74.2181 50.6114 71.3745C49.3317 68.5309 48.9052 65.2606 49.616 62.1328C50.327 59.0046 52.1753 56.3035 54.5925 54.3127Z" fill="#2E60FF"/>
<path d="M50.6114 48.91C53.7394 46.493 57.5782 45.2131 61.417 45.2131C65.5403 45.2131 69.5212 46.7772 72.7915 49.4788C75.9195 52.1799 78.0521 55.8768 78.6208 60C77.7678 57.7251 76.4882 55.5923 74.782 53.8861C73.0759 52.1799 70.9431 50.9004 68.6682 50.0475C66.3934 49.1942 63.9763 48.91 61.5593 49.1942C59.1421 49.4788 56.8674 50.3317 54.7346 51.6112C52.6019 52.8911 50.8958 54.7394 49.616 56.7297C48.3365 58.8625 47.4834 61.1375 47.199 63.5544C46.9147 65.9714 47.199 68.3888 48.0521 70.6633C48.9052 72.9382 50.1848 75.071 51.8909 76.7772C52.1753 76.9907 52.4597 77.2394 52.744 77.488C53.0284 77.7371 53.3127 77.9861 53.5971 78.1992C50.0427 76.3506 47.3413 73.507 45.6351 69.9525C43.929 66.3981 43.6446 62.417 44.4977 58.5784C45.3508 54.7394 47.4834 51.327 50.6114 48.91Z" fill="#2E60FF"/>
<path d="M48.0521 42.7961C51.4645 40.5212 55.4456 39.2417 59.5687 39.2417C64.4029 39.2417 69.0948 40.9479 72.9336 44.0757C76.7726 47.2039 79.1896 51.6112 80.0427 56.4456C79.0473 53.6019 77.3413 50.9004 75.2085 48.7679C72.9336 46.6351 70.3743 45.071 67.3886 44.0757C64.545 43.0807 61.417 42.9382 58.4313 43.507C55.4456 43.9336 52.6019 45.071 50.0427 46.9193C47.4834 48.7679 45.4929 51.1849 44.071 53.8861C42.6492 56.5876 41.9384 59.5734 41.9384 62.7015C41.9384 65.6873 42.6492 68.8151 44.071 71.5166C45.3508 74.2181 47.4834 76.6351 49.9004 78.4834C48.0521 77.488 46.3459 76.2085 44.9241 74.7869C42.0805 71.8008 40.09 68.1042 39.2369 64.1232C38.384 60.1421 38.8104 56.0189 40.3743 52.1799C41.9384 48.3413 44.6398 45.071 48.0521 42.7961Z" fill="#2E60FF"/>
<path fill-rule="evenodd" clip-rule="evenodd" d="M81.8909 81.1849C76.3459 86.8722 68.6682 90 60.7062 90H34.2606C32.8388 90 31.5593 89.4313 30.5639 88.4359C29.5687 87.4409 29 86.161 29 84.7394V35.2606C29 33.839 29.5687 32.5591 30.5639 31.5641C31.5593 30.5687 32.8388 30 34.2606 30H60.7062C68.6682 30 76.2039 33.2703 81.8909 38.8151C87.5782 44.3602 90.7062 52.0378 90.7062 60C90.7062 67.9622 87.5782 75.4977 81.8909 81.1849ZM57.2938 37.2513C52.0332 37.6776 47.0569 40.0946 43.3602 43.7915C41.2274 45.9243 39.5212 48.4834 38.384 51.0425C37.2465 53.8861 36.6778 56.8722 36.6778 59.8579C36.6778 65.1185 38.5261 70.2371 41.9384 74.3602C45.3508 78.4834 49.9004 81.327 55.1612 82.3224C60.2795 83.3174 65.6824 82.6066 70.3743 80.0475C75.0664 77.6305 78.7629 73.507 80.7535 68.673C82.744 63.839 83.0284 58.4359 81.4645 53.3174C79.9004 48.3413 76.6303 43.9336 72.2228 40.9479C67.8152 38.1042 62.5544 36.6826 57.2938 37.2513Z" fill="#2E60FF"/>
</svg>
