<svg width="120" height="120" viewBox="0 0 120 120" fill="none" xmlns="http://www.w3.org/2000/svg">
<circle cx="60" cy="60" r="60" fill="white"/>
<circle cx="60" cy="60" r="59" stroke="#2E60FF" stroke-opacity="0.2" stroke-width="2"/>
<path fill-rule="evenodd" clip-rule="evenodd" d="M73.6818 59.6193C73.3299 59.9712 72.8534 60.1687 72.356 60.1687C71.8586 60.1687 71.3818 59.9711 71.0305 59.6193C70.6786 59.2679 70.4811 58.7909 70.4811 58.2935V47.3687H61.9938C60.8332 47.3687 59.7207 46.9079 58.9002 46.0874C58.0798 45.2669 57.6189 44.154 57.6189 42.9938V33.7501H43.1246C41.9645 33.7501 40.8514 34.2108 40.031 35.0314C39.2106 35.8519 38.7498 36.9645 38.7498 38.125V71.9116C38.7498 73.0722 39.2105 74.1848 40.031 75.0052C40.8515 75.8257 41.9645 76.2869 43.1246 76.2869H53.606C54.2757 76.2869 54.8947 76.644 55.2296 77.2242C55.5648 77.8045 55.5648 78.5191 55.2296 79.0993C54.8947 79.6792 54.2757 80.0367 53.606 80.0367H43.1246C40.9701 80.0367 38.9031 79.1809 37.3794 77.6572C35.8558 76.1336 35 74.0667 35 71.9117V38.1251C35 35.9701 35.8558 33.9036 37.3794 32.3799C38.9032 30.8563 40.9701 30 43.1246 30H59.6055C60.1073 29.9974 60.589 30.1953 60.943 30.5502L73.6996 43.5937C74.0414 43.9451 74.2324 44.4159 74.2311 44.9064V58.2936C74.2311 58.791 74.0336 59.268 73.6818 59.6193ZM61.3685 36.3621V42.9935C61.3685 43.3384 61.6484 43.6183 61.9937 43.6183H68.4747L61.3685 36.3621Z" fill="#2E60FF"/>
<path d="M64.5689 55.3999C64.9208 55.7513 65.1182 56.2282 65.1182 56.7257C65.1182 57.2231 64.9207 57.7 64.5689 58.0514C64.2175 58.4033 63.7406 58.6007 63.2432 58.6007H45.1183C44.4482 58.6007 43.8291 58.2433 43.4943 57.663C43.1595 57.0832 43.1595 56.3682 43.4943 55.7883C43.8291 55.2081 44.4482 54.8506 45.1183 54.8506H63.2432C63.7406 54.8506 64.2175 55.0481 64.5689 55.3999Z" fill="#2E60FF"/>
<path d="M45.1183 62.9756C44.4482 62.9756 43.8291 63.3331 43.4943 63.9129C43.1595 64.4932 43.1595 65.2078 43.4943 65.788C43.8291 66.3682 44.4482 66.7258 45.1183 66.7258H51.993C52.6631 66.7258 53.2822 66.3683 53.617 65.788C53.9518 65.2077 53.9518 64.4931 53.617 63.9129C53.2822 63.3331 52.6631 62.9756 51.993 62.9756H45.1183Z" fill="#2E60FF"/>
<path fill-rule="evenodd" clip-rule="evenodd" d="M58.4688 67.5126C58.4688 62.4315 70.487 62.2815 71.8559 62.2815C73.2432 62.2815 85.2369 62.4312 85.2308 67.4997V84.919C84.9809 89.8502 73.1617 90.0001 71.8559 90.0001C70.5501 90.0001 59.6376 89.875 58.5625 85.494C58.5036 85.3144 58.4718 85.1265 58.4688 84.9377V67.5126ZM71.8559 80.5062C77.3059 80.5062 80.7435 79.3753 81.4872 78.7502L81.4934 77.1127C77.8434 78.438 72.7437 78.5004 71.8559 78.5004C70.9682 78.5004 65.8684 78.4441 62.2185 77.1127V78.7502C62.9937 79.3753 66.406 80.5062 71.8559 80.5062ZM71.8559 74.7502C77.3059 74.7502 80.7435 73.6315 81.4872 72.9942L81.4934 71.3567C77.8434 72.6821 72.7437 72.7444 71.8559 72.7444C70.9682 72.7444 65.8684 72.6881 62.2185 71.3567V72.9688C62.9937 73.6316 66.406 74.7502 71.8559 74.7502ZM81.0186 67.5127C79.7246 66.8628 76.5434 66.0314 71.8559 66.0314C67.1623 66.0314 63.9811 66.8753 62.6933 67.5C63.9811 68.1688 67.1685 68.9941 71.8559 68.9941C76.5434 68.9941 79.7246 68.1379 81.0186 67.5127ZM62.2185 82.8684V84.481C62.9937 85.1437 66.406 86.2498 71.8559 86.2498C77.3059 86.2498 80.7435 85.1437 81.4934 84.481V82.8684C77.8434 84.1938 72.7437 84.2562 71.8559 84.2562C70.9682 84.2562 65.8684 84.1999 62.2185 82.8684Z" fill="#2E60FF"/>
</svg>
