<svg width="120" height="120" viewBox="0 0 120 120" fill="none" xmlns="http://www.w3.org/2000/svg">
<circle cx="60" cy="60" r="60" fill="white"/>
<circle cx="60" cy="60" r="59" stroke="#2E60FF" stroke-opacity="0.2" stroke-width="2"/>
<path d="M37.6992 53.9431C39.133 52.5092 41.2415 51.9191 43.2239 52.467L56.4657 39.2252C55.9178 37.2434 56.508 35.1343 57.9418 33.7004L59.9658 31.6764C62.201 29.4412 65.8278 29.4412 68.0624 31.6764L82.2323 45.8463C84.4675 48.0815 84.4675 51.7083 82.2323 53.9429L80.2083 55.967C78.7745 57.4008 76.666 57.991 74.6836 57.443L70.087 62.0396L85.4375 77.39C85.9854 77.938 85.9854 78.8661 85.4375 79.414L83.4135 81.438C82.8655 81.986 81.9374 81.986 81.3895 81.438L66.039 66.0876L61.4425 70.6841C61.9488 72.5819 61.4425 74.5637 60.1776 75.9976L57.9429 78.2323C55.7077 80.4675 52.0809 80.4675 49.8463 78.2323L35.6764 64.0624C33.4412 61.8271 33.4412 58.2004 35.6764 55.9657L37.6992 53.9431ZM36.0964 84.2647H67.5557C68.3571 84.2647 68.9896 84.8972 68.9896 85.6986V88.5662C68.9896 89.3676 68.3571 90 67.5557 90H36.0964C35.295 90 34.6626 89.3676 34.6626 88.5662V85.6986C34.6626 84.9394 35.2956 84.2647 36.0964 84.2647ZM64.014 35.7249L61.99 37.7489L76.1598 51.9188L78.1839 49.8947L64.014 35.7249ZM41.7475 57.9914L39.7235 60.0154L53.8933 74.1853L55.9174 72.1613L41.7475 57.9914ZM59.9657 43.8221L47.8204 55.9674L57.9417 66.0886L70.0869 53.9428L59.9657 43.8221Z" fill="#2E60FF"/>
</svg>
