<svg width="120" height="120" viewBox="0 0 120 120" fill="none" xmlns="http://www.w3.org/2000/svg">
<circle cx="60" cy="60" r="60" fill="white"/>
<circle cx="60" cy="60" r="59" stroke="#2E60FF" stroke-opacity="0.2" stroke-width="2"/>
<path fill-rule="evenodd" clip-rule="evenodd" d="M55.4165 31.4552L55.4156 31.4561C55.3341 31.538 55.2554 31.6226 55.1796 31.7095C54.6212 31.5094 54.0208 31.4027 53.3999 31.4027H49.4689C48.005 31.4027 46.672 31.9987 45.7104 32.9637C45.3434 33.3276 45.0309 33.7464 44.7835 34.2038C44.4312 34.13 44.0661 34.0914 43.6931 34.0914H39.758C38.2925 34.0914 36.9588 34.6914 35.9984 35.6528L35.9983 35.6529C35.0386 36.6132 34.437 37.9458 34.437 39.4118V50.5617C34.437 51.3792 34.5718 52.167 34.8237 52.9046C34.5732 54.0787 34.437 55.2947 34.437 56.5426V61.7571C34.437 66.5304 36.3883 70.8639 39.5278 74.0037C39.8015 74.2777 40.0858 74.5448 40.3802 74.8017V89.2204C40.3802 89.5914 40.6809 89.8921 41.0519 89.8921H71.6951C72.066 89.8921 72.3668 89.5914 72.3668 89.2204L72.3672 78.3661C74.6567 77.6786 76.7521 76.5346 78.542 75.0375L78.5421 75.0374C81.6011 72.4776 83.7663 68.8865 84.4636 64.798C84.5448 64.3228 84.6107 63.8213 84.6565 63.2975C84.706 62.7542 84.7332 62.2392 84.7332 61.7576V45.8052C84.7332 45.7739 84.7311 45.7431 84.727 45.713C84.6863 44.8547 84.0806 44.0834 83.1934 43.8856L83.1914 43.8852L78.1385 42.7365V36.7221C78.1385 35.2578 77.5422 33.9244 76.5767 32.9627C75.6151 31.9975 74.282 31.4015 72.8179 31.4015H68.8869C68.2657 31.4015 67.6655 31.5088 67.1077 31.7085C67.0317 31.6213 66.9525 31.5361 66.8701 31.4536L66.8689 31.4525C65.9061 30.4943 64.5778 29.8921 63.1109 29.8921H59.1759C57.7098 29.8921 56.3769 30.4937 55.4165 31.4552ZM80.5727 64.1438L80.5726 64.1443C80.0428 67.2735 78.3779 70.0346 76.0137 72.0128C73.6744 73.9691 70.6605 75.1478 67.3991 75.1478L58.3481 75.1471V74.8595C58.3481 70.1497 59.6985 66.3953 62.0127 63.6099L62.0132 63.6092C64.4685 60.6459 68.0894 58.6763 72.5066 57.8109C73.4519 57.6293 74.1027 56.7987 74.1027 55.8758V53.6109C74.1027 52.5239 73.2232 51.6376 72.1294 51.6376C72.0561 51.6376 71.9787 51.6422 71.9025 51.6516C70.7336 51.7336 69.61 51.6277 68.5788 51.3549L68.5787 51.3549C67.057 50.9527 65.7486 50.1865 64.798 49.1242L64.7975 49.1237C63.8616 48.08 63.2415 46.7079 63.1151 45.0363L63.1149 45.0333C63.0731 44.5117 63.0803 43.9568 63.1395 43.372L80.7864 47.379L80.7868 61.7569C80.7868 62.187 80.7686 62.579 80.7373 62.9419C80.7015 63.318 80.6447 63.7202 80.5727 64.1438ZM41.7249 57.8508C43.4819 57.8508 45.0991 57.221 46.359 56.1788C47.6708 57.4543 49.4639 58.245 51.4324 58.245C53.1921 58.245 54.8098 57.6151 56.0699 56.5727C57.3839 57.8495 59.1726 58.6391 61.143 58.6391C61.2452 58.6391 61.3469 58.637 61.4482 58.6327C60.5539 59.376 59.7306 60.1967 58.9859 61.0941C56.0591 64.62 54.4015 69.2511 54.4015 74.8603V75.1479L51.7696 75.1484C48.0926 75.1484 44.7464 73.6414 42.3181 71.2132C39.8897 68.7806 38.3829 65.4343 38.3829 61.7575V57.036C39.3849 57.5569 40.5216 57.8508 41.7249 57.8508ZM72.8174 35.3488C73.1931 35.3488 73.5358 35.5022 73.7827 35.7518C73.7843 35.7535 73.786 35.7552 73.7877 35.7568C74.0373 36.004 74.1909 36.3469 74.1909 36.7224V41.8431L68.4315 40.5342V35.4273C68.5736 35.3764 68.7268 35.3488 68.8863 35.3488H72.8174ZM64.0784 34.2447L64.0787 34.245C64.3315 34.4974 64.484 34.8387 64.484 35.2126V39.6376L62.1128 39.0981C61.637 38.974 61.1116 39.0287 60.65 39.2934L60.6234 39.3068C60.6123 39.3124 60.6014 39.3183 60.5906 39.3245C60.1523 39.5774 59.8082 40.0003 59.6672 40.5287L59.6668 40.5303C59.2141 42.2427 59.0636 43.8472 59.1777 45.3319L59.1778 45.333C59.3787 47.8924 60.3526 50.0618 61.8611 51.7494L61.8619 51.7502C62.4266 52.3797 63.0633 52.9377 63.7564 53.4197C63.6765 53.5201 63.5912 53.6155 63.5013 53.7054L63.501 53.7057C62.8917 54.3157 62.0553 54.6916 61.1426 54.6916C60.2301 54.6916 59.3944 54.3159 58.7839 53.7054C58.178 53.0996 57.8018 52.2631 57.8018 51.35V35.2126C57.8018 34.8389 57.9538 34.4983 58.2075 34.2447L58.2078 34.2443C58.4602 33.9916 58.8015 33.839 59.1754 33.839H63.1105C63.4842 33.839 63.8248 33.991 64.0784 34.2447ZM38.7885 38.4438L38.7889 38.4435C39.0413 38.1907 39.3826 38.0381 39.7565 38.0381H43.6915C43.8499 38.0381 44.0034 38.0659 44.1465 38.117V50.9563C44.1465 51.5299 44.2115 52.0893 44.34 52.6292C44.2587 52.7309 44.1721 52.8278 44.0791 52.9208C43.4733 53.5267 42.6368 53.9029 41.7237 53.9029C40.8114 53.9029 39.9756 53.5277 39.3649 52.9207C38.7585 52.311 38.3829 51.4744 38.3829 50.5621V39.4117C38.3829 39.038 38.5349 38.6974 38.7885 38.4438ZM51.7703 79.0947H67.3982C67.7401 79.0947 68.0806 79.0843 68.419 79.0637L68.4195 85.9443H44.3267V77.4043C46.5859 78.4861 49.1125 79.0947 51.7703 79.0947ZM49.4679 35.3492H53.3989C53.5583 35.3492 53.7117 35.3768 53.8542 35.4279V51.3504C53.8542 51.924 53.9223 52.4851 54.049 53.0232C53.9682 53.1254 53.8821 53.2227 53.7906 53.3142C53.1806 53.9213 52.3477 54.2969 51.4313 54.2969C50.5181 54.2969 49.6822 53.9212 49.0759 53.3148C48.4675 52.7064 48.0938 51.8702 48.0938 50.9561V36.7227C48.0938 36.347 48.2477 36.0028 48.4958 35.7548C48.7487 35.5023 49.0932 35.3492 49.4679 35.3492Z" fill="#2E60FF"/>
</svg>
