<svg width="210" height="50" viewBox="0 0 210 50" fill="none" xmlns="http://www.w3.org/2000/svg">
<path fill-rule="evenodd" clip-rule="evenodd" d="M26.4073 50C40.149 50 51.3245 38.7417 51.3245 25C51.3245 11.2583 40.149 0 26.4073 0H4.38742C1.98675 0 0 1.98675 0 4.38742V45.6126C0 48.0132 1.98675 50 4.38742 50H26.4073ZM25.4139 6.78808C15.3974 6.78808 7.20199 14.9007 7.20199 25C7.20199 35.0166 15.3146 43.2119 25.4139 43.2119C35.5132 43.2119 43.6258 35.0993 43.6258 25C43.543 14.9834 35.4305 6.78808 25.4139 6.78808Z" fill="url(#paint0_radial_500_4788)"/>
<path fill-rule="evenodd" clip-rule="evenodd" d="M25.415 6.78809C15.3985 6.78809 7.20312 14.9007 7.20312 25C7.20312 35.0166 15.3157 43.2119 25.415 43.2119C35.5144 43.2119 43.627 35.0993 43.627 25C43.5442 14.9834 35.4316 6.78809 25.415 6.78809ZM26.9879 11.755C18.4614 11.755 11.5905 18.7086 11.5905 27.1523C11.5905 35.6788 18.4614 42.5497 26.9879 42.5497C35.5144 42.5497 42.3852 35.6788 42.3852 27.1523C42.3852 18.7086 35.4316 11.755 26.9879 11.755Z" fill="#01A1FF"/>
<path fill-rule="evenodd" clip-rule="evenodd" d="M26.9872 11.755C18.4607 11.755 11.5898 18.7086 11.5898 27.1523C11.5898 35.6788 18.4607 42.5497 26.9872 42.5497C35.5137 42.5497 42.3845 35.6788 42.3845 27.1523C42.3845 18.7086 35.4309 11.755 26.9872 11.755ZM28.56 16.8046C21.6064 16.8046 15.9773 22.4338 15.9773 29.3874C15.9773 36.3411 21.6064 41.9702 28.56 41.9702C35.5137 41.9702 41.1428 36.3411 41.1428 29.3874C41.1428 22.4338 35.5137 16.8046 28.56 16.8046Z" fill="#00C0FE"/>
<path fill-rule="evenodd" clip-rule="evenodd" d="M28.5593 16.8046C21.6057 16.8046 15.9766 22.4338 15.9766 29.3874C15.9766 36.3411 21.6057 41.9702 28.5593 41.9702C35.513 41.9702 41.1421 36.3411 41.1421 29.3874C41.1421 22.4338 35.513 16.8046 28.5593 16.8046ZM30.1322 21.7715C24.7514 21.7715 20.364 26.1589 20.364 31.5397C20.364 36.9205 24.7514 41.308 30.1322 41.308C35.513 41.308 39.9004 36.9205 39.9004 31.5397C39.9004 26.1589 35.513 21.7715 30.1322 21.7715Z" fill="#00DEFE"/>
<path d="M77.7321 17.3841C79.0566 17.3841 80.2156 17.6324 81.3745 18.2119C82.4507 18.7914 83.3613 19.6192 84.0235 20.7781C84.6858 21.9371 85.0169 23.3444 85.0169 25C85.0169 26.6556 84.6858 28.0629 84.0235 29.2218C83.3613 30.3808 82.4507 31.2086 81.3745 31.7881C80.2984 32.3675 79.0566 32.6159 77.7321 32.6159H66.5566V17.3841H77.7321ZM76.0765 28.5596C76.9043 28.5596 77.6494 28.4768 78.2288 28.3113C78.8083 28.1457 79.305 27.8146 79.6361 27.3179C79.9672 26.8212 80.2156 25.9934 80.2156 25C80.2156 24.0066 80.05 23.1788 79.6361 22.6821C79.305 22.1854 78.8083 21.8543 78.2288 21.6887C77.6494 21.5232 76.9871 21.4404 76.0765 21.4404H71.2752V28.5596C71.358 28.5596 76.0765 28.5596 76.0765 28.5596ZM94.7851 29.2218C95.9441 29.2218 96.8547 29.1391 97.5169 28.8907C98.1792 28.7252 98.7586 28.3113 99.1725 27.8146H103.56C102.815 31.1258 99.9176 32.7814 94.7851 32.7814C92.1361 32.7814 90.0666 32.202 88.4937 31.1258C86.9209 30.0497 86.1758 28.394 86.1758 26.0762C86.1758 23.7583 86.9209 22.1026 88.4937 21.0265C90.0666 19.9503 92.2189 19.3709 95.0335 19.3709C97.848 19.3709 100 19.9503 101.49 21.1093C103.063 22.2682 103.808 24.1722 103.808 26.904H90.7288C91.0599 28.4768 92.4672 29.2218 94.7851 29.2218ZM95.0335 22.6821C93.9573 22.6821 93.0467 22.8477 92.3845 23.096C91.7222 23.3444 91.2255 23.8411 90.9772 24.5033H99.1725C98.8414 23.8411 98.4275 23.3444 97.6825 23.096C96.9374 22.8477 96.0268 22.6821 95.0335 22.6821ZM115.398 19.4536C117.55 19.4536 119.288 19.9503 120.696 21.0265C122.103 22.1026 122.765 23.7583 122.765 26.1589C122.765 28.4768 122.103 30.2152 120.696 31.2914C119.288 32.3675 117.55 32.8642 115.398 32.8642C114.156 32.8642 113.08 32.6987 112.004 32.3675C111.01 32.0364 110.182 31.4569 109.52 30.7947V32.6987H105.05V15.3146H109.52V21.5232C110.182 20.8609 111.01 20.2815 112.086 19.9503C113.08 19.6192 114.156 19.4536 115.398 19.4536ZM113.908 29.0563C115.398 29.0563 116.474 28.8079 117.219 28.394C117.964 27.9801 118.295 27.1523 118.295 26.0762C118.295 25 117.964 24.255 117.219 23.7583C116.474 23.3444 115.398 23.096 113.908 23.096C112.418 23.096 111.341 23.3444 110.596 23.7583C109.851 24.1722 109.52 25 109.52 26.0762C109.52 27.1523 109.851 27.8973 110.596 28.394C111.341 28.8907 112.418 29.0563 113.908 29.0563ZM128.477 15.2318V18.543H124.007V15.2318H128.477ZM128.477 19.702V32.6159H124.007V19.702H128.477ZM137.086 23.4271V26.6556C137.086 27.3179 137.169 27.8146 137.252 28.1457C137.418 28.4768 137.666 28.7252 137.997 28.8907C138.328 29.0563 138.825 29.1391 139.487 29.1391C140.149 29.1391 140.729 29.1391 141.143 29.1391C141.557 29.1391 142.136 29.0563 142.798 28.9735V32.6159C141.557 32.8642 140.067 32.947 138.328 32.947C134.52 32.947 132.616 31.6225 132.616 28.8907V23.5099H129.636V19.7848H132.616V17.3841L137.086 16.2252V19.8675H142.798V23.5927H137.086V23.4271ZM154.388 23.3444V27.0695H144.371V23.3444H154.388ZM168.378 17.3841C169.537 17.3841 170.53 17.6324 171.441 18.1291C172.351 18.6258 173.014 19.2881 173.51 20.1159C174.007 20.9437 174.255 21.9371 174.255 23.096C174.255 24.1722 174.007 25.1656 173.51 26.0762C173.014 26.904 172.351 27.649 171.441 28.0629C170.53 28.5596 169.537 28.8079 168.378 28.8079H161.176V32.6159H156.457V17.3841H168.378ZM167.302 24.7516C167.716 24.7516 168.047 24.7516 168.378 24.6689C168.626 24.5861 168.957 24.4205 169.123 24.255C169.288 24.0066 169.454 23.6755 169.454 23.096C169.454 22.5993 169.371 22.1854 169.123 21.9371C168.957 21.6887 168.626 21.5232 168.378 21.5232C168.129 21.4404 167.716 21.4404 167.302 21.4404H161.259V24.7516H167.302ZM183.03 19.4536C185.845 19.4536 187.914 19.9503 189.322 21.0265C190.729 22.0199 191.474 23.7583 191.474 26.1589V32.6159H187.004V31.043C185.017 32.2848 182.616 32.8642 179.802 32.8642C178.063 32.8642 176.656 32.5331 175.663 31.8709C174.669 31.2086 174.09 30.2152 174.09 28.8907C174.09 27.3179 174.835 26.2417 176.242 25.5795C177.732 24.9172 179.553 24.5861 181.788 24.5861C183.692 24.5861 185.431 24.8344 186.921 25.4139C186.921 24.5033 186.507 23.9238 185.762 23.6755C185.017 23.4271 184.024 23.2616 182.782 23.2616C180.795 23.2616 178.726 23.5099 176.656 24.0894L175.166 20.8609C177.98 19.8675 180.547 19.4536 183.03 19.4536ZM187.004 27.7318C185.762 27.4007 184.355 27.1523 182.533 27.1523C181.209 27.1523 180.133 27.2351 179.553 27.4834C178.891 27.7318 178.56 28.0629 178.56 28.5596C178.56 29.0563 178.726 29.3046 179.139 29.4702C179.553 29.6358 180.216 29.6358 181.126 29.6358C182.037 29.6358 183.03 29.553 184.106 29.3046C185.182 29.0563 186.176 28.8079 187.004 28.4768V27.7318ZM209.603 19.702L201.573 37.9967H196.689L199.09 32.5331H196.937L190.894 19.6192H195.778L200.414 29.4702L204.719 19.6192L209.603 19.702Z" fill="#272727"/>
<defs>
<radialGradient id="paint0_radial_500_4788" cx="0" cy="0" r="1" gradientUnits="userSpaceOnUse" gradientTransform="translate(1.69171 0.734909) rotate(47.592) scale(35.5034 32.0077)">
<stop stop-color="#32E8FC"/>
<stop offset="1" stop-color="#3C5FFF"/>
</radialGradient>
</defs>
</svg>
