<svg width="604" height="352" viewBox="0 0 604 352" fill="none" xmlns="http://www.w3.org/2000/svg">
<g clip-path="url(#clip0_368_2150)">
<path d="M327.086 288.641H277.956V324.198H327.086V288.641Z" fill="#B1DAFC"/>
<path d="M327.086 304.006L277.956 299.131V288.641H327.086V304.006Z" fill="#8FCAF2"/>
<path d="M352.379 323.07H252.662C251.149 323.07 249.698 323.672 248.629 324.743C247.559 325.814 246.958 327.267 246.958 328.782V334.494H358.083V328.782C358.083 327.267 357.482 325.814 356.412 324.743C355.343 323.672 353.892 323.07 352.379 323.07Z" fill="#759BD5"/>
<path d="M456.236 80.5337H148.795C148.008 80.5337 147.229 80.6891 146.502 80.9909C145.776 81.2928 145.115 81.7352 144.559 82.2928C144.003 82.8505 143.563 83.5124 143.262 84.2408C142.962 84.9692 142.808 85.7497 142.81 86.5377V289.858C142.808 290.646 142.962 291.426 143.262 292.154C143.563 292.883 144.003 293.545 144.559 294.102C145.115 294.66 145.776 295.102 146.502 295.404C147.229 295.706 148.008 295.862 148.795 295.862H456.236C457.826 295.862 459.351 295.229 460.475 294.103C461.599 292.977 462.231 291.45 462.231 289.858V86.5377C462.231 84.9454 461.599 83.4182 460.475 82.2922C459.351 81.1663 457.826 80.5337 456.236 80.5337Z" fill="#759BD5"/>
<path d="M454.856 86.5381H150.195C148.875 86.5381 147.805 87.6098 147.805 88.9319V269.092C147.805 270.414 148.875 271.486 150.195 271.486H454.856C456.176 271.486 457.247 270.414 457.247 269.092V88.9319C457.247 87.6098 456.176 86.5381 454.856 86.5381Z" fill="#E1EDF9"/>
<path d="M308.449 282.891C308.449 284.068 308.1 285.218 307.447 286.196C306.794 287.174 305.867 287.936 304.781 288.385C303.696 288.835 302.501 288.952 301.35 288.722C300.198 288.492 299.14 287.925 298.31 287.092C297.48 286.26 296.915 285.199 296.687 284.045C296.459 282.891 296.578 281.696 297.029 280.609C297.48 279.523 298.242 278.595 299.22 277.943C300.198 277.291 301.346 276.944 302.521 276.946C304.094 276.948 305.602 277.576 306.713 278.691C307.824 279.805 308.449 281.316 308.449 282.891Z" fill="#8FCAF2"/>
<g style="mix-blend-mode:multiply" opacity="0.3">
<g style="mix-blend-mode:multiply" opacity="0.3">
<path d="M193.32 133.247H159.834C158.246 133.247 156.958 134.536 156.958 136.127V260.266C156.958 261.856 158.246 263.146 159.834 263.146H193.32C194.908 263.146 196.196 261.856 196.196 260.266V136.127C196.196 134.536 194.908 133.247 193.32 133.247Z" fill="#6C9FBC"/>
</g>
</g>
<path d="M191.512 131.428H158.027C156.438 131.428 155.15 132.717 155.15 134.308V258.447C155.15 260.037 156.438 261.327 158.027 261.327H191.512C193.1 261.327 194.388 260.037 194.388 258.447V134.308C194.388 132.717 193.1 131.428 191.512 131.428Z" fill="white"/>
<path d="M190.793 133.617H158.911C158.353 133.617 157.9 134.07 157.9 134.629V257.862C157.9 258.421 158.353 258.874 158.911 258.874H190.793C191.351 258.874 191.803 258.421 191.803 257.862V134.629C191.803 134.07 191.351 133.617 190.793 133.617Z" fill="#E1EDF9"/>
<g style="mix-blend-mode:multiply" opacity="0.3">
<g style="mix-blend-mode:multiply" opacity="0.3">
<path d="M253.634 179.226H220.149C218.56 179.226 217.272 180.515 217.272 182.106V260.256C217.272 261.847 218.56 263.136 220.149 263.136H253.634C255.222 263.136 256.51 261.847 256.51 260.256V182.106C256.51 180.515 255.222 179.226 253.634 179.226Z" fill="#6C9FBC"/>
</g>
</g>
<path d="M251.826 177.416H218.341C216.753 177.416 215.465 178.705 215.465 180.296V258.446C215.465 260.036 216.753 261.326 218.341 261.326H251.826C253.415 261.326 254.703 260.036 254.703 258.446V180.296C254.703 178.705 253.415 177.416 251.826 177.416Z" fill="white"/>
<path d="M251.099 179.606H219.217C218.659 179.606 218.206 180.059 218.206 180.618V257.863C218.206 258.422 218.659 258.875 219.217 258.875H251.099C251.657 258.875 252.109 258.422 252.109 257.863V180.618C252.109 180.059 251.657 179.606 251.099 179.606Z" fill="#E1EDF9"/>
<g style="mix-blend-mode:multiply" opacity="0.3">
<g style="mix-blend-mode:multiply" opacity="0.3">
<path d="M313.947 156.913H280.462C278.874 156.913 277.586 158.202 277.586 159.793V260.266C277.586 261.857 278.874 263.146 280.462 263.146H313.947C315.536 263.146 316.824 261.857 316.824 260.266V159.793C316.824 158.202 315.536 156.913 313.947 156.913Z" fill="#6C9FBC"/>
</g>
</g>
<path d="M312.131 155.094H278.646C277.057 155.094 275.77 156.383 275.77 157.974V258.447C275.77 260.038 277.057 261.327 278.646 261.327H312.131C313.72 261.327 315.007 260.038 315.007 258.447V157.974C315.007 156.383 313.72 155.094 312.131 155.094Z" fill="white"/>
<path d="M311.412 157.282H279.53C278.972 157.282 278.52 157.735 278.52 158.294V257.852C278.52 258.411 278.972 258.864 279.53 258.864H311.412C311.97 258.864 312.423 258.411 312.423 257.852V158.294C312.423 157.735 311.97 157.282 311.412 157.282Z" fill="#E1EDF9"/>
<g style="mix-blend-mode:multiply" opacity="0.3">
<g style="mix-blend-mode:multiply" opacity="0.3">
<path d="M374.253 179.538H340.768C339.179 179.538 337.892 180.827 337.892 182.418V260.266C337.892 261.857 339.179 263.147 340.768 263.147H374.253C375.842 263.147 377.129 261.857 377.129 260.266V182.418C377.129 180.827 375.842 179.538 374.253 179.538Z" fill="#6C9FBC"/>
</g>
</g>
<path d="M372.445 177.728H338.96C337.372 177.728 336.084 179.017 336.084 180.608V258.456C336.084 260.047 337.372 261.336 338.96 261.336H372.445C374.034 261.336 375.322 260.047 375.322 258.456V180.608C375.322 179.017 374.034 177.728 372.445 177.728Z" fill="white"/>
<path d="M371.717 179.908H339.835C339.277 179.908 338.824 180.361 338.824 180.92V257.853C338.824 258.412 339.277 258.865 339.835 258.865H371.717C372.275 258.865 372.727 258.412 372.727 257.853V180.92C372.727 180.361 372.275 179.908 371.717 179.908Z" fill="#E1EDF9"/>
<g style="mix-blend-mode:multiply" opacity="0.3">
<g style="mix-blend-mode:multiply" opacity="0.3">
<path d="M434.965 207.601H399.304C398.316 207.601 397.516 208.402 397.516 209.391V260.664C397.516 261.653 398.316 262.454 399.304 262.454H434.965C435.953 262.454 436.753 261.653 436.753 260.664V209.391C436.753 208.402 435.953 207.601 434.965 207.601Z" fill="#6C9FBC"/>
</g>
</g>
<path d="M433.839 206.473H398.177C397.189 206.473 396.389 207.274 396.389 208.263V259.536C396.389 260.525 397.189 261.326 398.177 261.326H433.839C434.826 261.326 435.627 260.525 435.627 259.536V208.263C435.627 207.274 434.826 206.473 433.839 206.473Z" fill="white"/>
<path d="M432.439 209.071H399.741C399.408 209.071 399.139 209.341 399.139 209.674V258.261C399.139 258.594 399.408 258.864 399.741 258.864H432.439C432.772 258.864 433.042 258.594 433.042 258.261V209.674C433.042 209.341 432.772 209.071 432.439 209.071Z" fill="#E1EDF9"/>
<path d="M174.77 105.747L235.161 161.924L296.856 137.276L356.878 159.725L416.007 191.614" stroke="#FF0911" stroke-width="5.6261" stroke-miterlimit="10"/>
<path d="M174.827 112.51C173.482 112.51 172.167 112.11 171.048 111.362C169.93 110.613 169.058 109.549 168.543 108.305C168.028 107.06 167.894 105.69 168.156 104.369C168.419 103.048 169.066 101.834 170.018 100.881C170.969 99.9287 172.181 99.28 173.5 99.0171C174.82 98.7543 176.187 98.8892 177.43 99.4047C178.673 99.9203 179.736 100.793 180.483 101.914C181.23 103.034 181.629 104.351 181.629 105.698C181.629 107.505 180.913 109.237 179.637 110.515C178.361 111.792 176.631 112.51 174.827 112.51Z" fill="white"/>
<path d="M174.828 101.543C175.659 101.541 176.472 101.786 177.164 102.248C177.856 102.709 178.396 103.365 178.714 104.134C179.033 104.902 179.117 105.748 178.956 106.565C178.794 107.381 178.394 108.131 177.806 108.72C177.219 109.308 176.47 109.709 175.655 109.87C174.839 110.032 173.995 109.948 173.227 109.629C172.46 109.31 171.804 108.769 171.344 108.076C170.883 107.384 170.638 106.57 170.64 105.737C170.643 104.626 171.085 103.56 171.87 102.774C172.655 101.988 173.718 101.546 174.828 101.543ZM174.828 96.3955C172.981 96.3936 171.174 96.9407 169.637 97.9675C168.1 98.9943 166.901 100.455 166.193 102.164C165.485 103.873 165.299 105.754 165.659 107.569C166.019 109.384 166.909 111.051 168.216 112.36C169.522 113.668 171.187 114.559 172.999 114.919C174.812 115.28 176.69 115.094 178.397 114.385C180.103 113.676 181.562 112.476 182.587 110.936C183.612 109.397 184.159 107.588 184.157 105.737C184.157 103.26 183.174 100.884 181.425 99.1317C179.675 97.3797 177.302 96.3955 174.828 96.3955Z" fill="#FF0911"/>
<path d="M235.161 168.473C233.816 168.473 232.501 168.073 231.382 167.325C230.264 166.576 229.392 165.512 228.877 164.268C228.362 163.023 228.228 161.653 228.49 160.332C228.753 159.011 229.4 157.797 230.352 156.844C231.303 155.892 232.515 155.243 233.834 154.98C235.154 154.717 236.521 154.852 237.764 155.368C239.007 155.883 240.07 156.756 240.817 157.876C241.564 158.997 241.963 160.314 241.963 161.661C241.963 163.467 241.247 165.2 239.971 166.477C238.695 167.755 236.965 168.473 235.161 168.473Z" fill="white"/>
<path d="M235.161 157.496C235.992 157.496 236.803 157.743 237.494 158.205C238.184 158.667 238.722 159.323 239.04 160.091C239.357 160.86 239.441 161.705 239.279 162.52C239.117 163.336 238.717 164.085 238.13 164.673C237.543 165.261 236.795 165.661 235.98 165.823C235.166 165.985 234.322 165.902 233.555 165.584C232.788 165.266 232.132 164.727 231.671 164.036C231.21 163.344 230.964 162.532 230.964 161.7C230.964 160.585 231.406 159.516 232.193 158.728C232.98 157.939 234.048 157.496 235.161 157.496ZM235.161 152.358C233.316 152.358 231.513 152.906 229.979 153.933C228.445 154.959 227.249 156.418 226.543 158.125C225.837 159.832 225.652 161.711 226.012 163.523C226.372 165.335 227.261 166.999 228.565 168.306C229.87 169.612 231.532 170.502 233.342 170.862C235.151 171.223 237.027 171.038 238.731 170.331C240.436 169.624 241.893 168.426 242.918 166.89C243.943 165.354 244.49 163.548 244.49 161.7C244.49 159.223 243.507 156.846 241.758 155.095C240.008 153.343 237.636 152.358 235.161 152.358Z" fill="#FF0911"/>
<path d="M296.787 144.069C295.442 144.069 294.127 143.669 293.008 142.921C291.89 142.172 291.018 141.108 290.503 139.864C289.988 138.619 289.854 137.249 290.116 135.928C290.379 134.607 291.026 133.393 291.978 132.44C292.929 131.488 294.141 130.839 295.46 130.576C296.78 130.313 298.147 130.448 299.39 130.964C300.633 131.479 301.696 132.352 302.443 133.473C303.19 134.593 303.589 135.91 303.589 137.257C303.589 139.064 302.873 140.796 301.597 142.074C300.321 143.351 298.591 144.069 296.787 144.069Z" fill="white"/>
<path d="M296.787 133.091C297.618 133.089 298.431 133.334 299.122 133.795C299.814 134.256 300.353 134.912 300.673 135.679C300.992 136.447 301.076 137.293 300.916 138.109C300.755 138.925 300.356 139.675 299.769 140.264C299.182 140.853 298.434 141.254 297.62 141.417C296.805 141.58 295.961 141.498 295.193 141.18C294.425 140.862 293.769 140.323 293.308 139.631C292.846 138.94 292.599 138.127 292.599 137.295C292.602 136.183 293.044 135.116 293.828 134.329C294.613 133.541 295.677 133.096 296.787 133.091ZM296.787 127.953C294.943 127.955 293.14 128.505 291.608 129.532C290.075 130.56 288.881 132.02 288.176 133.727C287.471 135.434 287.288 137.312 287.649 139.123C288.01 140.935 288.899 142.599 290.204 143.904C291.509 145.21 293.172 146.098 294.981 146.458C296.79 146.818 298.665 146.632 300.369 145.925C302.073 145.217 303.53 144.02 304.554 142.484C305.579 140.948 306.126 139.142 306.126 137.295C306.126 136.067 305.884 134.852 305.415 133.718C304.945 132.584 304.257 131.553 303.39 130.686C302.523 129.818 301.493 129.13 300.36 128.661C299.227 128.193 298.013 127.952 296.787 127.953Z" fill="#FF0911"/>
<path d="M356.995 166.605C355.65 166.605 354.335 166.206 353.216 165.457C352.098 164.709 351.226 163.645 350.711 162.4C350.196 161.156 350.062 159.786 350.324 158.465C350.587 157.143 351.234 155.93 352.186 154.977C353.137 154.024 354.349 153.376 355.668 153.113C356.988 152.85 358.355 152.985 359.598 153.5C360.841 154.016 361.904 154.889 362.651 156.009C363.398 157.129 363.797 158.446 363.797 159.794C363.797 161.6 363.081 163.333 361.805 164.61C360.529 165.888 358.799 166.605 356.995 166.605Z" fill="white"/>
<path d="M356.995 155.637C357.826 155.636 358.639 155.88 359.33 156.341C360.022 156.802 360.561 157.458 360.88 158.226C361.2 158.994 361.284 159.839 361.123 160.655C360.962 161.472 360.563 162.221 359.977 162.81C359.39 163.399 358.642 163.801 357.828 163.964C357.013 164.127 356.168 164.044 355.401 163.726C354.633 163.408 353.977 162.869 353.515 162.178C353.054 161.486 352.807 160.673 352.807 159.841C352.81 158.729 353.252 157.663 354.036 156.875C354.821 156.087 355.884 155.643 356.995 155.637ZM356.995 150.49C355.148 150.488 353.342 151.035 351.805 152.061C350.268 153.087 349.069 154.547 348.361 156.256C347.653 157.964 347.467 159.845 347.826 161.66C348.185 163.474 349.074 165.142 350.379 166.45C351.685 167.759 353.349 168.651 355.16 169.012C356.972 169.374 358.85 169.189 360.557 168.482C362.264 167.774 363.723 166.576 364.749 165.038C365.776 163.5 366.324 161.691 366.324 159.841C366.325 158.614 366.085 157.398 365.616 156.263C365.148 155.129 364.461 154.098 363.595 153.229C362.729 152.361 361.7 151.672 360.567 151.202C359.435 150.732 358.221 150.49 356.995 150.49Z" fill="#FF0911"/>
<path d="M416.085 198.387C414.74 198.387 413.425 197.988 412.306 197.239C411.188 196.491 410.316 195.427 409.801 194.182C409.286 192.937 409.151 191.568 409.414 190.246C409.676 188.925 410.324 187.711 411.275 186.759C412.227 185.806 413.439 185.157 414.758 184.895C416.078 184.632 417.445 184.767 418.688 185.282C419.931 185.798 420.993 186.671 421.741 187.791C422.488 188.911 422.887 190.228 422.887 191.575C422.887 193.382 422.171 195.115 420.895 196.392C419.619 197.669 417.889 198.387 416.085 198.387Z" fill="white"/>
<path d="M416.085 187.409C416.916 187.408 417.728 187.652 418.42 188.113C419.112 188.574 419.651 189.23 419.97 189.998C420.29 190.766 420.374 191.611 420.213 192.427C420.052 193.243 419.653 193.993 419.067 194.582C418.48 195.171 417.732 195.573 416.918 195.736C416.103 195.899 415.258 195.816 414.491 195.498C413.723 195.18 413.067 194.641 412.605 193.95C412.144 193.258 411.897 192.445 411.897 191.613C411.9 190.501 412.341 189.434 413.126 188.647C413.911 187.859 414.974 187.415 416.085 187.409ZM416.085 182.262C414.238 182.262 412.433 182.81 410.897 183.838C409.362 184.865 408.165 186.326 407.458 188.035C406.751 189.743 406.566 191.624 406.927 193.438C407.287 195.252 408.176 196.918 409.482 198.226C410.788 199.534 412.452 200.424 414.263 200.785C416.075 201.146 417.952 200.961 419.659 200.253C421.365 199.545 422.824 198.347 423.85 196.809C424.876 195.271 425.423 193.463 425.423 191.613C425.425 190.385 425.184 189.168 424.715 188.033C424.246 186.898 423.559 185.866 422.691 184.998C421.824 184.129 420.794 183.44 419.66 182.971C418.527 182.501 417.312 182.26 416.085 182.262Z" fill="#FF0911"/>
<path d="M37.9917 251.741C37.9917 251.741 34.9016 252.714 35.9414 258.028C36.9811 263.341 38.6913 263.983 37.9528 268.732C37.2143 273.48 42.6753 277.11 43.5499 280.059C44.4244 283.007 42.4324 288.223 44.8034 292.164C46.0958 294.305 49.3607 295.979 53.6362 296.407C63.3534 297.38 71.2243 292.407 73.3037 283.698C73.6351 282.346 73.7597 280.952 73.673 279.562C73.0511 271.164 63.5186 271.009 60.8658 269.15C58.213 267.291 57.5037 260.392 55.2104 258.816C52.9172 257.239 50.3519 259.565 46.465 256.111C42.5782 252.656 40.4598 250.992 37.9917 251.741Z" fill="#759BD5"/>
<path d="M38.3896 254.155C38.3896 254.155 67.2981 288.213 71.1169 314.847" stroke="white" stroke-width="1.14862" stroke-miterlimit="10" stroke-linecap="round"/>
<path d="M39.2734 262.738C42.6364 263.649 45.7778 265.238 48.5047 267.409" stroke="white" stroke-width="0.765746" stroke-miterlimit="10" stroke-linecap="round"/>
<path d="M53.2954 260.198C53.2954 260.198 50.8661 267.282 51.7601 272.157" stroke="white" stroke-width="0.765746" stroke-miterlimit="10" stroke-linecap="round"/>
<path d="M44.0254 277.139C44.0254 277.139 53.9757 278.307 57.2504 280.818" stroke="white" stroke-width="0.765746" stroke-miterlimit="10" stroke-linecap="round"/>
<path d="M65.0241 274.959C65.0241 274.959 60.8166 283.455 60.8846 287.23" stroke="white" stroke-width="0.765746" stroke-miterlimit="10" stroke-linecap="round"/>
<path d="M48.4463 291.181C48.4463 291.181 56.5407 289.566 62.6624 290.588" stroke="white" stroke-width="0.765746" stroke-miterlimit="10" stroke-linecap="round"/>
<path d="M54.1903 268.849C53.7413 270.743 53.4713 272.675 53.3838 274.619" stroke="white" stroke-width="0.765746" stroke-miterlimit="10" stroke-linecap="round"/>
<path d="M91.1047 247.353C91.1047 247.353 94.3308 247.674 94.3988 253.094C94.4668 258.515 92.9315 259.488 94.632 263.983C96.3325 268.479 91.7169 273.16 91.4642 276.215C91.2116 279.271 94.2433 284 92.7178 288.321C91.8918 290.685 89.0447 292.992 84.9441 294.286C75.6156 297.205 66.9188 293.984 63.0902 285.888C62.4885 284.634 62.0821 283.295 61.8853 281.918C60.7775 273.578 70.0671 271.467 72.2826 269.102C74.4981 266.737 73.7693 259.819 75.7128 257.872C77.6562 255.926 80.5713 257.61 83.6905 253.425C86.8097 249.241 88.5394 247.168 91.1047 247.353Z" fill="#577EB5"/>
<path d="M91.2603 249.795C91.2603 249.795 69.8826 289.089 71.6123 315.917" stroke="white" stroke-width="1.14862" stroke-miterlimit="10" stroke-linecap="round"/>
<path d="M92.1062 258.357C89.0015 259.948 86.2538 262.157 84.0312 264.848" stroke="white" stroke-width="0.765746" stroke-miterlimit="10" stroke-linecap="round"/>
<path d="M77.8604 258.777C77.8604 258.777 81.6889 265.21 81.8152 270.163" stroke="white" stroke-width="0.765746" stroke-miterlimit="10" stroke-linecap="round"/>
<path d="M90.4059 273.441C90.4059 273.441 80.9123 276.662 78.2109 279.757" stroke="white" stroke-width="0.765746" stroke-miterlimit="10" stroke-linecap="round"/>
<path d="M69.3877 275.63C69.3877 275.63 75.218 283.084 75.9468 286.792" stroke="white" stroke-width="0.765746" stroke-miterlimit="10" stroke-linecap="round"/>
<path d="M88.9476 288.106C88.9476 288.106 80.6977 288.184 74.916 290.441" stroke="white" stroke-width="0.765746" stroke-miterlimit="10" stroke-linecap="round"/>
<path d="M78.7646 267.418C79.5789 269.184 80.2295 271.022 80.7081 272.907" stroke="white" stroke-width="0.765746" stroke-miterlimit="10" stroke-linecap="round"/>
<path d="M81.7865 333.366H59.34L54.666 300.854H86.4605L81.7865 333.366Z" fill="white"/>
<path opacity="0.67" d="M54.666 300.854L55.181 304.445L85.4985 307.588L86.4605 300.854H54.666Z" fill="#8FCAF2"/>
<path d="M88.5403 297.613H52.5869V302.605H88.5403V297.613Z" fill="white"/>
<path d="M489.119 118.357H428.193C426.535 118.357 425.19 119.704 425.19 121.364V160.308C425.19 161.968 426.535 163.315 428.193 163.315H489.119C490.778 163.315 492.122 161.968 492.122 160.308V121.364C492.122 119.704 490.778 118.357 489.119 118.357Z" fill="#3F49A5"/>
<g opacity="0.29">
<path opacity="0.29" d="M427.532 129.802V159.462" stroke="white" stroke-width="0.563674" stroke-miterlimit="10" stroke-linecap="round"/>
<path opacity="0.29" d="M432.692 129.802V159.462" stroke="white" stroke-width="0.563674" stroke-miterlimit="10" stroke-linecap="round"/>
<path opacity="0.29" d="M437.852 129.802V159.462" stroke="white" stroke-width="0.563674" stroke-miterlimit="10" stroke-linecap="round"/>
<path opacity="0.29" d="M443.002 129.802V159.462" stroke="white" stroke-width="0.563674" stroke-miterlimit="10" stroke-linecap="round"/>
<path opacity="0.29" d="M448.161 129.802V159.462" stroke="white" stroke-width="0.563674" stroke-miterlimit="10" stroke-linecap="round"/>
<path opacity="0.29" d="M453.312 129.802V159.462" stroke="white" stroke-width="0.563674" stroke-miterlimit="10" stroke-linecap="round"/>
<path opacity="0.29" d="M458.472 129.802V159.462" stroke="white" stroke-width="0.563674" stroke-miterlimit="10" stroke-linecap="round"/>
<path opacity="0.29" d="M463.631 129.802V159.462" stroke="white" stroke-width="0.563674" stroke-miterlimit="10" stroke-linecap="round"/>
<path opacity="0.29" d="M468.781 129.802V159.462" stroke="white" stroke-width="0.563674" stroke-miterlimit="10" stroke-linecap="round"/>
<path opacity="0.29" d="M473.941 129.802V159.462" stroke="white" stroke-width="0.563674" stroke-miterlimit="10" stroke-linecap="round"/>
<path opacity="0.29" d="M479.091 129.802V159.462" stroke="white" stroke-width="0.563674" stroke-miterlimit="10" stroke-linecap="round"/>
<path opacity="0.29" d="M484.251 129.802V159.462" stroke="white" stroke-width="0.563674" stroke-miterlimit="10" stroke-linecap="round"/>
<path opacity="0.29" d="M489.411 129.802V159.462" stroke="white" stroke-width="0.563674" stroke-miterlimit="10" stroke-linecap="round"/>
</g>
<path d="M427.454 126.133H489.411" stroke="white" stroke-width="0.978453" stroke-miterlimit="10" stroke-linecap="round"/>
<path d="M486.165 120.333L489.411 123.584" stroke="white" stroke-width="0.978453" stroke-miterlimit="10" stroke-linecap="round"/>
<path d="M489.411 120.333L486.165 123.584" stroke="white" stroke-width="0.978453" stroke-miterlimit="10" stroke-linecap="round"/>
<path d="M483.27 120.333H480.646C480.474 120.333 480.335 120.473 480.335 120.645V123.272C480.335 123.444 480.474 123.584 480.646 123.584H483.27C483.441 123.584 483.581 123.444 483.581 123.272V120.645C483.581 120.473 483.441 120.333 483.27 120.333Z" stroke="white" stroke-width="0.978453" stroke-miterlimit="10" stroke-linecap="round"/>
<path d="M474.31 123.584H477.555" stroke="white" stroke-width="0.978453" stroke-miterlimit="10" stroke-linecap="round"/>
<path d="M427.474 136.234C427.474 136.234 432.983 130.298 440.64 132.487C448.297 134.677 450.571 144.602 459.793 147.775C465.895 149.867 471.531 144.758 479.14 144.69C486.185 144.622 489.43 151.219 489.43 151.219" stroke="white" stroke-width="0.978453" stroke-miterlimit="10" stroke-linecap="round"/>
<path d="M429.028 136.234C429.03 136.531 428.944 136.821 428.781 137.069C428.617 137.317 428.384 137.51 428.111 137.625C427.838 137.74 427.537 137.771 427.246 137.715C426.955 137.658 426.687 137.516 426.477 137.307C426.267 137.098 426.123 136.831 426.065 136.54C426.006 136.249 426.035 135.947 426.148 135.672C426.261 135.398 426.453 135.163 426.699 134.998C426.946 134.833 427.235 134.745 427.532 134.745C427.927 134.745 428.306 134.902 428.586 135.181C428.867 135.46 429.025 135.838 429.028 136.234Z" fill="white"/>
<path d="M459.919 147.182C459.919 147.477 459.832 147.764 459.668 148.009C459.505 148.254 459.273 148.445 459.001 148.558C458.729 148.67 458.43 148.7 458.142 148.642C457.854 148.585 457.589 148.443 457.381 148.235C457.173 148.027 457.031 147.761 456.974 147.473C456.917 147.184 456.946 146.884 457.058 146.612C457.171 146.34 457.362 146.108 457.606 145.944C457.851 145.781 458.138 145.693 458.432 145.693C458.826 145.696 459.202 145.854 459.481 146.132C459.759 146.411 459.916 146.788 459.919 147.182Z" fill="white"/>
<path d="M490.897 151.239C490.897 151.534 490.81 151.822 490.647 152.066C490.483 152.311 490.251 152.502 489.979 152.615C489.708 152.728 489.409 152.757 489.12 152.7C488.832 152.642 488.567 152.5 488.359 152.292C488.151 152.084 488.01 151.819 487.952 151.53C487.895 151.241 487.924 150.942 488.037 150.67C488.15 150.398 488.34 150.165 488.585 150.001C488.829 149.838 489.116 149.75 489.411 149.75C489.804 149.753 490.181 149.911 490.459 150.189C490.737 150.468 490.895 150.845 490.897 151.239Z" fill="white"/>
<path d="M119.304 189.647H70.7186C69.4481 189.647 68.2296 190.152 67.3312 191.052C66.4328 191.952 65.9281 193.172 65.9281 194.444V207.27C65.9204 207.904 66.0379 208.533 66.2739 209.121C66.5098 209.709 66.8596 210.244 67.303 210.696C67.7464 211.149 68.2748 211.509 68.8576 211.756C69.4405 212.002 70.0663 212.132 70.6992 212.135H108.411L115.369 219.103V212.135H119.256C119.895 212.142 120.529 212.02 121.121 211.778C121.713 211.536 122.251 211.177 122.702 210.724C123.154 210.271 123.511 209.732 123.752 209.139C123.992 208.546 124.112 207.91 124.105 207.27V194.444C124.102 193.171 123.595 191.951 122.695 191.052C121.795 190.152 120.576 189.647 119.304 189.647Z" fill="#9DBEED"/>
<path d="M73.167 195.758H110.422" stroke="white" stroke-width="1.40387" stroke-miterlimit="10" stroke-linecap="round"/>
<path d="M73.167 200.867H116.194" stroke="white" stroke-width="1.40387" stroke-miterlimit="10" stroke-linecap="round"/>
<path d="M73.167 205.967H88.5978" stroke="white" stroke-width="1.40387" stroke-miterlimit="10" stroke-linecap="round"/>
<g style="mix-blend-mode:multiply" opacity="0.63">
<path d="M116.399 140.321V125.627H104.456V140.321H98.8105L110.423 156.036L122.034 140.321H116.399Z" fill="#A1A1E7"/>
</g>
<g style="mix-blend-mode:multiply">
<path d="M94.0392 76.8467V62.1626H82.0969V76.8467H76.4609L88.0729 92.5623L99.6849 76.8467H94.0392Z" fill="#A1A1E7"/>
</g>
<g style="mix-blend-mode:multiply">
<path d="M493.326 58.7554V44.0615H481.384V58.7554H475.738L487.35 74.4709L498.962 58.7554H493.326Z" fill="#A1A1E7"/>
</g>
<path d="M246.191 33.7278V11.5703H228.175V33.7278H219.673L237.183 57.4326L254.703 33.7278H246.191Z" fill="white"/>
<path d="M53.0337 179.167V157.01H35.0181V179.167H26.5156L44.0259 202.872L61.5459 179.167H53.0337Z" fill="white"/>
<g style="mix-blend-mode:multiply" opacity="0.63">
<path d="M569.722 108.696V86.5381H551.706V108.696H543.194L560.714 132.4L578.225 108.696H569.722Z" fill="#A1A1E7"/>
</g>
<path d="M53.7912 116.957V113.24H52.2365C51.9908 111.943 51.4814 110.711 50.74 109.62L51.8381 108.52L49.2144 105.893L48.1164 107.041C47.0267 106.307 45.8007 105.801 44.5113 105.552V103.995H40.7994V105.552C39.5052 105.795 38.2747 106.301 37.1846 107.041L36.0963 105.941L33.4727 108.569L34.561 109.668C33.8257 110.762 33.3199 111.993 33.0743 113.288H31.5195V117.005H33.0743C33.3227 118.297 33.8283 119.524 34.561 120.616L33.4727 121.637L36.0963 124.265L37.1846 123.165C38.2756 123.903 39.5057 124.41 40.7994 124.654V126.211H44.5113V124.654C45.802 124.41 47.0289 123.903 48.1164 123.165L49.2144 124.265L51.8381 121.637L50.74 120.567C51.4797 119.479 51.989 118.25 52.2365 116.957H53.7912ZM42.6748 121.307C41.4486 121.309 40.2495 120.946 39.2289 120.266C38.2083 119.585 37.4122 118.617 36.9412 117.483C36.4702 116.349 36.3455 115.101 36.5828 113.897C36.8201 112.692 37.4088 111.585 38.2745 110.715C39.1402 109.845 40.2439 109.252 41.4461 109.011C42.6483 108.77 43.895 108.891 45.0286 109.359C46.1621 109.827 47.1316 110.621 47.8144 111.641C48.4972 112.661 48.8627 113.861 48.8646 115.088C48.8659 115.904 48.7068 116.711 48.3964 117.465C48.086 118.219 47.6305 118.904 47.0557 119.481C46.4809 120.059 45.7982 120.517 45.0465 120.83C44.2948 121.143 43.4889 121.305 42.6748 121.307Z" fill="white"/>
<path d="M65.3738 126.503V124.021H64.334C64.1751 123.157 63.8446 122.333 63.3623 121.598L64.0911 120.869L62.3323 119.107L61.6035 119.837C60.8698 119.355 60.0471 119.024 59.1839 118.864V117.842H56.6769V118.874C55.8167 119.033 54.9973 119.364 54.2671 119.847L53.5286 119.117L51.7698 120.878L52.5083 121.608C52.0264 122.343 51.696 123.167 51.5366 124.031H50.4482V126.503H51.488C51.6475 127.367 51.9778 128.191 52.4597 128.926L51.7212 129.665L53.48 131.417L54.2185 130.687C54.9473 131.172 55.7673 131.503 56.6283 131.66V132.711H59.1937V131.66C60.0582 131.505 60.8818 131.174 61.6132 130.687L62.342 131.417L64.1008 129.665L63.3623 128.926C63.8482 128.193 64.1789 127.369 64.334 126.503H65.3738ZM57.9207 129.422C57.1005 129.414 56.301 129.164 55.6232 128.701C54.9454 128.238 54.4197 127.585 54.1125 126.824C53.8053 126.062 53.7304 125.226 53.8972 124.422C54.0641 123.618 54.4652 122.881 55.0499 122.305C55.6346 121.729 56.3766 121.34 57.1823 121.186C57.988 121.032 58.8212 121.12 59.5765 121.441C60.3319 121.761 60.9756 122.298 61.4263 122.984C61.877 123.67 62.1145 124.475 62.1088 125.296C62.0985 126.399 61.6518 127.453 60.8667 128.226C60.0815 129 59.0221 129.43 57.9207 129.422Z" fill="white"/>
<path d="M304.795 32.5209C305.147 34.3501 305.868 36.0883 306.913 37.6297L305.358 39.1867L309.07 42.9039L310.625 41.3567C312.166 42.3968 313.902 43.1149 315.726 43.4683V45.6675H320.974V43.4683C322.802 43.1162 324.54 42.398 326.085 41.3567L327.64 42.9039L331.352 39.1867L329.797 37.6297C330.844 36.0898 331.565 34.351 331.915 32.5209H334.111V27.2467H331.915C331.565 25.4139 330.844 23.6721 329.797 22.1282L331.352 20.581L327.64 16.854L326.085 18.4109C324.543 17.3626 322.804 16.6407 320.974 16.2896V14.1001H315.726V16.2993C313.896 16.6505 312.157 17.3723 310.615 18.4207L309.061 16.8637L305.349 20.5907L306.894 22.1379C305.858 23.6824 305.145 25.4199 304.795 27.2467H302.599V32.5112L304.795 32.5209ZM309.585 29.8838C309.585 28.1517 310.098 26.4584 311.059 25.0182C312.02 23.5779 313.386 22.4554 314.984 21.7925C316.582 21.1297 318.34 20.9562 320.037 21.2942C321.733 21.6321 323.292 22.4662 324.515 23.691C325.738 24.9158 326.571 26.4764 326.908 28.1752C327.245 29.8741 327.072 31.635 326.41 33.2353C325.748 34.8356 324.628 36.2034 323.189 37.1657C321.751 38.1281 320.06 38.6417 318.331 38.6417C316.011 38.6417 313.787 37.719 312.147 36.0766C310.507 34.4342 309.585 32.2065 309.585 29.8838Z" fill="white"/>
<path d="M287.664 46.0958C287.9 47.3221 288.382 48.4875 289.082 49.5211L288.043 50.6012L290.53 53.0924L291.57 52.0512C292.601 52.745 293.761 53.2247 294.981 53.4622V54.9413H298.498V53.4232C299.723 53.192 300.887 52.7118 301.919 52.0122L302.958 53.0535L305.446 50.6012L304.406 49.56C305.106 48.5265 305.589 47.361 305.825 46.1347H307.292V42.5732H305.825C305.587 41.3474 305.105 40.1823 304.406 39.1478L305.446 38.1066L302.958 35.6155L301.919 36.6567C300.887 35.9572 299.723 35.477 298.498 35.2457V33.7666H294.981V35.2457C293.757 35.4804 292.594 35.9603 291.56 36.6567L290.53 35.6155L288.043 38.1066L289.082 39.1478C288.384 40.1823 287.901 41.3474 287.664 42.5732H286.196V46.0958H287.664ZM290.87 44.3345C290.87 43.1797 291.212 42.0509 291.853 41.0907C292.493 40.1306 293.404 39.3822 294.469 38.9403C295.535 38.4984 296.707 38.3828 297.838 38.6081C298.969 38.8333 300.008 39.3894 300.823 40.206C301.638 41.0225 302.194 42.0628 302.419 43.1954C302.644 44.328 302.528 45.502 302.087 46.5688C301.646 47.6357 300.898 48.5475 299.94 49.1891C298.981 49.8307 297.854 50.1731 296.701 50.1731C295.154 50.1731 293.671 49.5579 292.578 48.463C291.485 47.368 290.87 45.883 290.87 44.3345Z" fill="white"/>
<path d="M592.439 228.741C593.868 219.973 587.929 211.705 579.174 210.274C570.419 208.843 562.163 214.791 560.734 223.558C559.305 232.326 565.244 240.594 573.999 242.025C582.754 243.456 591.01 237.508 592.439 228.741Z" fill="white"/>
<path d="M581.86 232.911C580.717 233.919 579.277 234.523 577.759 234.634V236.103C577.759 236.418 577.634 236.72 577.412 236.942C577.189 237.165 576.888 237.29 576.573 237.29C576.417 237.291 576.262 237.262 576.117 237.203C575.972 237.144 575.84 237.056 575.729 236.946C575.618 236.836 575.53 236.704 575.469 236.56C575.409 236.415 575.378 236.26 575.378 236.103V234.702C574.242 234.649 573.117 234.443 572.036 234.089C571.608 233.939 571.21 233.784 570.84 233.622C570.457 233.446 570.158 233.125 570.011 232.729C569.863 232.333 569.879 231.895 570.053 231.51C570.136 231.32 570.254 231.149 570.403 231.005C570.552 230.862 570.728 230.75 570.92 230.674C571.113 230.599 571.318 230.563 571.524 230.568C571.731 230.573 571.934 230.618 572.123 230.702C572.366 230.809 572.628 230.926 572.891 231.023C573.691 231.321 574.528 231.511 575.378 231.588V227.627C574.407 227.402 573.455 227.1 572.531 226.722C571.775 226.401 571.108 225.9 570.588 225.263C570.041 224.525 569.766 223.621 569.81 222.703C569.803 222.071 569.926 221.444 570.171 220.861C570.417 220.278 570.781 219.753 571.239 219.317C572.39 218.3 573.846 217.694 575.378 217.595V216.154C575.378 215.837 575.504 215.533 575.728 215.308C575.952 215.084 576.256 214.958 576.573 214.958C576.889 214.96 577.19 215.087 577.412 215.312C577.634 215.536 577.759 215.839 577.759 216.154V217.556C578.934 217.628 580.091 217.881 581.189 218.305C581.38 218.384 581.552 218.499 581.697 218.646C581.842 218.792 581.957 218.966 582.034 219.157C582.111 219.349 582.149 219.554 582.146 219.76C582.142 219.966 582.098 220.169 582.015 220.358C581.856 220.748 581.548 221.059 581.161 221.224C580.773 221.388 580.336 221.391 579.945 221.234C579.243 220.959 578.508 220.776 577.759 220.689V224.727C578.718 224.936 579.657 225.226 580.567 225.594C581.326 225.907 581.994 226.405 582.511 227.043C583.057 227.77 583.332 228.665 583.288 229.574C583.295 230.199 583.172 230.819 582.926 231.394C582.68 231.968 582.317 232.485 581.86 232.911ZM574.086 223.492C574.474 223.788 574.917 224.006 575.388 224.134V220.757C574.89 220.849 574.431 221.086 574.066 221.438C573.927 221.581 573.818 221.75 573.745 221.936C573.671 222.121 573.635 222.319 573.639 222.519C573.632 222.703 573.668 222.887 573.744 223.056C573.82 223.225 573.934 223.374 574.076 223.492H574.086ZM579.042 230.877C579.174 230.752 579.281 230.602 579.354 230.434C579.428 230.267 579.467 230.087 579.469 229.904C579.474 229.72 579.437 229.537 579.361 229.368C579.285 229.2 579.173 229.05 579.032 228.931C578.657 228.631 578.228 228.407 577.769 228.27V231.549C578.255 231.455 578.704 231.222 579.061 230.877H579.042Z" fill="#A6CEFF"/>
<path d="M162.904 40.8193C163.995 32.0029 157.742 23.9707 148.938 22.8788C140.134 21.7869 132.113 28.0489 131.023 36.8652C129.933 45.6816 136.186 53.7138 144.989 54.8056C153.793 55.8975 161.814 49.6356 162.904 40.8193Z" fill="white"/>
<path d="M152.284 45.629C151.143 46.6381 149.702 47.2434 148.184 47.3514V48.8208C148.184 49.1356 148.059 49.4376 147.837 49.6603C147.614 49.8829 147.313 50.008 146.998 50.008C146.842 50.0093 146.687 49.9794 146.543 49.9202C146.399 49.861 146.267 49.7736 146.157 49.6631C146.047 49.5526 145.959 49.4213 145.9 49.2766C145.841 49.132 145.811 48.9771 145.813 48.8208V47.4195C144.673 47.3629 143.546 47.1568 142.46 46.8065C142.058 46.6709 141.662 46.515 141.275 46.3394C140.891 46.1634 140.593 45.8424 140.445 45.4465C140.298 45.0507 140.313 44.6124 140.488 44.2278C140.569 44.0384 140.687 43.867 140.835 43.7234C140.982 43.5798 141.157 43.4668 141.348 43.3909C141.54 43.3149 141.744 43.2776 141.95 43.2809C142.156 43.2843 142.359 43.3282 142.548 43.4103C142.791 43.5271 143.053 43.6342 143.315 43.7412C144.119 44.0402 144.959 44.2301 145.813 44.3056V40.3451C144.84 40.1229 143.888 39.8202 142.966 39.4401C142.208 39.1201 141.541 38.6189 141.022 37.9804C140.475 37.2431 140.201 36.3386 140.245 35.4212C140.237 34.7878 140.361 34.1597 140.609 33.5767C140.856 32.9938 141.222 32.4687 141.683 32.0348C142.833 31.0146 144.29 30.4084 145.822 30.3124V28.8625C145.822 28.5476 145.947 28.2456 146.17 28.023C146.392 27.8004 146.694 27.6753 147.008 27.6753C147.322 27.6753 147.624 27.8004 147.846 28.023C148.069 28.2456 148.193 28.5476 148.193 28.8625V30.2637C149.371 30.3451 150.53 30.6009 151.633 31.0228C151.826 31.1005 152.001 31.216 152.148 31.3624C152.295 31.5089 152.412 31.6835 152.49 31.8757C152.569 32.068 152.609 32.2741 152.607 32.4819C152.605 32.6897 152.561 32.895 152.479 33.0857C152.319 33.4735 152.014 33.7828 151.628 33.9467C151.243 34.1106 150.808 34.1159 150.419 33.9615C149.713 33.6878 148.975 33.5047 148.223 33.4166V37.455C149.181 37.6636 150.121 37.9534 151.031 38.321C151.79 38.634 152.458 39.1325 152.974 39.7709C153.524 40.4962 153.803 41.3914 153.761 42.301C153.761 42.9282 153.629 43.5483 153.374 44.1215C153.12 44.6946 152.749 45.2082 152.284 45.629ZM144.511 36.2094C144.902 36.5075 145.347 36.7257 145.822 36.8516V33.475C145.321 33.5652 144.858 33.8023 144.491 34.1561C144.212 34.4458 144.059 34.8339 144.064 35.2363C144.058 35.4211 144.094 35.6048 144.17 35.7734C144.246 35.942 144.359 36.0911 144.501 36.2094H144.511ZM149.476 43.5952C149.741 43.3397 149.894 42.9901 149.904 42.6221C149.907 42.4367 149.868 42.253 149.791 42.0846C149.714 41.9161 149.599 41.7673 149.457 41.649C149.082 41.349 148.653 41.1243 148.193 40.9873V44.2667C148.672 44.165 149.112 43.9326 149.466 43.5952H149.476Z" fill="#A6CEFF"/>
<g style="mix-blend-mode:multiply" opacity="0.63">
<path d="M416.124 24.5223C412.979 20.4976 408.6 17.6205 403.662 16.3344C398.723 15.0484 393.499 15.4249 388.795 17.4059C384.092 19.3869 380.169 22.8624 377.633 27.2965C375.096 31.7306 374.087 36.8771 374.76 41.9426C375.433 47.0081 377.751 51.7112 381.357 55.3269C384.963 58.9425 389.657 61.27 394.714 61.9503C399.771 62.6306 404.912 61.6261 409.343 59.0917C413.774 56.5572 417.249 52.6334 419.233 47.9254C420.828 44.106 421.381 39.9305 420.835 35.8267C420.288 31.723 418.663 27.8384 416.124 24.571V24.5223ZM397.768 52.6644C395.48 52.6668 393.228 52.0987 391.214 51.0115C389.201 49.9242 387.489 48.3519 386.234 46.4366C384.74 44.1853 383.948 41.5397 383.96 38.8366C383.96 36.1018 384.77 33.4283 386.287 31.1543C387.804 28.8804 389.961 27.108 392.484 26.0614C395.007 25.0149 397.783 24.741 400.462 25.2746C403.14 25.8081 405.601 27.1251 407.532 29.0589C409.463 30.9928 410.778 33.4566 411.311 36.139C411.844 38.8213 411.57 41.6016 410.525 44.1283C409.48 46.655 407.71 48.8146 405.439 50.334C403.169 51.8534 400.499 52.6644 397.768 52.6644Z" fill="#A1A1E7"/>
</g>
<path d="M416.123 24.5224L408.554 30.2248C407.263 28.6005 405.623 27.2895 403.755 26.3896C401.887 25.4898 399.84 25.0244 397.768 25.0284V15.5699C401.306 15.5617 404.8 16.3642 407.981 17.9158C411.163 19.4675 413.948 21.7273 416.123 24.5224Z" fill="white"/>
<g style="mix-blend-mode:multiply" opacity="0.63">
<path d="M419.234 47.915C417.597 51.7876 414.946 55.1457 411.56 57.6346C408.175 60.1235 404.182 61.6509 400.002 62.0556C395.822 62.4602 391.611 61.7271 387.812 59.9335C384.014 58.14 380.77 55.3527 378.422 51.8658L386.196 46.4261C387.578 48.526 389.506 50.2084 391.772 51.2919C394.039 52.3753 396.557 52.8188 399.057 52.5745C401.557 52.3302 403.942 51.4074 405.957 49.9055C407.971 48.4036 409.538 46.3797 410.488 44.0518L419.234 47.915Z" fill="#A1A1E7"/>
</g>
<path d="M439.853 334.776H452.951V274.911H439.853V334.776Z" fill="#3F49A5"/>
<path d="M418.806 334.767H431.904V284.497H418.806V334.767Z" fill="#3F49A5"/>
<path d="M460.706 334.767H473.805V292.69H460.706V334.767Z" fill="#3F49A5"/>
<path d="M397.769 334.776H410.867V266.941H397.769V334.776Z" fill="#3F49A5"/>
<path d="M467.255 284.506L446.402 264.363L425.365 276.955L404.317 251.82" stroke="#3F49A5" stroke-width="1.53149" stroke-miterlimit="10"/>
<path d="M464.923 284.418C464.923 284.87 465.057 285.313 465.308 285.689C465.56 286.065 465.917 286.358 466.335 286.531C466.753 286.704 467.212 286.749 467.655 286.66C468.099 286.571 468.506 286.352 468.825 286.031C469.144 285.71 469.36 285.302 469.447 284.858C469.534 284.414 469.488 283.953 469.313 283.536C469.139 283.118 468.845 282.762 468.468 282.512C468.091 282.261 467.649 282.129 467.197 282.131C466.897 282.131 466.601 282.19 466.324 282.305C466.048 282.42 465.797 282.589 465.585 282.801C465.374 283.014 465.207 283.266 465.093 283.543C464.979 283.821 464.922 284.118 464.923 284.418Z" fill="#3F49A5"/>
<path d="M444.129 264.684C444.127 265.137 444.26 265.58 444.51 265.958C444.76 266.335 445.116 266.63 445.534 266.804C445.952 266.979 446.412 267.025 446.856 266.937C447.299 266.849 447.707 266.631 448.027 266.311C448.347 265.99 448.565 265.582 448.653 265.137C448.74 264.693 448.694 264.232 448.52 263.814C448.346 263.396 448.052 263.039 447.675 262.788C447.298 262.538 446.855 262.405 446.403 262.407C445.8 262.409 445.224 262.65 444.798 263.077C444.372 263.503 444.131 264.081 444.129 264.684Z" fill="#3F49A5"/>
<path d="M423.081 276.663C423.081 277.115 423.215 277.557 423.466 277.933C423.717 278.309 424.073 278.602 424.491 278.775C424.908 278.949 425.367 278.994 425.81 278.906C426.253 278.817 426.66 278.6 426.979 278.28C427.299 277.96 427.516 277.552 427.604 277.109C427.692 276.665 427.647 276.206 427.474 275.788C427.302 275.37 427.009 275.013 426.633 274.761C426.258 274.51 425.816 274.376 425.365 274.376C425.065 274.376 424.768 274.435 424.491 274.55C424.214 274.665 423.962 274.833 423.75 275.046C423.538 275.258 423.37 275.51 423.255 275.788C423.14 276.065 423.081 276.362 423.081 276.663Z" fill="#3F49A5"/>
<path d="M402.033 251.819C402.031 252.272 402.164 252.715 402.413 253.092C402.663 253.47 403.019 253.764 403.436 253.939C403.853 254.113 404.313 254.16 404.756 254.073C405.2 253.986 405.608 253.769 405.928 253.449C406.248 253.13 406.467 252.722 406.556 252.279C406.645 251.835 406.6 251.374 406.427 250.956C406.255 250.537 405.962 250.18 405.586 249.928C405.211 249.676 404.769 249.542 404.317 249.542C403.713 249.542 403.133 249.782 402.705 250.208C402.277 250.635 402.036 251.214 402.033 251.819Z" fill="#3F49A5"/>
<path d="M1.62012 334.446H602.868" stroke="#141B5E" stroke-width="1.5953" stroke-miterlimit="10" stroke-linecap="round"/>
<path d="M51.5654 351.271H229.447" stroke="#141B5E" stroke-width="1.5953" stroke-miterlimit="10" stroke-linecap="round"/>
<path d="M470.996 351.271H570.927" stroke="#141B5E" stroke-width="1.5953" stroke-miterlimit="10" stroke-linecap="round"/>
<path d="M206.895 305.291C203.923 305.285 200.979 305.867 198.231 307.003C195.484 308.139 192.987 309.806 190.884 311.91C188.781 314.013 187.113 316.511 185.975 319.261C184.838 322.011 184.253 324.958 184.254 327.935C184.254 330.386 184.651 332.821 185.43 335.145C185.574 335.574 185.595 336.036 185.491 336.476C185.386 336.917 185.159 337.319 184.837 337.636L184.39 338.094C183.385 339.102 182.757 340.426 182.61 341.843C182.463 343.26 182.807 344.685 183.584 345.879C184.155 346.73 184.806 347.525 185.527 348.253C186.251 348.978 187.045 349.63 187.898 350.199C188.911 350.904 190.114 351.284 191.347 351.289C192.167 351.289 192.978 351.128 193.735 350.814C194.492 350.5 195.18 350.04 195.759 349.46C196.097 349.121 196.527 348.889 196.995 348.794C197.464 348.699 197.95 348.744 198.392 348.924C201.824 350.32 205.546 350.85 209.23 350.467C212.914 350.083 216.447 348.799 219.519 346.726C222.59 344.654 225.106 341.857 226.844 338.582C228.583 335.306 229.49 331.653 229.487 327.944C229.49 324.971 228.907 322.027 227.773 319.279C226.639 316.531 224.976 314.034 222.878 311.93C220.78 309.827 218.288 308.157 215.546 307.018C212.803 305.879 209.864 305.292 206.895 305.291ZM193.689 347.397C193.152 347.937 192.445 348.276 191.688 348.356C190.93 348.435 190.168 348.251 189.53 347.835C188.832 347.364 188.181 346.826 187.587 346.229C186.985 345.637 186.444 344.984 185.974 344.283C185.56 343.644 185.378 342.882 185.459 342.126C185.541 341.369 185.88 340.663 186.421 340.128L187.276 339.261C189.013 342.26 191.413 344.82 194.292 346.745L193.689 347.397Z" fill="#333E7F"/>
<g style="mix-blend-mode:screen" opacity="0.2">
<path d="M206.808 327.549C213.715 326.73 218.777 321.523 218.115 315.919C217.452 310.316 211.316 306.436 204.409 307.255C197.503 308.074 192.44 313.28 193.103 318.884C193.765 324.488 199.901 328.367 206.808 327.549Z" fill="#4B5AB2"/>
</g>
<path d="M498.409 335.438V345.451C500.506 345.94 502.687 345.94 504.784 345.451L505.26 334.28" fill="#FE9393"/>
<path d="M504.851 344.088C504.851 344.088 503.986 344.983 500.857 344.876C500.313 344.456 499.675 344.175 498.997 344.058C498.32 343.941 497.624 343.991 496.971 344.205C496.971 344.205 493.832 346.949 491.607 347.397C489.381 347.844 486.748 348.117 486.175 349.1C486 349.328 485.877 349.592 485.814 349.872C485.75 350.152 485.747 350.443 485.806 350.725C485.806 350.725 485.65 351.133 488.361 351.25C491.072 351.367 499.789 350.987 501.295 351.065C502.793 351.199 504.303 351.134 505.784 350.871C506.756 350.569 506.668 345.83 504.851 344.088Z" fill="#2034AA"/>
<path d="M543.885 333.58L546.742 342.854C548.828 342.705 550.853 342.08 552.659 341.024L549.909 330.515" fill="#FE9393"/>
<path d="M556.186 344.877C555.048 345.792 553.789 346.546 552.445 347.115C551.707 347.446 549.132 348.945 546.615 350.414C545.606 350.971 544.473 351.266 543.321 351.27H539.172C538.394 351.27 538.112 350.745 538.132 350.404C538.21 349.918 538.45 349.472 538.814 349.139C539.177 348.807 539.642 348.608 540.134 348.575C540.466 348.521 540.791 348.433 541.105 348.312C542.456 347.76 543.594 346.788 544.351 345.539C545.118 344.313 545.653 343.242 545.653 343.242C546.114 342.765 546.684 342.406 547.313 342.196C547.942 341.986 548.613 341.931 549.268 342.035C551.988 340.683 552.309 339.525 552.309 339.525C554.602 340.177 556.857 344.186 556.186 344.877Z" fill="#2034AA"/>
<path d="M517.901 248.89C517.83 250.292 517.68 251.689 517.454 253.075C517.056 255.508 516.035 259.351 514.811 263.643C512.693 271.029 509.952 279.718 508.359 284.749C514.364 297.069 506.221 337.822 505.152 341.189C502.912 341.82 500.53 341.721 498.35 340.907C497.077 322.107 493.929 283.805 493.948 282.891C494.784 232.289 497.281 224.018 498.642 223.483C501.644 222.364 510.594 219.96 514.111 225.079C517.775 230.479 518.358 241.67 517.901 248.89Z" fill="#2034AA"/>
<path d="M517.901 248.891C517.83 250.293 517.68 251.69 517.454 253.075C517.056 255.508 516.035 259.352 514.811 263.643C514.442 257.552 513.732 240.639 513.732 240.639L517.901 248.891Z" fill="#102772"/>
<path d="M551.853 336.692C549.902 338.158 547.48 338.851 545.051 338.639C545.595 339.388 527.667 299.14 524.762 290.957C524.587 290.431 523.839 288.251 523.615 287.512C522.235 283.23 517.785 261.413 515.647 252.879L509.603 225.477C509.603 225.477 501.353 226.596 507.261 226.255C514.763 225.807 524.12 222.061 524.12 222.061C536.617 232.765 537.724 245.036 537.258 251.176C537.054 253.658 537.617 278.287 537.977 284.417C547.548 297.613 549.288 312.141 550.24 323.507C550.658 328.265 551.62 334.668 551.853 336.692Z" fill="#2034AA"/>
<path d="M500.818 170.03C502.216 168.663 503.866 167.582 505.677 166.848C508.213 166.429 514.724 166.848 519.281 168.074C524.548 169.446 530.669 170.604 531.573 172.599C532.477 174.594 535.46 185.025 534.197 191.74C533.633 194.756 530.796 207.436 529.708 216.379C528.969 222.392 529.882 226.11 529.581 226.431C527.89 228.377 516.405 229.963 510.983 229.963C506.124 229.963 497.651 228.99 496.718 227.53C496.99 224.611 497.689 222.305 497.864 219.892C498.039 217.478 498.924 172.239 500.818 170.03Z" fill="url(#paint0_linear_368_2150)"/>
<path d="M453.515 190.592L449.21 189.56C448.317 188.962 447.52 188.23 446.849 187.39C446.333 186.854 445.701 186.444 445.002 186.191C444.303 185.938 443.555 185.849 442.816 185.93C442.369 185.93 442.33 186.514 443.118 187.049C443.642 187.409 444.565 187.244 444.876 188.47C445.012 189.025 443.458 189.044 442.661 188.772C441.864 188.499 439.143 187.205 438.453 186.913C437.763 186.621 437.171 187.069 438.988 188.402C439.913 189.094 440.888 189.718 441.903 190.27C442.084 190.664 442.299 191.042 442.544 191.399C442.632 191.495 442.742 191.569 442.865 191.613C443.032 191.985 443.233 192.34 443.467 192.674C443.506 192.72 443.552 192.759 443.603 192.791C443.769 193.131 443.924 193.472 444.07 193.764C444.624 194.893 446.81 194.571 447.762 194.455C449.469 194.583 451.162 194.85 452.825 195.253L453.515 190.592Z" fill="#FE9393"/>
<path d="M443.02 190.232C442.082 190.16 441.157 189.963 440.27 189.648C438.657 189.113 436.607 187.965 436.189 187.916C435.771 187.867 435.723 188.412 436.189 188.831C436.987 189.431 437.84 189.956 438.735 190.398C440.306 190.963 441.905 191.447 443.526 191.847" fill="#FE9393"/>
<path d="M443.613 191.361C442.673 191.4 441.731 191.312 440.815 191.098C439.153 190.748 436.986 189.843 436.558 189.843C436.131 189.843 436.15 190.388 436.665 190.748C437.525 191.259 438.433 191.682 439.376 192.013C440.348 192.363 444.293 193.346 444.293 193.346" fill="#FE9393"/>
<path d="M444.964 193.024C444.027 193.064 443.089 192.979 442.175 192.771C440.513 192.411 438.337 191.506 437.919 191.506C437.501 191.506 437.511 192.051 438.016 192.411C438.877 192.921 439.785 193.348 440.727 193.686C442.35 194.068 443.991 194.367 445.644 194.581" fill="#FE9393"/>
<path d="M500.818 170.03C500.818 170.03 481.976 186.573 477.06 192.801C477.06 192.801 479.158 197.287 482.89 199.272C482.89 199.272 494.016 193.998 499.778 189.989" fill="url(#paint1_linear_368_2150)"/>
<path d="M477.526 192.227L452.077 189.989L451.105 195.263C451.105 195.263 471.269 203.593 478.449 203.135C485.63 202.678 501.771 189.434 501.771 189.434L477.526 192.227Z" fill="url(#paint2_linear_368_2150)"/>
<path d="M533.846 171.996C529.911 169.787 521.418 168.619 521.418 168.619L528.424 185.386C530.62 191.224 545.244 203.135 545.244 203.135L557.828 198.075C555.506 191.808 543.262 177.289 533.846 171.996Z" fill="url(#paint3_linear_368_2150)"/>
<path d="M587.806 170.059C587.407 169.631 586.834 170.059 586.572 170.711L586.455 171.051C585.804 171.051 585.192 171.81 585.056 172.287C584.92 172.764 583.433 176.335 582.568 176.647C581.703 176.958 579.993 177.221 579.974 176.647C579.954 176.073 580.946 174.506 581.431 173.611C581.917 172.715 581.431 171.538 580.975 172.268C580.518 172.998 578.468 174.915 577.69 175.917C576.913 176.919 576.641 178.836 576.184 179.391C575.529 180.051 574.838 180.675 574.114 181.259L576.524 184.801L576.135 185.191C576.135 185.191 583.093 180.841 584.347 179.829C585.377 178.564 586.455 177.299 586.572 177.104C586.766 176.705 588.146 170.487 587.806 170.059Z" fill="#FE9393"/>
<path d="M576.603 183.303C576.006 182.251 575.234 181.31 574.319 180.52C574.319 180.52 550.998 191.964 545.313 197.063C545.313 197.063 551.678 206.239 554.574 205.178C562.114 202.405 577.399 185.862 577.399 185.862C577.314 184.963 577.043 184.092 576.603 183.303Z" fill="url(#paint4_linear_368_2150)"/>
<path d="M528.143 151.435C528.143 151.435 527.755 153.206 527.172 155.794C526.87 157.263 526.511 158.986 526.2 160.806C525.5 164.503 525.228 168.639 524.839 171.568C523.971 172.366 522.933 172.956 521.803 173.293C520.674 173.631 519.482 173.706 518.319 173.514C515.754 173.067 514.432 169.709 514.51 169.116C514.646 168.873 514.782 168.649 514.821 168.561C515.494 167.492 516.001 166.327 516.327 165.107C516.327 164.99 516.405 164.854 516.444 164.727C516.578 164.175 516.682 163.617 516.755 163.053C516.938 161.908 516.978 160.744 516.871 159.589L517.454 159.151L527.084 152.242L528.143 151.435Z" fill="#FE9393"/>
<path d="M523.45 160.902C522.031 162.78 518.854 166.516 514.831 168.502C515.506 167.434 516.014 166.269 516.337 165.047C515.771 165.195 515.192 165.283 514.607 165.31C514.656 164.882 514.695 164.434 514.705 163.977L515.346 163.626L516.765 163.004L524.276 159.744C524.276 159.744 523.994 160.191 523.45 160.902Z" fill="#E15F60"/>
<path d="M509.437 144.993C509.437 144.993 507.62 149.362 510.409 152.018L512.09 145.304L509.437 144.993Z" fill="#3F49A5"/>
<path d="M525.053 159.084C524.556 159.722 524.02 160.329 523.45 160.903C522.501 161.844 521.448 162.673 520.311 163.375C519.092 164.157 517.748 164.723 516.337 165.049C515.771 165.197 515.191 165.285 514.607 165.311C513.247 165.419 511.887 165.095 510.72 164.387C508.554 160.845 508.874 155.25 509.593 151.036C509.875 149.323 510.235 147.844 510.497 146.813C510.759 145.781 510.925 145.314 510.925 145.314C510.925 145.314 510.925 145.246 510.925 145.197C512.168 139.768 519.485 139.894 524.383 143.203C524.668 143.396 524.944 143.604 525.209 143.825C526.558 144.857 527.616 146.222 528.279 147.786C529.348 150.423 528.493 153.333 527.181 155.785C527.104 155.911 527.036 156.048 526.967 156.174C526.404 157.191 525.764 158.163 525.053 159.084Z" fill="#FE9393"/>
<path d="M526.064 142.87C526.064 142.87 519.709 151.803 509.924 146.529C507.067 144.992 506.853 135.008 509.331 137.11C514.413 141.42 518.883 133.84 523.819 136.681C524.847 137.297 525.631 138.249 526.04 139.376C526.449 140.504 526.457 141.738 526.064 142.87Z" fill="#3F49A5"/>
<path d="M524.033 143.951C524.033 143.951 519.777 161.856 523.809 153.682C523.809 153.682 524.83 151.415 526.501 151.736C528.172 152.057 526.55 158.178 526.209 160.796C526.209 160.796 530.174 158.217 531.943 150.092C533.711 141.966 528.367 138.346 525.141 141.762L524.033 143.951Z" fill="#3F49A5"/>
<path d="M526.122 153.012C526.122 153.012 525.15 153.099 524.898 154.822C524.645 156.544 525.714 156.943 525.976 156.038C526.239 155.133 525.422 154.549 525.218 154.919C525.194 154.55 525.263 154.181 525.422 153.847C525.58 153.513 525.821 153.226 526.122 153.012Z" fill="#E15F60"/>
<path d="M545.245 203.135C545.245 203.135 549.628 206.386 551.474 206.609C554.389 206.96 559.646 202.24 559.646 202.24L549.579 196.742L545.245 203.135Z" fill="#435FEA"/>
<path d="M185.575 254.962L187.626 250.359L191.425 251.254L190.443 255.477" fill="#FE9393"/>
<path d="M191.502 255.157C191.502 255.157 188.024 286.452 175.576 287.163C172.777 287.328 169.017 281.908 165.771 276.021C165.14 274.892 164.547 273.753 163.974 272.615C161.058 266.854 158.882 261.58 158.882 261.58L176.771 256.987C177.373 260.743 177.698 264.539 177.743 268.343L185.973 253.746C187.907 253.733 189.811 254.219 191.502 255.157Z" fill="white"/>
<path opacity="0.67" d="M174.4 266.377C173.085 268.724 171.45 270.876 169.542 272.771C168.57 273.685 166.578 275.408 165.81 276.021C165.179 274.892 164.586 273.754 164.013 272.615L168.871 268.314L174.4 266.377Z" fill="#D0E4EF"/>
<path d="M96.7319 341.316L87.3743 340.693C87.0426 338.692 87.1756 336.64 87.763 334.699L98.2672 334.952" fill="#FE9393"/>
<path d="M83.3509 332.227C82.7434 333.508 82.315 334.867 82.0779 336.266C81.9322 337.034 81.1062 339.798 80.29 342.513C79.9829 343.588 79.9561 344.724 80.2122 345.812L81.1839 349.704C81.1951 349.827 81.232 349.946 81.2924 350.054C81.3528 350.162 81.4353 350.256 81.5344 350.329C81.6335 350.403 81.747 350.454 81.8675 350.481C81.988 350.507 82.1127 350.508 82.2334 350.483C82.6664 350.301 83.0255 349.978 83.2529 349.567C83.4803 349.155 83.5628 348.679 83.4869 348.215C83.4581 347.908 83.4581 347.598 83.4869 347.291C83.7175 345.886 84.3998 344.594 85.4303 343.613C86.402 342.639 87.3057 341.861 87.3057 341.861C87.6496 341.318 87.8583 340.701 87.9141 340.061C87.9699 339.421 87.8712 338.777 87.6264 338.183C88.2483 335.312 89.3172 334.748 89.3172 334.748C88.1317 332.675 83.8464 331.449 83.3509 332.227Z" fill="#1C328E"/>
<path d="M127.03 341.316L117.672 340.693C117.341 338.691 117.478 336.639 118.071 334.699L128.565 334.952" fill="#FE9393"/>
<path d="M113.61 332.227C113.011 333.511 112.586 334.869 112.347 336.266C112.191 337.035 111.375 339.798 110.549 342.513C110.247 343.589 110.22 344.723 110.471 345.812L111.443 349.704C111.618 350.434 112.172 350.58 112.483 350.483C112.925 350.302 113.292 349.976 113.525 349.559C113.758 349.142 113.843 348.658 113.766 348.186C113.737 347.879 113.737 347.569 113.766 347.262C113.981 345.864 114.643 344.574 115.651 343.584C116.622 342.61 117.526 341.832 117.526 341.832C117.87 341.29 118.079 340.672 118.134 340.032C118.19 339.392 118.092 338.748 117.847 338.154C118.508 335.283 119.538 334.719 119.538 334.719C118.469 332.675 114.145 331.449 113.61 332.227Z" fill="#1C328E"/>
<path d="M169.726 350.434C163.002 352.166 151.487 348.575 147.115 347.417C146.561 347.271 146.143 347.164 145.813 347.106L135.726 345.004C127.729 343.349 117.847 341.316 117.555 341.316C116.834 339.08 116.955 336.657 117.895 334.504C119.839 334.27 126.058 333.745 130.625 333.054C131.713 332.889 132.84 332.723 133.997 332.577C135.648 332.353 137.359 332.149 139.118 331.974C141.401 331.76 143.762 331.604 146.201 331.575C147.941 331.575 149.699 331.575 151.497 331.682C150.525 330.563 149.67 329.483 148.825 328.48C146.211 325.347 144.17 322.944 143.597 322.379C142.223 320.982 140.953 319.486 139.798 317.903C134.803 311.15 128.361 299.21 130.217 287.056C130.217 287.056 142.188 290.179 147.882 286.472L160.515 309.943C162.05 312.989 164.644 317.815 167.317 322.778C169.26 326.447 174.187 337.112 174.867 342.824C175.127 344.508 174.741 346.228 173.788 347.639C172.835 349.05 171.384 350.049 169.726 350.434Z" fill="#2034AA"/>
<path d="M147.901 342.775C147.983 344.361 147.715 345.946 147.114 347.416C146.56 347.27 146.143 347.163 145.812 347.105L135.726 345.003L134.016 341.743V332.567C135.668 332.343 137.378 332.139 139.137 331.963C141.42 331.749 143.781 331.594 146.22 331.564C147.055 335.255 147.617 339.002 147.901 342.775Z" fill="#1C328E"/>
<path d="M148.816 328.45C146.212 325.327 144.171 322.923 143.588 322.359C142.219 320.957 140.95 319.461 139.789 317.883L139.118 309.991L148.816 328.45Z" fill="#1C328E"/>
<path d="M143.004 350.395C138.806 353.052 92.2323 341.297 91.7075 341.316C90.9859 339.08 91.1069 336.657 92.0476 334.505C93.9911 334.271 100.21 333.746 104.777 333.055C111.756 331.842 118.845 331.388 125.922 331.702C123.162 325.533 120.577 319.869 119.994 318.857C117.011 313.7 108.518 301.623 119.022 285.392C119.022 285.392 127.194 287.445 133.656 285.392L139.613 311.393C140.585 316.201 142.684 325.182 144.404 332.802C144.501 333.317 148.64 346.834 143.004 350.395Z" fill="#2034AA"/>
<path d="M117.944 287.163C117.944 287.163 137.154 291.055 149.194 288.914C151.536 285.505 154.283 282.394 157.376 279.651C163.021 274.727 172.661 270.893 176.344 263.293C180.026 255.693 167.598 233.127 158.629 230.46C145.861 226.724 128.409 250.263 121.86 266.601C116.797 279.203 115.913 283.611 117.944 287.163Z" fill="white"/>
<path d="M185.07 233.865L180.901 235.149L176.101 236.57C172.554 237.543 168.551 238.224 165.723 238.818C165.024 239.737 164.544 240.804 164.319 241.937C164.093 243.07 164.128 244.24 164.421 245.357C165.082 247.839 168.473 248.86 169.046 248.714C169.211 248.588 169.383 248.471 169.561 248.364C170.543 247.609 171.634 247.008 172.797 246.583C172.914 246.525 173.04 246.486 173.157 246.437C173.684 246.253 174.223 246.103 174.77 245.99C175.864 245.727 176.987 245.606 178.112 245.63L178.491 245.016L184.399 235.003L185.07 233.865Z" fill="#FE9393"/>
<path d="M176.247 239.266C173.392 241.771 171.117 244.87 169.581 248.345C170.568 247.601 171.658 247.005 172.817 246.574C172.719 247.14 172.687 247.714 172.72 248.287C173.128 248.209 173.555 248.131 174.002 248.083L174.284 247.421L174.77 245.981L177.306 238.352C177.306 238.352 176.888 238.682 176.247 239.266Z" fill="#E15F60"/>
<path d="M192.93 251.605C192.93 251.605 188.82 253.756 186.002 251.265L192.396 249.036L192.93 251.605Z" fill="#3F49A5"/>
<path d="M177.879 237.544C177.303 238.087 176.758 238.662 176.247 239.266C175.412 240.276 174.691 241.376 174.099 242.545C173.449 243.807 173.015 245.169 172.817 246.574C172.719 247.139 172.687 247.714 172.719 248.287C172.733 249.623 173.161 250.922 173.944 252.004C177.588 253.814 183.01 252.977 187.062 251.945C188.704 251.527 190.113 251.05 191.104 250.7C192.095 250.35 192.523 250.155 192.523 250.155H192.63C197.819 248.462 197.061 241.319 193.417 236.824C193.206 236.56 192.978 236.31 192.737 236.074C191.618 234.842 190.198 233.923 188.617 233.408C185.944 232.591 183.185 233.671 180.911 235.179L180.551 235.422C179.609 236.062 178.716 236.771 177.879 237.544Z" fill="#FE9393"/>
<path d="M190.171 236.708C190.171 236.708 192.639 238.459 191.91 243.091C191.522 245.534 189.355 248.113 191.424 251.256C193.173 253.912 198.809 253.611 200.665 251.022C203.338 247.285 202.259 240.824 197.983 237.243C193.961 233.866 191.181 235.015 190.171 236.708Z" fill="#3F49A5"/>
<path d="M192.717 237.232C192.717 237.232 175.634 242.944 183.214 238.303C183.214 238.303 185.332 237.096 184.914 235.49C184.496 233.885 178.627 236.006 176.101 236.57C176.101 236.57 178.277 232.464 186.051 230.031C193.825 227.598 197.809 232.513 194.796 235.938L192.717 237.232Z" fill="#3F49A5"/>
<path d="M183.699 235.977C183.699 235.977 183.699 236.95 182.047 237.339C180.395 237.728 179.909 236.716 180.764 236.366C181.62 236.015 182.271 236.784 181.921 237.008C182.281 237.007 182.635 236.911 182.948 236.73C183.26 236.549 183.519 236.289 183.699 235.977Z" fill="#E15F60"/>
<path d="M188.209 228.942C186.209 229.068 184.226 229.375 182.281 229.857C181.309 230.226 178.239 231.521 177.695 232.299C177.15 233.078 176.801 233.905 176.247 234.751C175.748 235.435 175.206 236.085 174.624 236.698L178.151 239.091C179.347 236.989 180.717 236.668 181.572 235.053C181.91 234.413 182.155 233.728 182.301 233.019L184.72 231.744C184.72 231.744 187.198 231.18 187.635 230.557C187.706 230.481 187.76 230.39 187.794 230.291C187.827 230.192 187.84 230.087 187.83 229.983C188.432 229.555 188.432 229 188.209 228.942Z" fill="#FE9393"/>
<path opacity="0.67" d="M144.87 239.762C144.87 239.762 134.308 265.111 141.79 273.596C144.239 276.38 150.535 275.426 153.538 273.285C160.45 268.384 166.153 261.967 170.212 254.524L152.984 257.696" fill="#D0E4EF"/>
<path d="M149.116 233.748C141.702 239.713 135.921 266.707 146.95 271.777C157.978 276.847 180.27 239.772 180.27 239.772C179.716 238.803 178.969 237.958 178.077 237.288C177.185 236.619 176.165 236.139 175.081 235.879C175.081 235.879 159.922 248.968 156.764 252.481C156.764 252.481 161.321 242.098 160.145 237.125C158.97 232.152 151.371 231.948 149.116 233.748Z" fill="white"/>
<path d="M151.245 257.784C151.245 257.784 152.45 256.509 154.306 254.651C155.278 253.736 156.327 252.646 157.513 251.517L161.244 247.985L165.053 244.521C166.258 243.421 167.434 242.428 168.415 241.601C170.359 239.889 171.768 238.789 171.768 238.789C171.768 238.789 170.563 240.064 168.707 241.922C167.735 242.837 166.695 243.937 165.5 245.056L161.769 248.588L157.96 252.033C156.755 253.133 155.579 254.125 154.598 254.952C152.615 256.684 151.245 257.784 151.245 257.784Z" fill="#BFD2DB"/>
<path d="M156.657 252.306C156.657 252.306 156.9 251.81 157.201 250.992C157.568 250 157.873 248.986 158.115 247.956C158.387 246.828 158.591 245.679 158.708 244.813C158.824 243.947 158.882 243.363 158.882 243.363C158.86 244.924 158.73 246.482 158.494 248.024C158.335 249.095 158.111 250.154 157.823 251.197C157.58 252.053 157.357 252.627 157.357 252.627L156.657 252.306Z" fill="#BFD2DB"/>
</g>
<defs>
<linearGradient id="paint0_linear_368_2150" x1="532.07" y1="161.735" x2="459.909" y2="218.95" gradientUnits="userSpaceOnUse">
<stop stop-color="#4F52FF"/>
<stop offset="1" stop-color="#4042E2"/>
</linearGradient>
<linearGradient id="paint1_linear_368_2150" x1="499.288" y1="167.74" x2="465.134" y2="204.582" gradientUnits="userSpaceOnUse">
<stop stop-color="#4F52FF"/>
<stop offset="1" stop-color="#4042E2"/>
</linearGradient>
<linearGradient id="paint2_linear_368_2150" x1="498.508" y1="188.36" x2="492.214" y2="219.216" gradientUnits="userSpaceOnUse">
<stop stop-color="#4F52FF"/>
<stop offset="1" stop-color="#4042E2"/>
</linearGradient>
<linearGradient id="paint3_linear_368_2150" x1="555.483" y1="165.916" x2="517.243" y2="219.471" gradientUnits="userSpaceOnUse">
<stop stop-color="#4F52FF"/>
<stop offset="1" stop-color="#4042E2"/>
</linearGradient>
<linearGradient id="paint4_linear_368_2150" x1="575.333" y1="178.582" x2="550.157" y2="221.925" gradientUnits="userSpaceOnUse">
<stop stop-color="#4F52FF"/>
<stop offset="1" stop-color="#4042E2"/>
</linearGradient>
<clipPath id="clip0_368_2150">
<rect width="602.705" height="352" fill="white" transform="translate(0.891602)"/>
</clipPath>
</defs>
</svg>
