<svg width="540" height="527" viewBox="0 0 540 527" fill="none" xmlns="http://www.w3.org/2000/svg">
<path d="M479.362 441.165C469.481 451.567 460.14 458.269 452.757 463.566C365.963 525.841 263.264 507.689 241.437 503.256C209.205 496.708 146.904 484.055 101.862 431.086C33.7173 350.948 44.3284 224.691 97.1879 141.349C106.856 126.104 157.928 41.4963 261.733 27.9226C324.556 19.7108 397.786 36.2731 450.817 80.7024C562.134 173.964 554.21 362.377 479.362 441.165Z" fill="#DEF2FF"/>
<path d="M395.062 395.062C467.791 322.333 467.791 204.416 395.062 131.687C322.333 58.9584 204.416 58.9584 131.687 131.687C58.9584 204.416 58.9584 322.333 131.687 395.062C204.416 467.791 322.333 467.791 395.062 395.062Z" fill="#BDD0FB"/>
<path d="M263.376 422.315C351.158 422.315 422.319 351.154 422.319 263.373C422.319 175.591 351.158 104.43 263.376 104.43C175.595 104.43 104.434 175.591 104.434 263.373C104.434 351.154 175.595 422.315 263.376 422.315Z" fill="url(#paint0_linear_368_1884)"/>
<path d="M263.375 430.277C171.345 430.277 96.4707 355.405 96.4707 263.372C96.4707 171.34 171.345 96.4692 263.375 96.4692C355.406 96.4692 430.279 171.341 430.279 263.372C430.279 355.403 355.413 430.277 263.375 430.277ZM263.375 104.43C175.734 104.43 104.433 175.731 104.433 263.372C104.433 351.014 175.734 422.317 263.375 422.317C351.017 422.317 422.318 351.016 422.318 263.372C422.318 175.729 351.017 104.425 263.375 104.425V104.43Z" fill="white"/>
<path d="M331.893 331.892C369.734 294.051 369.734 232.698 331.893 194.857C294.052 157.016 232.699 157.016 194.858 194.857C157.016 232.698 157.016 294.051 194.858 331.892C232.699 369.734 294.052 369.734 331.893 331.892Z" fill="#2E60FF"/>
<path d="M263.376 368.233C205.555 368.233 158.515 321.193 158.515 263.372C158.515 205.551 205.555 158.511 263.376 158.511C321.196 158.511 368.242 205.553 368.242 263.372C368.242 321.191 321.195 368.233 263.376 368.233ZM263.376 174.434C214.335 174.434 174.444 214.332 174.444 263.365C174.444 312.399 214.342 352.305 263.376 352.305C312.409 352.305 352.307 312.407 352.307 263.374C352.307 214.34 312.421 174.434 263.376 174.434Z" fill="white"/>
<path d="M289.92 289.921C304.581 275.26 304.581 251.489 289.92 236.828C275.259 222.167 251.489 222.167 236.828 236.828C222.167 251.489 222.167 275.26 236.828 289.921C251.489 304.582 275.259 304.582 289.92 289.921Z" fill="#11DE94"/>
<path d="M263.375 308.877C238.286 308.877 217.873 288.464 217.873 263.373C217.873 238.281 238.286 217.871 263.375 217.871C288.465 217.871 308.878 238.283 308.878 263.373C308.878 288.463 288.465 308.877 263.375 308.877ZM263.375 233.792C247.064 233.792 233.794 247.062 233.794 263.373C233.794 279.684 247.064 292.954 263.375 292.954C279.686 292.954 292.957 279.686 292.957 263.373C292.957 247.06 279.686 233.792 263.375 233.792Z" fill="white"/>
<path d="M291.345 235.887L295.3 239.841L445.035 90.1065L441.08 86.152L291.345 235.887Z" fill="url(#paint1_linear_368_1884)"/>
<path d="M294.142 226.348C296.409 224.081 307.105 234.775 304.836 237.043L265.171 268.226C263.704 269.379 261.806 267.48 262.959 266.014L294.142 226.348Z" fill="url(#paint2_linear_368_1884)"/>
<path d="M444.944 90.1938L465.088 92.1944L437.434 119.853C432.959 124.327 427.547 127.751 421.588 129.88C415.629 132.008 409.271 132.788 402.975 132.161L444.944 90.1938Z" fill="#91B3FA"/>
<path d="M440.991 86.2399L438.988 66.0942L411.335 93.7496C406.861 98.2242 403.436 103.636 401.307 109.595C399.179 115.554 398.4 121.911 399.026 128.207L440.991 86.2399Z" fill="#91B3FA"/>
<path d="M116.53 495.554C116.53 495.554 115.528 500.928 115.011 506.252C114.965 506.745 115.019 507.243 115.169 507.714C115.32 508.186 115.565 508.623 115.889 508.997C116.213 509.372 116.609 509.678 117.054 509.895C117.499 510.113 117.984 510.238 118.478 510.263C125.572 510.626 140.744 511.345 146.194 511.154C146.385 511.147 146.57 511.094 146.736 511C146.901 510.907 147.042 510.775 147.146 510.616C147.25 510.457 147.315 510.275 147.335 510.086C147.355 509.897 147.33 509.706 147.261 509.528C147.012 508.888 146.528 508.367 145.907 508.074L120.944 496.312L116.53 495.554Z" fill="url(#paint3_linear_368_1884)"/>
<path d="M115.775 492.383L116.477 498.83C116.477 498.83 120.85 500.911 123.871 498.643L122.122 491.451L115.775 492.383Z" fill="url(#paint4_linear_368_1884)"/>
<path d="M117.504 371.343C117.158 373.022 114.934 455.232 123.371 492.172C123.439 492.463 123.401 492.768 123.264 493.034C123.127 493.299 122.9 493.507 122.624 493.62C120.328 494.483 117.904 494.952 115.452 495.006C114.975 495.018 114.509 494.871 114.125 494.589C113.741 494.306 113.461 493.905 113.33 493.446C110.903 484.872 99.2692 441.925 98.0886 400.992C96.7694 355.253 98.1025 399.432 98.1025 399.432L99.4026 371.175L117.504 371.343Z" fill="url(#paint5_linear_368_1884)"/>
<path d="M87.658 498.087C87.658 498.087 86.1169 500.792 84.5844 507.998C84.5176 508.305 84.5162 508.622 84.58 508.929C84.6439 509.237 84.7717 509.527 84.9551 509.782C85.1386 510.037 85.3735 510.25 85.6447 510.408C85.916 510.566 86.2174 510.665 86.5294 510.699C88.8697 510.952 92.4738 511.283 95.3706 511.29C95.685 511.292 95.9964 511.228 96.2842 511.101C96.5721 510.974 96.8299 510.788 97.0408 510.555C97.2518 510.322 97.4111 510.047 97.5084 509.748C97.6056 509.449 97.6386 509.133 97.6051 508.82C97.3104 506.181 96.3535 501.847 93.3059 498.448L87.658 498.087Z" fill="url(#paint6_linear_368_1884)"/>
<path d="M86.4062 489.793L88.0982 499.546C88.0982 499.546 89.8508 500.876 93.3509 499.959L92.6072 489.474L86.4062 489.793Z" fill="url(#paint7_linear_368_1884)"/>
<path d="M82.6932 373.535C75.0916 416.848 83.2306 480.773 86.0615 493.296C86.1454 493.671 86.3382 494.013 86.6158 494.279C86.8934 494.545 87.2433 494.722 87.6217 494.79C88.9375 495.021 91.1027 495.22 93.2471 494.617C93.6074 494.516 93.9267 494.304 94.1598 494.011C94.3928 493.718 94.5278 493.359 94.5455 492.985C95.0379 482.888 94.9182 420.87 101.849 396.427C102.2 395.188 102.969 394.11 104.026 393.376L117.115 384.257L118.254 369.328L82.6932 373.535Z" fill="url(#paint8_linear_368_1884)"/>
<path d="M129.282 291.771C107.743 291.209 83.9167 296.994 83.9167 296.994C77.1368 334.401 82.0323 377.667 82.0323 377.667C98.6744 382.2 117.548 375.332 117.548 375.332C120.46 359.698 133.814 315.744 133.814 315.744C144.352 314.531 153.056 311.584 160.229 307.638C154.843 301.272 152.352 293.215 151.283 288.455C143.645 290.753 135.925 291.944 129.282 291.771Z" fill="#FFCB8E"/>
<path d="M193.216 260.649C191.124 258.073 188.435 259.262 188.435 259.262C185.141 272.622 168.411 283.322 151.283 288.465C152.353 293.226 154.844 301.283 160.23 307.649C188.723 291.979 193.216 260.649 193.216 260.649Z" fill="url(#paint9_linear_368_1884)"/>
<path d="M192.695 261.293C192.91 262.001 190.335 263.048 188.853 260.154C188.813 258.768 188.032 252.854 188.865 251.738C193.314 245.794 201.9 238.371 201.9 238.371C203.325 239.804 202.125 241.188 202.125 241.188L197.954 245.45C198.804 247.011 199.846 248.347 200.321 250.24C200.669 251.685 200.448 253.208 199.704 254.494C198.965 255.793 197.97 257.481 197.013 258.801C195.219 261.299 192.695 261.293 192.695 261.293Z" fill="url(#paint10_linear_368_1884)"/>
<path d="M196.122 248.224L192.328 251.379L191.114 254.545L194.434 258.3C194.434 258.3 195.623 252.007 196.474 250.651C197.326 249.295 196.899 248.63 196.122 248.224Z" fill="url(#paint11_linear_368_1884)"/>
<path d="M91.9793 317.933L83.9166 296.996C83.9166 296.996 63.6566 310.476 60.1895 327.778C63.9894 328.094 70.8976 329.15 77.6377 332.632C79.2031 324.462 91.9793 317.933 91.9793 317.933Z" fill="#FFCB8E"/>
<path d="M109.377 337.727C109.377 337.727 86.6673 350.28 79.1437 339.305C77.5835 337.025 77.2264 334.773 77.6372 332.631C70.8972 329.148 63.989 328.092 60.189 327.777C59.1489 332.993 59.617 338.556 62.6333 344.202C75.7529 368.755 112.314 343.327 112.314 343.327L109.377 337.727Z" fill="url(#paint12_linear_368_1884)"/>
<path d="M107.628 274.074L100.585 293.836C100.527 293.995 100.526 294.169 100.585 294.328C100.643 294.486 100.755 294.619 100.902 294.703C102.76 295.754 109.464 298.805 117.624 293.737C118.045 293.48 118.405 293.132 118.677 292.72C118.949 292.307 119.126 291.839 119.196 291.35L121.58 274.216L107.628 274.074Z" fill="url(#paint13_linear_368_1884)"/>
<path d="M122.717 255.861C122.717 255.861 130.109 270.1 129.09 275.814C128.071 281.528 118.746 281.029 110.645 276.303L105.098 260.949L122.717 255.861Z" fill="url(#paint14_linear_368_1884)"/>
<path d="M111.075 268.793C111.154 268.759 111.223 268.709 111.28 268.646C111.337 268.583 111.379 268.508 111.404 268.427C111.429 268.346 111.437 268.261 111.425 268.176C111.414 268.092 111.385 268.012 111.339 267.94C110.744 267.013 109.631 265.123 109.286 263.474C109.286 263.474 107.941 262.595 112.754 261.493C117.566 260.39 124.732 258.676 126.275 254.607C127.78 250.641 124.022 240.591 117.802 248.51C117.747 248.581 117.677 248.639 117.597 248.678C117.517 248.718 117.429 248.738 117.34 248.738C117.25 248.738 117.162 248.718 117.082 248.678C117.002 248.639 116.932 248.581 116.878 248.51C115.883 247.189 113.26 244.442 109.567 246.057C106.111 247.569 105.7 250.086 105.734 251.357C105.737 251.444 105.721 251.531 105.685 251.611C105.65 251.691 105.597 251.762 105.53 251.819C105.463 251.875 105.385 251.916 105.3 251.938C105.215 251.96 105.127 251.962 105.041 251.944C103.307 251.598 99.133 251.272 97.1429 255.536C95.5047 259.049 96.5275 261.056 97.4688 262.041C97.5385 262.113 97.5883 262.202 97.6134 262.299C97.6384 262.397 97.638 262.499 97.612 262.596C97.586 262.693 97.5354 262.781 97.465 262.853C97.3947 262.925 97.307 262.977 97.2105 263.005C96.0629 263.351 94.579 264.3 94.7003 266.98C94.8737 270.686 99.0134 270.398 100.194 270.24C100.289 270.227 100.387 270.237 100.477 270.27C100.568 270.303 100.649 270.358 100.714 270.429C101.714 271.558 106.223 276.351 111.147 276.97C111.245 276.981 111.344 276.968 111.436 276.93C111.528 276.893 111.608 276.833 111.671 276.756C111.733 276.679 111.775 276.588 111.792 276.49C111.81 276.393 111.802 276.292 111.771 276.199L109.69 269.977C109.644 269.837 109.652 269.686 109.712 269.552C109.772 269.418 109.88 269.311 110.015 269.252L111.075 268.793Z" fill="url(#paint15_linear_368_1884)"/>
<path d="M111.925 269.682C111.925 269.682 106.6 265.954 106.18 269.047C105.761 272.14 110.963 273.577 113.558 272.448L111.925 269.682Z" fill="url(#paint16_linear_368_1884)"/>
<path d="M104.742 357.566L117.107 314.359C117.176 314.119 117.313 313.905 117.503 313.744C117.693 313.583 117.926 313.481 118.173 313.452C120.415 313.19 126.911 312.455 134.41 311.821C143.445 311.058 153.935 310.434 160.205 310.965C160.411 310.98 160.611 311.046 160.786 311.157C160.961 311.267 161.106 311.419 161.208 311.599C161.311 311.778 161.368 311.98 161.375 312.187C161.381 312.394 161.337 312.599 161.245 312.785C157.679 319.996 143.015 349.335 135.672 358.946C135.553 359.103 135.399 359.23 135.222 359.317C135.045 359.404 134.85 359.449 134.653 359.447L105.945 359.18C105.75 359.178 105.558 359.131 105.384 359.043C105.21 358.955 105.059 358.828 104.943 358.671C104.826 358.515 104.748 358.334 104.713 358.142C104.678 357.95 104.688 357.753 104.742 357.566Z" fill="url(#paint17_linear_368_1884)"/>
<path d="M107.724 347.122C107.724 347.122 106 340.036 106.696 337.522C107.391 335.008 108.738 331.773 113.228 332.495C117.717 333.216 123.013 335.095 123.013 335.095C123.013 335.095 122.746 338.37 119.335 337.314L121.45 338.95C121.45 338.95 121.148 341.573 118.265 340.164L120.235 342.336C120.235 342.336 118.995 344.489 116.875 343.107C114.755 341.726 113.737 347.979 107.724 347.122Z" fill="url(#paint18_linear_368_1884)"/>
<path d="M440.075 262.852C440.152 262.707 440.27 262.589 440.414 262.512C440.559 262.435 440.723 262.403 440.886 262.42C441.048 262.438 441.202 262.503 441.327 262.609C441.452 262.715 441.543 262.856 441.587 263.013C442.32 265.655 444.097 270.263 447.828 271.899C448.015 271.983 448.192 272.073 448.363 272.149C448.463 271.865 448.494 271.562 448.454 271.264C448.414 270.966 448.303 270.681 448.131 270.435C446.973 268.665 449.064 266.246 449.064 266.246C449.064 266.246 449.202 268.377 450.821 269.713C452.208 270.87 452.884 273.439 451.933 275.549C449.915 283.382 446.895 293.742 458.659 301.313C470.423 308.883 486.99 287.03 486.99 287.03L478.768 313.097C478.768 313.097 466.075 322.458 451.314 309.294C436.553 296.129 446.335 276.96 446.335 276.96C446.335 276.96 435.072 272.418 440.075 262.852Z" fill="url(#paint19_linear_368_1884)"/>
<path d="M489.047 248.732C489.047 248.732 485.639 233.444 503.151 237.49C503.151 237.49 511.645 236.103 512.084 244.124C512.084 244.124 517.564 247.735 513.552 254.68C513.552 254.68 529.835 248.389 536.931 262.654C544.026 276.919 537.505 284.781 530.668 286.827C530.668 286.827 536.215 289.6 533.585 295.888C530.955 302.176 517.685 306.594 509.835 298.958C509.835 298.958 487.516 301.905 487.963 286.142C487.963 286.142 477.583 279.438 488.483 266.411C499.384 253.383 489.047 248.732 489.047 248.732Z" fill="url(#paint20_linear_368_1884)"/>
<path d="M488.086 284.168C491.605 283.114 501.85 281.165 511.596 290.159C512.407 290.907 512.998 291.864 513.304 292.924C513.609 293.985 513.618 295.109 513.33 296.174C510.712 305.811 503.805 334.283 509.862 346.603C509.862 346.603 499.191 358.367 487.548 348.885C487.548 348.885 482.325 326.118 475.483 316.121C470.759 309.219 483.015 290.209 486.116 285.61C486.587 284.917 487.283 284.408 488.086 284.168Z" fill="#FFCB8E"/>
<path d="M497.801 265.021C497.801 265.021 503.001 279.742 503.397 286.236C503.397 286.236 497.645 288.852 492.226 284.437C492.226 284.437 491.657 269.733 490.839 267.101L497.801 265.021Z" fill="url(#paint21_linear_368_1884)"/>
<path d="M490.572 244.95C490.572 244.95 476.96 263.998 485.097 269.531C493.235 275.065 502.925 261.528 502.925 261.528C502.925 261.528 506.084 251.1 502.78 247.564C499.475 244.027 490.572 244.95 490.572 244.95Z" fill="url(#paint22_linear_368_1884)"/>
<path d="M496.871 240.396C496.871 240.396 490.618 241.878 489.741 244.707C488.864 247.537 498.61 250.161 501.34 250.289L503.54 261.707C503.54 261.707 510.043 250.959 507.467 244.763C504.891 238.567 496.871 240.396 496.871 240.396Z" fill="url(#paint23_linear_368_1884)"/>
<path d="M500.285 260.126C500.285 260.126 505.585 253.991 507.691 257.99C509.797 261.989 502.922 264.994 500.542 263.029L500.285 260.126Z" fill="url(#paint24_linear_368_1884)"/>
<path d="M473.961 396.685C474.001 397.725 472.186 405.916 471.199 410.29C470.801 412.048 471.077 413.892 471.974 415.456L506.175 473.02C506.589 473.716 506.892 474.472 507.073 475.26C507.701 477.961 509.001 484.581 508.322 490.604L506.553 494.279L514.205 492.545L515.869 471.996L513.704 470.675C511.834 469.534 510.376 467.826 509.544 465.8C506.451 458.289 498.771 439.166 496.792 429.846C494.538 419.254 482.781 410.652 482.781 410.652L484.846 405.767L473.961 396.685Z" fill="url(#paint25_linear_368_1884)"/>
<path d="M522.71 485.47C522.71 485.47 518.578 478.919 518.09 476.367C517.603 473.815 516.251 469.315 513.705 470.671C513.705 470.671 512.503 483.059 512.917 487.899C513.332 492.739 507.445 492.579 507.445 492.579C506.39 492.768 505.414 493.26 504.635 493.995C503.815 494.815 504.401 496.239 505.559 496.313C508.3 496.499 511.054 496.343 513.757 495.849C514.303 495.742 514.798 495.457 515.164 495.039C515.53 494.62 515.747 494.091 515.78 493.536L516.627 479.278L521.84 485.865L522.71 485.47Z" fill="url(#paint26_linear_368_1884)"/>
<path d="M494.393 405.853C494.393 405.853 495.606 457.34 495.762 464.657C495.918 471.974 494.608 488.176 487.276 493.021L490.466 495.383C490.466 495.383 494.453 491.993 498.349 485.474C502.724 478.148 504.047 476.806 504.047 476.806L502.592 473.845C501.957 472.544 501.771 471.069 502.064 469.651C503.645 461.984 508.93 436.48 510.372 430.993C512.073 424.51 512.194 415.852 506.274 408.606C500.354 401.36 494.393 405.853 494.393 405.853Z" fill="url(#paint27_linear_368_1884)"/>
<path d="M501.162 497.705C501.272 497.706 501.378 497.668 501.462 497.597C501.545 497.526 501.6 497.427 501.616 497.318C501.859 495.602 502.875 488.72 503.707 486.938C504.659 484.897 507.769 476.307 503.707 475.578C503.707 475.578 493.604 490.337 491.666 492.327C489.728 494.317 487.278 493.021 487.278 493.021C485.97 493.482 484.821 494.307 483.965 495.399C483.814 495.596 483.721 495.832 483.696 496.08C483.671 496.327 483.716 496.576 483.826 496.8C483.935 497.023 484.104 497.212 484.315 497.344C484.525 497.476 484.769 497.547 485.017 497.549L491.823 497.613C492.788 497.621 493.733 497.338 494.534 496.799C495.334 496.261 495.954 495.493 496.31 494.596C497.508 491.606 499.565 487.217 501.963 485.272L500.718 497.202C500.712 497.265 500.718 497.328 500.738 497.388C500.757 497.448 500.789 497.504 500.831 497.551C500.873 497.598 500.924 497.636 500.981 497.662C501.039 497.688 501.101 497.702 501.164 497.703L501.162 497.705Z" fill="url(#paint28_linear_368_1884)"/>
<path d="M485.95 343.332C485.95 343.332 487.485 348.219 485.129 356.268L470.517 407.297C470.406 407.683 470.446 408.097 470.63 408.454C470.813 408.811 471.126 409.085 471.505 409.219C475.875 410.788 490.244 415.223 509.858 413.871C510.338 413.84 510.795 413.654 511.161 413.342C511.527 413.029 511.782 412.607 511.888 412.137L518.498 382.393C521.965 366.853 525.82 350.095 508.828 339.96C500.987 343.308 493.682 345.293 485.95 343.332Z" fill="url(#paint29_linear_368_1884)"/>
<path d="M512.993 292.082C512.993 292.082 529.62 305.898 533.746 324.778C537.872 343.658 509.452 345.666 509.452 345.666C509.452 345.666 505.593 341.358 501.013 342.892C496.433 344.426 500.666 335.374 506.018 335.396C511.369 335.419 508.893 339.659 516.476 336.225C523.861 332.879 528.425 322.53 509.582 306.85C508.483 305.945 507.628 304.78 507.094 303.461C503.429 294.249 506.333 288.207 512.993 292.082Z" fill="url(#paint30_linear_368_1884)"/>
<path d="M408.952 433.148H403.021V497.282H408.952V433.148Z" fill="#7D97F4"/>
<path d="M431.958 498.518H380.016V495.088C380.016 494.974 380.061 494.865 380.141 494.784C380.221 494.704 380.33 494.658 380.444 494.658H431.528C431.642 494.658 431.752 494.703 431.832 494.784C431.913 494.864 431.958 494.974 431.958 495.088V498.518Z" fill="#7D97F4"/>
<path d="M435.003 417.878H379.153C375.41 417.878 372.375 420.913 372.375 424.657V430.785C372.375 434.528 375.41 437.563 379.153 437.563H435.003C438.747 437.563 441.781 434.528 441.781 430.785V424.657C441.781 420.913 438.747 417.878 435.003 417.878Z" fill="#7D97F4"/>
<path d="M353.416 477.806C353.416 477.806 334.243 486.063 335.342 494.707C335.342 494.707 355.16 490.905 358.707 485.24C362.254 479.574 360.3 476.294 360.3 476.294L353.416 477.806Z" fill="url(#paint31_linear_368_1884)"/>
<path d="M358.113 468.367L359.085 476.781C359.165 477.399 359.035 478.026 358.715 478.56C358.396 479.095 357.906 479.506 357.324 479.728C356.542 479.989 355.721 480.114 354.897 480.099C354.186 480.106 353.492 479.878 352.923 479.451C352.354 479.024 351.941 478.421 351.749 477.737L349.866 470.939L358.113 468.367Z" fill="url(#paint32_linear_368_1884)"/>
<path d="M399.995 403.843C399.995 403.843 364.731 402.21 347.184 412.443C329.637 422.676 348.073 471.79 348.073 471.79C348.073 471.79 352.657 472.774 359.258 469.247C359.258 469.247 349.838 433.294 366.192 427.04C384.585 420.009 403.611 421.718 403.611 421.718L400.087 404.953L399.995 403.843Z" fill="url(#paint33_linear_368_1884)"/>
<path d="M339.196 490.914C343.204 490.035 355.096 485.108 356.901 485.174C358.706 485.24 361.266 487.948 361.266 487.948C361.266 487.948 361.707 489.426 360.415 491.55C357.352 493.941 350.752 498.326 343.079 498.807C337.435 499.153 334.039 496.914 332.096 494.736C333.796 493.088 336.518 491.498 339.196 490.914Z" fill="url(#paint34_linear_368_1884)"/>
<path d="M343.08 498.809C350.753 498.329 357.352 493.943 360.415 491.552C359.549 492.988 357.881 494.716 354.754 496.484C347 500.865 334.183 500.225 331.644 499.239C329.607 498.45 330.236 496.548 332.096 494.732C334.039 496.912 337.436 499.156 343.08 498.809Z" fill="url(#paint35_linear_368_1884)"/>
<path d="M365.476 483.542C365.213 484.534 362.404 487.517 360.782 489.18C360.403 489.569 359.932 489.855 359.412 490.012C358.892 490.168 358.341 490.19 357.81 490.074C357.07 489.925 356.355 489.673 355.683 489.327C355.204 489.058 354.851 488.611 354.701 488.082C354.55 487.554 354.615 486.988 354.881 486.507L358.987 479.039L365.476 483.542Z" fill="url(#paint36_linear_368_1884)"/>
<path d="M434.942 400.884C434.942 400.884 438.02 422.727 429.12 427.184C420.22 431.641 400.699 434.569 393.976 445.894C387.253 457.22 375.176 479.451 364.188 485.837C364.188 485.837 357.913 483.797 356.077 480.709C356.077 480.709 369.122 446.42 374.564 438.086C379.276 430.868 386.166 420.47 395.956 415.973C398.759 414.685 398.979 411.712 398.485 408.668L397.587 403.121L434.942 400.884Z" fill="url(#paint37_linear_368_1884)"/>
<path d="M352.456 376.129C364.938 379.692 370.518 344.579 370.468 343.722L389.6 366.085C389.6 366.085 378.2 386.142 360.996 388.274C356.641 388.815 352.938 388.061 349.83 386.638C351.771 383.491 352.689 379.819 352.456 376.129Z" fill="#FFD6A6"/>
<path d="M329.349 364.632C334.788 362.397 339.404 366.858 339.404 366.858C344.794 372.372 349.067 375.158 352.459 376.125C352.691 379.819 351.77 383.493 349.824 386.641C343.102 383.562 339.184 377.335 337.568 374.229C337.291 373.689 336.815 373.279 336.241 373.085C335.666 372.891 335.039 372.928 334.491 373.189C333.338 373.745 332.149 374.596 332.075 375.751C331.929 378.029 329.218 378.162 329.202 377.322C329.186 376.481 331.301 371.982 331.301 371.982C331.301 371.982 325.061 375.99 322.621 377.53C320.182 379.069 318.114 376.533 318.114 376.533C318.114 376.533 323.911 366.872 329.349 364.632Z" fill="url(#paint38_linear_368_1884)"/>
<path d="M430.13 329.266C430.13 329.266 413.363 317.825 372.867 338.515C372.867 338.515 368.696 343.802 370.65 349.76C372.604 355.719 396.653 387.975 397.582 403.117C397.582 403.117 414.018 412.792 435.355 403.201C435.36 403.208 442.516 363.225 430.13 329.266Z" fill="#FFCB8E"/>
<path d="M395.221 314.648L401.847 327.632C402.173 328.263 402.31 328.975 402.242 329.682C402.174 330.389 401.904 331.062 401.463 331.619C399.64 333.904 395.829 336.978 389.329 334.996C388.378 334.707 387.519 334.173 386.838 333.449C386.158 332.724 385.679 331.834 385.449 330.867L382.015 316.375L395.221 314.648Z" fill="url(#paint39_linear_368_1884)"/>
<path d="M442.553 374.613C443.688 366.721 422.832 351.422 422.832 351.422L430.13 329.267C430.13 329.267 469.929 357.668 461.56 380.863C460.36 384.188 458.571 386.61 456.388 388.328C452.179 379.691 446.464 376.097 442.553 374.613Z" fill="#FFCB8E"/>
<path d="M413.455 376.802C413.455 376.802 437.049 383.39 441.942 376.211C442.267 375.733 442.475 375.186 442.553 374.613C446.464 376.097 452.179 379.69 456.393 388.334C445.191 397.146 423.593 387.268 417.725 384.305C416.762 383.819 415.647 383.725 414.616 384.045C412.536 384.697 408.913 385.709 406.899 385.605C403.952 385.442 400.786 396.097 395.768 393.406C395.768 393.392 398.049 375.19 413.455 376.802Z" fill="url(#paint40_linear_368_1884)"/>
<path d="M386.727 293.429C386.517 293.602 377.777 308.876 373.328 316.658C373.008 317.218 372.81 317.84 372.747 318.482C372.683 319.125 372.757 319.773 372.962 320.385C373.168 320.997 373.5 321.558 373.938 322.032C374.376 322.507 374.909 322.883 375.502 323.136L377.43 323.962C380.063 325.09 385.727 326.042 387.956 324.236L401.998 309.405C401.998 309.405 391.454 289.337 386.727 293.429Z" fill="url(#paint41_linear_368_1884)"/>
<path d="M405.965 305.358C407.688 304.391 409.76 302.43 408.146 298.963C406.508 295.439 403.266 295.132 401.179 295.357C400.772 295.398 400.363 295.295 400.025 295.064C399.686 294.834 399.439 294.493 399.327 294.099C399.187 293.636 398.846 293.232 398.114 293.111C397.878 293.069 397.654 292.978 397.455 292.845C397.256 292.711 397.088 292.538 396.96 292.335C396.832 292.133 396.748 291.906 396.713 291.669C396.678 291.432 396.693 291.19 396.757 290.959C397.258 289.085 397.173 286.541 394.156 284.719C388.808 281.48 383.81 286.183 382.418 290.266C381.026 294.348 387.023 297.536 390.852 298.185C393.765 298.679 395.186 302.037 395.706 303.618C395.785 303.865 395.808 304.128 395.772 304.385C395.737 304.642 395.643 304.889 395.5 305.105L391.228 311.596C392.404 313.074 393.446 314.636 394.472 316.216C394.855 315.803 395.191 315.458 395.455 315.217C397.31 313.516 400.609 314.394 401.968 314.87C402.187 314.946 402.42 314.976 402.652 314.959C402.884 314.942 403.11 314.878 403.316 314.771C404.795 314.007 407.784 311.859 405.334 307.796C405.211 307.595 405.13 307.372 405.095 307.14C405.06 306.907 405.072 306.67 405.131 306.443C405.19 306.215 405.294 306.002 405.438 305.816C405.581 305.629 405.76 305.474 405.965 305.358Z" fill="url(#paint42_linear_368_1884)"/>
<path d="M392.902 318.994C392.902 318.994 395.634 311.975 398.739 312.365C401.844 312.755 404.165 315.964 400.159 319.299C395.175 323.43 392.902 318.994 392.902 318.994Z" fill="url(#paint43_linear_368_1884)"/>
<path d="M383.324 391.826H383.197L328.07 391.767C327.427 391.75 326.816 391.482 326.367 391.022C325.918 390.561 325.667 389.943 325.667 389.299C325.667 388.656 325.918 388.038 326.367 387.577C326.816 387.116 327.427 386.849 328.07 386.832L383.188 386.892C383.838 386.883 384.466 387.13 384.934 387.58C385.403 388.031 385.675 388.648 385.691 389.298C385.707 389.948 385.466 390.578 385.02 391.051C384.574 391.524 383.959 391.802 383.31 391.824L383.324 391.826Z" fill="url(#paint44_linear_368_1884)"/>
<path d="M278.535 341.781H324.438C326.097 341.781 327.722 342.253 329.123 343.141C330.524 344.029 331.644 345.297 332.352 346.798L353.572 391.796H296.526C295.46 391.795 294.418 391.475 293.537 390.875C292.655 390.275 291.974 389.424 291.582 388.432L275.126 346.794C274.906 346.238 274.826 345.637 274.892 345.043C274.957 344.449 275.168 343.88 275.504 343.385C275.84 342.891 276.292 342.486 276.821 342.207C277.349 341.927 277.938 341.781 278.535 341.781Z" fill="url(#paint45_linear_368_1884)"/>
<path d="M310.875 364.853C311.87 367.942 311.135 370.945 309.234 371.557C307.332 372.169 304.985 370.16 303.99 367.069C302.995 363.978 303.73 360.977 305.631 360.365C307.533 359.753 309.88 361.762 310.875 364.853Z" fill="#91B3FA"/>
<path d="M285.978 510.043C285.664 510.043 285.354 509.981 285.064 509.859C284.788 509.75 284.537 509.585 284.325 509.376C284.114 509.167 283.946 508.918 283.833 508.643C283.72 508.368 283.663 508.073 283.666 507.776C283.669 507.479 283.732 507.185 283.851 506.912L332.429 397.586C332.684 397.033 333.144 396.602 333.712 396.383C334.28 396.164 334.911 396.175 335.471 396.412C335.748 396.522 335.999 396.686 336.211 396.894C336.423 397.103 336.591 397.353 336.704 397.628C336.817 397.903 336.874 398.198 336.87 398.496C336.867 398.793 336.804 399.087 336.684 399.359L288.107 508.689C287.92 509.096 287.62 509.44 287.242 509.68C286.865 509.92 286.426 510.046 285.978 510.043Z" fill="#91B3FA"/>
<path d="M340.701 510.043C340.253 510.046 339.814 509.92 339.436 509.679C339.058 509.438 338.758 509.093 338.573 508.685L289.997 399.359C289.877 399.086 289.814 398.793 289.811 398.495C289.807 398.198 289.864 397.902 289.977 397.627C290.091 397.352 290.258 397.103 290.47 396.894C290.682 396.685 290.934 396.521 291.21 396.412C291.771 396.174 292.401 396.164 292.969 396.383C293.537 396.602 293.998 397.033 294.254 397.585L342.83 506.912C342.949 507.184 343.012 507.478 343.016 507.775C343.019 508.073 342.962 508.368 342.849 508.643C342.736 508.918 342.568 509.167 342.356 509.376C342.145 509.585 341.893 509.749 341.617 509.859C341.327 509.98 341.016 510.043 340.701 510.043Z" fill="#91B3FA"/>
<path d="M436.342 510.043C436.029 510.043 435.718 509.98 435.429 509.859C435.152 509.749 434.9 509.585 434.689 509.377C434.477 509.168 434.309 508.918 434.196 508.643C434.083 508.368 434.026 508.073 434.029 507.775C434.033 507.478 434.096 507.184 434.215 506.912L482.791 397.585C483.047 397.033 483.507 396.602 484.075 396.383C484.643 396.164 485.273 396.174 485.834 396.412C486.11 396.521 486.361 396.686 486.573 396.895C486.785 397.104 486.952 397.353 487.065 397.628C487.178 397.903 487.235 398.198 487.232 398.495C487.229 398.792 487.166 399.086 487.047 399.359L438.471 508.689C438.285 509.096 437.985 509.44 437.607 509.68C437.229 509.92 436.79 510.046 436.342 510.043Z" fill="#91B3FA"/>
<path d="M491.066 510.043C490.618 510.046 490.179 509.919 489.801 509.678C489.424 509.438 489.124 509.093 488.937 508.685L440.358 399.359C440.239 399.086 440.175 398.793 440.172 398.495C440.169 398.198 440.225 397.902 440.339 397.627C440.452 397.352 440.619 397.103 440.831 396.894C441.043 396.685 441.295 396.521 441.571 396.412C442.132 396.174 442.763 396.164 443.331 396.383C443.899 396.602 444.359 397.033 444.616 397.585L493.191 506.912C493.311 507.184 493.374 507.478 493.377 507.775C493.38 508.073 493.323 508.368 493.21 508.643C493.097 508.918 492.929 509.167 492.718 509.376C492.506 509.585 492.254 509.749 491.978 509.859C491.689 509.98 491.379 510.042 491.066 510.043Z" fill="#91B3FA"/>
<path d="M496.764 394.213C496.826 393.862 496.818 393.503 496.739 393.155C496.66 392.808 496.512 392.48 496.304 392.191C496.113 391.92 495.861 391.699 495.568 391.544C495.275 391.389 494.949 391.305 494.618 391.3H273.629C273.193 391.31 272.766 391.435 272.394 391.664C272.022 391.892 271.717 392.215 271.511 392.6C271.281 393.008 271.146 393.462 271.116 393.929C271.086 394.396 271.162 394.864 271.338 395.298L273.733 401.1C274.281 402.43 275.467 403.281 276.778 403.281H493.102C494.316 403.281 495.356 402.315 495.594 400.977L496.764 394.213Z" fill="#91B3FA"/>
<defs>
<linearGradient id="paint0_linear_368_1884" x1="401.845" y1="79.5329" x2="43.9655" y2="554.677" gradientUnits="userSpaceOnUse">
<stop stop-color="#4F52FF"/>
<stop offset="1" stop-color="#4042E2"/>
</linearGradient>
<linearGradient id="paint1_linear_368_1884" x1="221.088" y1="251.968" x2="381.235" y2="155.09" gradientUnits="userSpaceOnUse">
<stop stop-color="#09005D"/>
<stop offset="1" stop-color="#1A0F91"/>
</linearGradient>
<linearGradient id="paint2_linear_368_1884" x1="275.078" y1="251.941" x2="388.437" y2="157.913" gradientUnits="userSpaceOnUse">
<stop stop-color="#09005D"/>
<stop offset="1" stop-color="#1A0F91"/>
</linearGradient>
<linearGradient id="paint3_linear_368_1884" x1="145.54" y1="488.184" x2="52.7937" y2="587.177" gradientUnits="userSpaceOnUse">
<stop stop-color="#09005D"/>
<stop offset="1" stop-color="#1A0F91"/>
</linearGradient>
<linearGradient id="paint4_linear_368_1884" x1="115.671" y1="495.319" x2="123.825" y2="495.396" gradientUnits="userSpaceOnUse">
<stop stop-color="#FEBBBA"/>
<stop offset="1" stop-color="#FF928E"/>
</linearGradient>
<linearGradient id="paint5_linear_368_1884" x1="153.838" y1="375.316" x2="74.7176" y2="480.466" gradientUnits="userSpaceOnUse">
<stop stop-color="#09005D"/>
<stop offset="1" stop-color="#1A0F91"/>
</linearGradient>
<linearGradient id="paint6_linear_368_1884" x1="125.123" y1="469.054" x2="32.3755" y2="568.051" gradientUnits="userSpaceOnUse">
<stop stop-color="#09005D"/>
<stop offset="1" stop-color="#1A0F91"/>
</linearGradient>
<linearGradient id="paint7_linear_368_1884" x1="86.2863" y1="494.622" x2="93.3259" y2="494.688" gradientUnits="userSpaceOnUse">
<stop stop-color="#FEBBBA"/>
<stop offset="1" stop-color="#FF928E"/>
</linearGradient>
<linearGradient id="paint8_linear_368_1884" x1="140.012" y1="364.913" x2="60.8932" y2="470.061" gradientUnits="userSpaceOnUse">
<stop stop-color="#09005D"/>
<stop offset="1" stop-color="#1A0F91"/>
</linearGradient>
<linearGradient id="paint9_linear_368_1884" x1="151.243" y1="282.889" x2="192.905" y2="283.282" gradientUnits="userSpaceOnUse">
<stop stop-color="#FEBBBA"/>
<stop offset="1" stop-color="#FF928E"/>
</linearGradient>
<linearGradient id="paint10_linear_368_1884" x1="183.664" y1="276.842" x2="155.071" y2="340.172" gradientUnits="userSpaceOnUse">
<stop stop-color="#FEBBBA"/>
<stop offset="1" stop-color="#FF928E"/>
</linearGradient>
<linearGradient id="paint11_linear_368_1884" x1="192.97" y1="255.114" x2="204.806" y2="237.289" gradientUnits="userSpaceOnUse">
<stop stop-color="#FEBBBA"/>
<stop offset="1" stop-color="#FF928E"/>
</linearGradient>
<linearGradient id="paint12_linear_368_1884" x1="59.52" y1="341.037" x2="112.242" y2="341.534" gradientUnits="userSpaceOnUse">
<stop stop-color="#FEBBBA"/>
<stop offset="1" stop-color="#FF928E"/>
</linearGradient>
<linearGradient id="paint13_linear_368_1884" x1="98.3658" y1="312.117" x2="118.288" y2="273.446" gradientUnits="userSpaceOnUse">
<stop stop-color="#FEBBBA"/>
<stop offset="1" stop-color="#FF928E"/>
</linearGradient>
<linearGradient id="paint14_linear_368_1884" x1="126.23" y1="268.1" x2="103.429" y2="253.97" gradientUnits="userSpaceOnUse">
<stop stop-color="#FEBBBA"/>
<stop offset="1" stop-color="#FF928E"/>
</linearGradient>
<linearGradient id="paint15_linear_368_1884" x1="91.4111" y1="239.163" x2="120.829" y2="262.738" gradientUnits="userSpaceOnUse">
<stop stop-color="#09005D"/>
<stop offset="1" stop-color="#1A0F91"/>
</linearGradient>
<linearGradient id="paint16_linear_368_1884" x1="120.178" y1="273.266" x2="99.6643" y2="260.555" gradientUnits="userSpaceOnUse">
<stop stop-color="#FEBBBA"/>
<stop offset="1" stop-color="#FF928E"/>
</linearGradient>
<linearGradient id="paint17_linear_368_1884" x1="126.467" y1="307.731" x2="155.559" y2="428.955" gradientUnits="userSpaceOnUse">
<stop stop-color="#09005D"/>
<stop offset="1" stop-color="#1A0F91"/>
</linearGradient>
<linearGradient id="paint18_linear_368_1884" x1="106.531" y1="339.8" x2="123.013" y2="339.8" gradientUnits="userSpaceOnUse">
<stop stop-color="#FEBBBA"/>
<stop offset="1" stop-color="#FF928E"/>
</linearGradient>
<linearGradient id="paint19_linear_368_1884" x1="437.963" y1="248.095" x2="482.379" y2="318.586" gradientUnits="userSpaceOnUse">
<stop stop-color="#FEBBBA"/>
<stop offset="1" stop-color="#FF928E"/>
</linearGradient>
<linearGradient id="paint20_linear_368_1884" x1="557.856" y1="238.046" x2="513.187" y2="267.835" gradientUnits="userSpaceOnUse">
<stop stop-color="#09005D"/>
<stop offset="1" stop-color="#1A0F91"/>
</linearGradient>
<linearGradient id="paint21_linear_368_1884" x1="489.556" y1="293.605" x2="497.847" y2="275.19" gradientUnits="userSpaceOnUse">
<stop stop-color="#FEBBBA"/>
<stop offset="1" stop-color="#FF928E"/>
</linearGradient>
<linearGradient id="paint22_linear_368_1884" x1="489.126" y1="248.853" x2="505.956" y2="285.284" gradientUnits="userSpaceOnUse">
<stop stop-color="#FEBBBA"/>
<stop offset="1" stop-color="#FF928E"/>
</linearGradient>
<linearGradient id="paint23_linear_368_1884" x1="545.849" y1="220.041" x2="501.179" y2="249.829" gradientUnits="userSpaceOnUse">
<stop stop-color="#09005D"/>
<stop offset="1" stop-color="#1A0F91"/>
</linearGradient>
<linearGradient id="paint24_linear_368_1884" x1="497.043" y1="245.197" x2="513.874" y2="281.627" gradientUnits="userSpaceOnUse">
<stop stop-color="#FEBBBA"/>
<stop offset="1" stop-color="#FF928E"/>
</linearGradient>
<linearGradient id="paint25_linear_368_1884" x1="535.806" y1="522.489" x2="474.084" y2="410.948" gradientUnits="userSpaceOnUse">
<stop stop-color="#FEBBBA"/>
<stop offset="1" stop-color="#FF928E"/>
</linearGradient>
<linearGradient id="paint26_linear_368_1884" x1="522.501" y1="483.137" x2="504.136" y2="482.953" gradientUnits="userSpaceOnUse">
<stop stop-color="#09005D"/>
<stop offset="1" stop-color="#1A0F91"/>
</linearGradient>
<linearGradient id="paint27_linear_368_1884" x1="465.422" y1="439.726" x2="559.089" y2="470.713" gradientUnits="userSpaceOnUse">
<stop stop-color="#FEBBBA"/>
<stop offset="1" stop-color="#FF928E"/>
</linearGradient>
<linearGradient id="paint28_linear_368_1884" x1="505.441" y1="486.286" x2="483.546" y2="486.067" gradientUnits="userSpaceOnUse">
<stop stop-color="#09005D"/>
<stop offset="1" stop-color="#1A0F91"/>
</linearGradient>
<linearGradient id="paint29_linear_368_1884" x1="570.92" y1="322.852" x2="518.187" y2="363.282" gradientUnits="userSpaceOnUse">
<stop stop-color="#09005D"/>
<stop offset="1" stop-color="#1A0F91"/>
</linearGradient>
<linearGradient id="paint30_linear_368_1884" x1="533.235" y1="353.707" x2="444.352" y2="223.168" gradientUnits="userSpaceOnUse">
<stop stop-color="#FEBBBA"/>
<stop offset="1" stop-color="#FF928E"/>
</linearGradient>
<linearGradient id="paint31_linear_368_1884" x1="340.202" y1="464.059" x2="345.933" y2="486.536" gradientUnits="userSpaceOnUse">
<stop stop-color="#09005D"/>
<stop offset="1" stop-color="#1A0F91"/>
</linearGradient>
<linearGradient id="paint32_linear_368_1884" x1="357.908" y1="476.465" x2="347.69" y2="474.171" gradientUnits="userSpaceOnUse">
<stop stop-color="#FEBBBA"/>
<stop offset="1" stop-color="#FF928E"/>
</linearGradient>
<linearGradient id="paint33_linear_368_1884" x1="378.123" y1="452.601" x2="348.358" y2="381.98" gradientUnits="userSpaceOnUse">
<stop stop-color="#09005D"/>
<stop offset="1" stop-color="#1A0F91"/>
</linearGradient>
<linearGradient id="paint34_linear_368_1884" x1="341.576" y1="485.794" x2="366.702" y2="540.289" gradientUnits="userSpaceOnUse">
<stop stop-color="#09005D"/>
<stop offset="1" stop-color="#1A0F91"/>
</linearGradient>
<linearGradient id="paint35_linear_368_1884" x1="357.114" y1="499.863" x2="329.633" y2="493.694" gradientUnits="userSpaceOnUse">
<stop stop-color="#4F52FF"/>
<stop offset="1" stop-color="#4042E2"/>
</linearGradient>
<linearGradient id="paint36_linear_368_1884" x1="363.18" y1="487.557" x2="353.588" y2="485.403" gradientUnits="userSpaceOnUse">
<stop stop-color="#FEBBBA"/>
<stop offset="1" stop-color="#FF928E"/>
</linearGradient>
<linearGradient id="paint37_linear_368_1884" x1="386.967" y1="486.447" x2="402.844" y2="404.521" gradientUnits="userSpaceOnUse">
<stop stop-color="#09005D"/>
<stop offset="1" stop-color="#1A0F91"/>
</linearGradient>
<linearGradient id="paint38_linear_368_1884" x1="351.326" y1="378.849" x2="317.866" y2="371.337" gradientUnits="userSpaceOnUse">
<stop stop-color="#FEBBBA"/>
<stop offset="1" stop-color="#FF928E"/>
</linearGradient>
<linearGradient id="paint39_linear_368_1884" x1="401.72" y1="328.157" x2="379.52" y2="323.174" gradientUnits="userSpaceOnUse">
<stop stop-color="#FEBBBA"/>
<stop offset="1" stop-color="#FF928E"/>
</linearGradient>
<linearGradient id="paint40_linear_368_1884" x1="420.917" y1="384.339" x2="509.406" y2="507.804" gradientUnits="userSpaceOnUse">
<stop stop-color="#FEBBBA"/>
<stop offset="1" stop-color="#FF928E"/>
</linearGradient>
<linearGradient id="paint41_linear_368_1884" x1="391.102" y1="299.075" x2="379.681" y2="351.135" gradientUnits="userSpaceOnUse">
<stop stop-color="#FEBBBA"/>
<stop offset="1" stop-color="#FF928E"/>
</linearGradient>
<linearGradient id="paint42_linear_368_1884" x1="406.385" y1="313.083" x2="384.397" y2="287.375" gradientUnits="userSpaceOnUse">
<stop stop-color="#09005D"/>
<stop offset="1" stop-color="#1A0F91"/>
</linearGradient>
<linearGradient id="paint43_linear_368_1884" x1="395.179" y1="348.787" x2="398.126" y2="316.376" gradientUnits="userSpaceOnUse">
<stop stop-color="#FEBBBA"/>
<stop offset="1" stop-color="#FF928E"/>
</linearGradient>
<linearGradient id="paint44_linear_368_1884" x1="392.626" y1="377.229" x2="348.872" y2="391.578" gradientUnits="userSpaceOnUse">
<stop stop-color="#09005D"/>
<stop offset="1" stop-color="#1A0F91"/>
</linearGradient>
<linearGradient id="paint45_linear_368_1884" x1="332.575" y1="348.491" x2="301.065" y2="381.795" gradientUnits="userSpaceOnUse">
<stop stop-color="#09005D"/>
<stop offset="1" stop-color="#1A0F91"/>
</linearGradient>
</defs>
</svg>
